<svg width="362" height="102" viewBox="0 0 362 102" fill="none" xmlns="http://www.w3.org/2000/svg">
<g filter="url(#filter0_d_512_3423)">
<rect x="5" y="1" width="352" height="92" rx="8" fill="#222127" shape-rendering="crispEdges"/>
<rect x="5" y="1" width="352" height="92" rx="8" stroke="#49494C" stroke-width="2" shape-rendering="crispEdges"/>
<path d="M21.112 16.932H22.708V28.08H21.112V16.932ZM16.72 17.712C17.288 17.712 17.792 17.876 18.232 18.204C18.672 18.524 19.016 18.984 19.264 19.584C19.52 20.176 19.648 20.876 19.648 21.684C19.648 22.5 19.52 23.208 19.264 23.808C19.016 24.4 18.672 24.86 18.232 25.188C17.792 25.508 17.288 25.668 16.72 25.668C16.16 25.668 15.66 25.508 15.22 25.188C14.78 24.86 14.432 24.4 14.176 23.808C13.928 23.208 13.804 22.5 13.804 21.684C13.804 20.876 13.928 20.176 14.176 19.584C14.432 18.984 14.78 18.524 15.22 18.204C15.66 17.876 16.16 17.712 16.72 17.712ZM16.72 19.164C16.448 19.164 16.208 19.26 16 19.452C15.792 19.644 15.628 19.928 15.508 20.304C15.396 20.672 15.34 21.132 15.34 21.684C15.34 22.228 15.396 22.692 15.508 23.076C15.628 23.452 15.792 23.736 16 23.928C16.208 24.12 16.448 24.216 16.72 24.216C17 24.216 17.244 24.12 17.452 23.928C17.66 23.736 17.82 23.452 17.932 23.076C18.052 22.692 18.112 22.228 18.112 21.684C18.112 21.132 18.052 20.672 17.932 20.304C17.82 19.928 17.66 19.644 17.452 19.452C17.244 19.26 17 19.164 16.72 19.164ZM24.5191 22.62H34.5751V23.88H24.5191V22.62ZM25.7431 26.592H33.4471V27.876H25.7431V26.592ZM25.7431 24.624H27.3391V27H25.7431V24.624ZM29.5471 17.28C30.3551 17.28 31.0591 17.372 31.6591 17.556C32.2671 17.74 32.7391 18.004 33.0751 18.348C33.4111 18.692 33.5791 19.096 33.5791 19.56C33.5791 20.032 33.4111 20.44 33.0751 20.784C32.7391 21.128 32.2671 21.392 31.6591 21.576C31.0591 21.76 30.3551 21.852 29.5471 21.852C28.7471 21.852 28.0431 21.76 27.4351 21.576C26.8351 21.392 26.3671 21.128 26.0311 20.784C25.6951 20.44 25.5271 20.032 25.5271 19.56C25.5271 19.096 25.6951 18.692 26.0311 18.348C26.3671 18.004 26.8351 17.74 27.4351 17.556C28.0431 17.372 28.7471 17.28 29.5471 17.28ZM29.5471 18.54C29.0591 18.54 28.6351 18.58 28.2751 18.66C27.9151 18.74 27.6431 18.856 27.4591 19.008C27.2751 19.152 27.1831 19.336 27.1831 19.56C27.1831 19.784 27.2751 19.972 27.4591 20.124C27.6431 20.276 27.9151 20.392 28.2751 20.472C28.6351 20.552 29.0591 20.592 29.5471 20.592C30.0511 20.592 30.4791 20.552 30.8311 20.472C31.1831 20.392 31.4511 20.276 31.6351 20.124C31.8271 19.972 31.9231 19.784 31.9231 19.56C31.9231 19.336 31.8271 19.152 31.6351 19.008C31.4511 18.856 31.1831 18.74 30.8311 18.66C30.4791 18.58 30.0511 18.54 29.5471 18.54ZM40.9221 18.708H43.5261V19.968H40.9221V18.708ZM40.8261 21H43.4421V22.284H40.8261V21ZM43.2621 16.944H44.8701V23.34H43.2621V16.944ZM39.6501 17.7H41.3421C41.3421 18.708 41.1541 19.6 40.7781 20.376C40.4021 21.144 39.8381 21.796 39.0861 22.332C38.3341 22.86 37.3941 23.28 36.2661 23.592L35.6541 22.344C36.5981 22.096 37.3621 21.784 37.9461 21.408C38.5301 21.024 38.9581 20.584 39.2301 20.088C39.5101 19.592 39.6501 19.056 39.6501 18.48V17.7ZM36.2541 17.7H40.7661V18.972H36.2541V17.7ZM41.1861 23.484C41.9381 23.484 42.5941 23.576 43.1541 23.76C43.7221 23.944 44.1581 24.204 44.4621 24.54C44.7741 24.876 44.9301 25.276 44.9301 25.74C44.9301 26.204 44.7741 26.604 44.4621 26.94C44.1581 27.276 43.7221 27.536 43.1541 27.72C42.5941 27.912 41.9381 28.008 41.1861 28.008C40.4341 28.008 39.7741 27.912 39.2061 27.72C38.6461 27.536 38.2101 27.276 37.8981 26.94C37.5861 26.604 37.4301 26.204 37.4301 25.74C37.4301 25.276 37.5861 24.876 37.8981 24.54C38.2101 24.204 38.6461 23.944 39.2061 23.76C39.7741 23.576 40.4341 23.484 41.1861 23.484ZM41.1861 24.708C40.7301 24.708 40.3381 24.748 40.0101 24.828C39.6901 24.908 39.4421 25.024 39.2661 25.176C39.0901 25.328 39.0021 25.516 39.0021 25.74C39.0021 25.964 39.0901 26.156 39.2661 26.316C39.4421 26.468 39.6901 26.584 40.0101 26.664C40.3381 26.736 40.7301 26.772 41.1861 26.772C41.6421 26.772 42.0301 26.736 42.3501 26.664C42.6701 26.584 42.9181 26.468 43.0941 26.316C43.2701 26.156 43.3581 25.964 43.3581 25.74C43.3581 25.516 43.2701 25.328 43.0941 25.176C42.9181 25.024 42.6701 24.908 42.3501 24.828C42.0301 24.748 41.6421 24.708 41.1861 24.708Z" fill="#F7F8F8"/>
<path d="M52.6 25.716H62.44V26.544H52.6V25.716ZM57.004 22.908H57.988V25.944H57.004V22.908ZM53.752 17.976H61.24V23.088H53.752V17.976ZM60.268 18.78H54.724V22.296H60.268V18.78ZM64.3231 24.492H65.1871C65.8671 24.492 66.4871 24.484 67.0471 24.468C67.6151 24.452 68.1591 24.42 68.6791 24.372C69.2071 24.324 69.7471 24.252 70.2991 24.156L70.4071 24.972C69.8391 25.068 69.2871 25.144 68.7511 25.2C68.2151 25.248 67.6591 25.28 67.0831 25.296C66.5151 25.312 65.8831 25.32 65.1871 25.32H64.3231V24.492ZM64.3231 18.06H69.5791V18.888H65.3071V24.78H64.3231V18.06ZM65.0671 21.108H69.1831V21.912H65.0671V21.108ZM71.5471 17.076H72.5431V27.936H71.5471V17.076ZM75.0621 18.336H79.2021V25.02H75.0621V18.336ZM78.2661 19.128H75.9981V24.228H78.2661V19.128ZM82.9461 17.076H83.9061V27.936H82.9461V17.076ZM78.7101 21.168H81.2061V21.984H78.7101V21.168ZM80.7861 17.304H81.7341V27.384H80.7861V17.304ZM93.6012 17.076H94.5972V27.948H93.6012V17.076ZM88.8732 17.916C89.4092 17.916 89.8812 18.072 90.2892 18.384C90.7052 18.688 91.0292 19.124 91.2612 19.692C91.5012 20.26 91.6212 20.928 91.6212 21.696C91.6212 22.464 91.5012 23.132 91.2612 23.7C91.0292 24.268 90.7052 24.708 90.2892 25.02C89.8812 25.332 89.4092 25.488 88.8732 25.488C88.3372 25.488 87.8612 25.332 87.4452 25.02C87.0292 24.708 86.7012 24.268 86.4612 23.7C86.2292 23.132 86.1132 22.464 86.1132 21.696C86.1132 20.928 86.2292 20.26 86.4612 19.692C86.7012 19.124 87.0292 18.688 87.4452 18.384C87.8612 18.072 88.3372 17.916 88.8732 17.916ZM88.8732 18.804C88.5132 18.804 88.1972 18.924 87.9252 19.164C87.6612 19.396 87.4532 19.732 87.3012 20.172C87.1492 20.604 87.0732 21.112 87.0732 21.696C87.0732 22.28 87.1492 22.792 87.3012 23.232C87.4532 23.664 87.6612 24 87.9252 24.24C88.1972 24.48 88.5132 24.6 88.8732 24.6C89.2252 24.6 89.5332 24.48 89.7972 24.24C90.0692 24 90.2812 23.664 90.4332 23.232C90.5852 22.792 90.6612 22.28 90.6612 21.696C90.6612 21.112 90.5852 20.604 90.4332 20.172C90.2812 19.732 90.0692 19.396 89.7972 19.164C89.5332 18.924 89.2252 18.804 88.8732 18.804ZM98.0163 22.932H105.468V23.736H98.0163V22.932ZM96.7563 25.704H106.596V26.532H96.7563V25.704ZM98.0163 18.012H105.36V18.828H99.0243V23.172H98.0163V18.012ZM98.7123 20.424H105.12V21.228H98.7123V20.424ZM109.71 25.8068L109.646 26.2713C109.603 26.6122 109.531 26.9673 109.428 27.3366C109.329 27.7088 109.225 28.054 109.117 28.3722C109.012 28.6903 108.925 28.9432 108.857 29.1307H107.954C107.991 28.9545 108.042 28.7159 108.107 28.4148C108.173 28.1165 108.237 27.7827 108.299 27.4134C108.362 27.044 108.408 26.6676 108.44 26.2841L108.482 25.8068H109.71ZM120.259 18.2727H121.58V24.0128C121.58 24.6236 121.436 25.1648 121.149 25.6364C120.862 26.1051 120.459 26.4744 119.939 26.7443C119.419 27.0114 118.81 27.1449 118.111 27.1449C117.415 27.1449 116.807 27.0114 116.287 26.7443C115.767 26.4744 115.364 26.1051 115.077 25.6364C114.79 25.1648 114.646 24.6236 114.646 24.0128V18.2727H115.963V23.9062C115.963 24.3011 116.05 24.652 116.223 24.9588C116.399 25.2656 116.648 25.5071 116.969 25.6832C117.29 25.8565 117.67 25.9432 118.111 25.9432C118.554 25.9432 118.936 25.8565 119.257 25.6832C119.581 25.5071 119.828 25.2656 119.999 24.9588C120.172 24.652 120.259 24.3011 120.259 23.9062V18.2727ZM124.41 18.2727L126.498 21.6861H126.566L128.654 18.2727H130.18L127.461 22.6364L130.197 27H128.663L126.566 23.6335H126.498L124.402 27H122.868L125.65 22.6364L122.885 18.2727H124.41ZM134.708 17.8636L131.895 28.3125H130.757L133.57 17.8636H134.708ZM141.505 18.2727H142.826V24.0128C142.826 24.6236 142.682 25.1648 142.395 25.6364C142.108 26.1051 141.705 26.4744 141.185 26.7443C140.665 27.0114 140.056 27.1449 139.357 27.1449C138.661 27.1449 138.053 27.0114 137.533 26.7443C137.013 26.4744 136.61 26.1051 136.323 25.6364C136.036 25.1648 135.892 24.6236 135.892 24.0128V18.2727H137.209V23.9062C137.209 24.3011 137.296 24.652 137.469 24.9588C137.645 25.2656 137.894 25.5071 138.215 25.6832C138.536 25.8565 138.917 25.9432 139.357 25.9432C139.8 25.9432 140.182 25.8565 140.503 25.6832C140.827 25.5071 141.074 25.2656 141.245 24.9588C141.418 24.652 141.505 24.3011 141.505 23.9062V18.2727ZM146.057 18.2727V27H144.74V18.2727H146.057ZM158.675 17.076H159.671V27.948H158.675V17.076ZM151.487 24.408H152.363C153.083 24.408 153.731 24.4 154.307 24.384C154.883 24.368 155.427 24.332 155.939 24.276C156.459 24.22 156.987 24.144 157.523 24.048L157.619 24.888C157.075 24.992 156.539 25.072 156.011 25.128C155.483 25.176 154.927 25.212 154.343 25.236C153.759 25.252 153.099 25.26 152.363 25.26H151.487V24.408ZM151.487 18.108H156.611V18.936H152.483V24.72H151.487V18.108ZM164.506 18.636H165.31V20.388C165.31 20.956 165.23 21.52 165.07 22.08C164.91 22.632 164.686 23.156 164.398 23.652C164.118 24.14 163.794 24.576 163.426 24.96C163.058 25.336 162.662 25.632 162.238 25.848L161.65 25.056C162.042 24.864 162.406 24.604 162.742 24.276C163.086 23.94 163.39 23.56 163.654 23.136C163.918 22.704 164.126 22.256 164.278 21.792C164.43 21.32 164.506 20.852 164.506 20.388V18.636ZM164.698 18.636H165.49V20.388C165.49 20.82 165.558 21.256 165.694 21.696C165.838 22.136 166.038 22.556 166.294 22.956C166.55 23.356 166.846 23.716 167.182 24.036C167.526 24.348 167.89 24.6 168.274 24.792L167.71 25.584C167.286 25.368 166.89 25.08 166.522 24.72C166.154 24.352 165.834 23.936 165.562 23.472C165.29 23.008 165.078 22.512 164.926 21.984C164.774 21.456 164.698 20.924 164.698 20.388V18.636ZM162.034 18.192H167.89V19.02H162.034V18.192ZM169.174 17.076H170.17V27.936H169.174V17.076ZM169.942 21.456H171.946V22.296H169.942V21.456ZM180.766 17.088H181.762V25.008H180.766V17.088ZM174.79 26.88H182.098V27.696H174.79V26.88ZM174.79 24.204H175.786V27.156H174.79V24.204ZM175.942 17.844C176.486 17.844 176.97 17.956 177.394 18.18C177.818 18.404 178.154 18.72 178.402 19.128C178.65 19.528 178.774 19.988 178.774 20.508C178.774 21.028 178.65 21.492 178.402 21.9C178.154 22.3 177.818 22.616 177.394 22.848C176.97 23.072 176.486 23.184 175.942 23.184C175.406 23.184 174.922 23.072 174.49 22.848C174.066 22.616 173.73 22.3 173.482 21.9C173.234 21.492 173.11 21.028 173.11 20.508C173.11 19.988 173.234 19.528 173.482 19.128C173.73 18.72 174.066 18.404 174.49 18.18C174.922 17.956 175.406 17.844 175.942 17.844ZM175.942 18.708C175.59 18.708 175.274 18.784 174.994 18.936C174.714 19.088 174.49 19.3 174.322 19.572C174.162 19.844 174.082 20.156 174.082 20.508C174.082 20.868 174.162 21.184 174.322 21.456C174.49 21.72 174.714 21.928 174.994 22.08C175.274 22.232 175.59 22.308 175.942 22.308C176.294 22.308 176.61 22.232 176.89 22.08C177.178 21.928 177.402 21.72 177.562 21.456C177.722 21.184 177.802 20.868 177.802 20.508C177.802 20.156 177.722 19.844 177.562 19.572C177.402 19.3 177.178 19.088 176.89 18.936C176.61 18.784 176.294 18.708 175.942 18.708Z" fill="#8A8F98"/>
<path d="M14.224 47.092H15.1C15.884 47.092 16.564 47.088 17.14 47.08C17.724 47.064 18.264 47.032 18.76 46.984C19.256 46.936 19.756 46.872 20.26 46.792L20.368 47.584C19.84 47.672 19.324 47.74 18.82 47.788C18.316 47.828 17.768 47.856 17.176 47.872C16.584 47.888 15.892 47.896 15.1 47.896H14.224V47.092ZM14.224 42.736H19.384V43.552H15.22V47.5H14.224V42.736ZM14.896 44.884H19.084V45.676H14.896V44.884ZM21.496 42.088H22.492V48.556H21.496V42.088ZM15.484 49.096H22.492V52.792H15.484V49.096ZM21.52 49.888H16.456V51.976H21.52V49.888ZM36.2461 42.076H37.2061V52.936H36.2461V42.076ZM34.4341 46.492H36.5221V47.32H34.4341V46.492ZM33.7861 42.316H34.7221V52.372H33.7861V42.316ZM28.5421 43.384H29.5381V49.648H28.5421V43.384ZM28.5421 49.252H29.2261C29.7941 49.252 30.3901 49.232 31.0141 49.192C31.6381 49.144 32.3021 49.048 33.0061 48.904L33.1261 49.78C32.3901 49.924 31.7021 50.02 31.0621 50.068C30.4221 50.108 29.8101 50.128 29.2261 50.128H28.5421V49.252ZM43.4571 46.3H45.4971V47.116H43.4571V46.3ZM47.3211 42.076H48.2811V52.936H47.3211V42.076ZM45.1611 42.304H46.1091V52.384H45.1611V42.304ZM41.4891 42.988C41.9611 42.988 42.3691 43.14 42.7131 43.444C43.0651 43.748 43.3371 44.184 43.5291 44.752C43.7211 45.32 43.8171 45.988 43.8171 46.756C43.8171 47.532 43.7211 48.204 43.5291 48.772C43.3371 49.34 43.0651 49.78 42.7131 50.092C42.3691 50.396 41.9611 50.548 41.4891 50.548C41.0331 50.548 40.6291 50.396 40.2771 50.092C39.9331 49.78 39.6651 49.34 39.4731 48.772C39.2811 48.204 39.1851 47.532 39.1851 46.756C39.1851 45.988 39.2811 45.32 39.4731 44.752C39.6651 44.184 39.9331 43.748 40.2771 43.444C40.6291 43.14 41.0331 42.988 41.4891 42.988ZM41.4891 43.912C41.2091 43.912 40.9651 44.028 40.7571 44.26C40.5491 44.492 40.3891 44.82 40.2771 45.244C40.1651 45.668 40.1091 46.172 40.1091 46.756C40.1091 47.34 40.1651 47.848 40.2771 48.28C40.3891 48.704 40.5491 49.032 40.7571 49.264C40.9651 49.496 41.2091 49.612 41.4891 49.612C41.7771 49.612 42.0251 49.496 42.2331 49.264C42.4491 49.032 42.6131 48.704 42.7251 48.28C42.8371 47.848 42.8931 47.34 42.8931 46.756C42.8931 46.172 42.8371 45.668 42.7251 45.244C42.6131 44.82 42.4491 44.492 42.2331 44.26C42.0251 44.028 41.7771 43.912 41.4891 43.912ZM55.5162 45.76H58.5282V46.576H55.5162V45.76ZM52.8882 43.012H53.7042V44.956C53.7042 45.556 53.6282 46.148 53.4762 46.732C53.3322 47.316 53.1242 47.86 52.8522 48.364C52.5802 48.868 52.2602 49.316 51.8922 49.708C51.5322 50.1 51.1362 50.412 50.7042 50.644L50.0802 49.84C50.4802 49.648 50.8482 49.38 51.1842 49.036C51.5282 48.692 51.8282 48.3 52.0842 47.86C52.3402 47.412 52.5362 46.944 52.6722 46.456C52.8162 45.96 52.8882 45.46 52.8882 44.956V43.012ZM53.0922 43.012H53.8962V44.956C53.8962 45.444 53.9642 45.928 54.1002 46.408C54.2442 46.888 54.4442 47.34 54.7002 47.764C54.9562 48.18 55.2522 48.552 55.5882 48.88C55.9322 49.208 56.3002 49.464 56.6922 49.648L56.0922 50.452C55.6602 50.228 55.2602 49.928 54.8922 49.552C54.5242 49.176 54.2042 48.744 53.9322 48.256C53.6682 47.768 53.4602 47.244 53.3082 46.684C53.1642 46.124 53.0922 45.548 53.0922 44.956V43.012ZM58.0362 42.076H59.0202V52.948H58.0362V42.076ZM67.5543 42.472C68.0983 42.472 68.5783 42.576 68.9943 42.784C69.4183 42.984 69.7503 43.264 69.9903 43.624C70.2303 43.984 70.3503 44.404 70.3503 44.884C70.3503 45.356 70.2303 45.776 69.9903 46.144C69.7503 46.504 69.4183 46.784 68.9943 46.984C68.5783 47.184 68.0983 47.284 67.5543 47.284C67.0183 47.284 66.5383 47.184 66.1143 46.984C65.6903 46.784 65.3543 46.504 65.1063 46.144C64.8663 45.776 64.7463 45.356 64.7463 44.884C64.7463 44.404 64.8663 43.984 65.1063 43.624C65.3543 43.264 65.6903 42.984 66.1143 42.784C66.5383 42.576 67.0183 42.472 67.5543 42.472ZM67.5543 43.3C67.2023 43.3 66.8863 43.368 66.6063 43.504C66.3343 43.632 66.1183 43.816 65.9583 44.056C65.7983 44.296 65.7183 44.572 65.7183 44.884C65.7183 45.196 65.7983 45.472 65.9583 45.712C66.1183 45.944 66.3343 46.128 66.6063 46.264C66.8863 46.4 67.2023 46.468 67.5543 46.468C67.9063 46.468 68.2183 46.4 68.4903 46.264C68.7703 46.128 68.9903 45.944 69.1503 45.712C69.3103 45.472 69.3903 45.196 69.3903 44.884C69.3903 44.572 69.3103 44.296 69.1503 44.056C68.9903 43.816 68.7703 43.632 68.4903 43.504C68.2183 43.368 67.9063 43.3 67.5543 43.3ZM72.4023 42.076H73.3983V47.632H72.4023V42.076ZM66.3783 48.172H73.3983V50.8H67.3743V52.432H66.4143V50.056H72.4143V48.964H66.3783V48.172ZM66.4143 51.988H73.7703V52.792H66.4143V51.988ZM76.1333 42.916H80.9333V43.744H76.1333V42.916ZM77.7653 45.34H78.7493V48.052H77.7653V45.34ZM80.5373 42.916H81.5093V43.492C81.5093 43.852 81.4973 44.3 81.4733 44.836C81.4573 45.372 81.3773 45.996 81.2333 46.708L80.2493 46.612C80.3933 45.892 80.4773 45.28 80.5013 44.776C80.5253 44.272 80.5373 43.844 80.5373 43.492V42.916ZM82.9853 42.076H83.9933V50.248H82.9853V42.076ZM83.5373 45.604H85.5413V46.444H83.5373V45.604ZM77.1293 51.88H84.3413V52.696H77.1293V51.88ZM77.1293 49.504H78.1253V52.12H77.1293V49.504ZM75.5813 48.52L75.4733 47.704C76.1133 47.704 76.8213 47.696 77.5973 47.68C78.3733 47.664 79.1613 47.632 79.9613 47.584C80.7613 47.528 81.5293 47.452 82.2653 47.356L82.3253 48.088C81.5813 48.216 80.8093 48.312 80.0093 48.376C79.2093 48.44 78.4293 48.48 77.6693 48.496C76.9173 48.512 76.2213 48.52 75.5813 48.52ZM87.6044 45.628H92.8364V46.432H87.6044V45.628ZM89.6924 46.12H90.6884V48.28H89.6924V46.12ZM87.6044 42.784H92.7524V43.6H88.6004V45.976H87.6044V42.784ZM94.4684 42.088H95.4644V50.2H94.4684V42.088ZM88.4444 51.88H95.8244V52.696H88.4444V51.88ZM88.4444 49.66H89.4404V52.228H88.4444V49.66ZM86.7764 48.832L86.6324 48.016C87.3284 48.008 88.0724 47.996 88.8644 47.98C89.6564 47.964 90.4564 47.936 91.2644 47.896C92.0724 47.848 92.8484 47.784 93.5924 47.704L93.6644 48.436C92.8964 48.54 92.1084 48.624 91.3004 48.688C90.5004 48.744 89.7124 48.784 88.9364 48.808C88.1684 48.824 87.4484 48.832 86.7764 48.832ZM108.342 42.076H109.338V52.924H108.342V42.076ZM109.074 46.48H111.066V47.308H109.074V46.48ZM105.57 43.24H106.542C106.542 44.272 106.374 45.26 106.038 46.204C105.702 47.14 105.174 48.008 104.454 48.808C103.734 49.6 102.786 50.288 101.61 50.872L101.058 50.104C102.066 49.6 102.902 49.012 103.566 48.34C104.238 47.66 104.738 46.908 105.066 46.084C105.402 45.252 105.57 44.356 105.57 43.396V43.24ZM101.562 43.24H106.074V44.068H101.562V43.24ZM119.922 42.076H120.918V52.948H119.922V42.076ZM115.194 42.916C115.73 42.916 116.202 43.072 116.61 43.384C117.026 43.688 117.35 44.124 117.582 44.692C117.822 45.26 117.942 45.928 117.942 46.696C117.942 47.464 117.822 48.132 117.582 48.7C117.35 49.268 117.026 49.708 116.61 50.02C116.202 50.332 115.73 50.488 115.194 50.488C114.658 50.488 114.182 50.332 113.766 50.02C113.35 49.708 113.022 49.268 112.782 48.7C112.55 48.132 112.434 47.464 112.434 46.696C112.434 45.928 112.55 45.26 112.782 44.692C113.022 44.124 113.35 43.688 113.766 43.384C114.182 43.072 114.658 42.916 115.194 42.916ZM115.194 43.804C114.834 43.804 114.518 43.924 114.246 44.164C113.982 44.396 113.774 44.732 113.622 45.172C113.47 45.604 113.394 46.112 113.394 46.696C113.394 47.28 113.47 47.792 113.622 48.232C113.774 48.664 113.982 49 114.246 49.24C114.518 49.48 114.834 49.6 115.194 49.6C115.546 49.6 115.854 49.48 116.118 49.24C116.39 49 116.602 48.664 116.754 48.232C116.906 47.792 116.982 47.28 116.982 46.696C116.982 46.112 116.906 45.604 116.754 45.172C116.602 44.732 116.39 44.396 116.118 44.164C115.854 43.924 115.546 43.804 115.194 43.804ZM124.325 47.284H131.777V48.1H124.325V47.284ZM123.077 50.632H132.917V51.46H123.077V50.632ZM124.325 43.084H131.669V43.9H125.309V47.644H124.325V43.084ZM141.472 42.076H142.456V52.948H141.472V42.076ZM142.228 46.384H144.232V47.224H142.228V46.384ZM134.56 49.492H135.424C136.096 49.492 136.712 49.484 137.272 49.468C137.84 49.444 138.388 49.408 138.916 49.36C139.444 49.304 139.98 49.224 140.524 49.12L140.62 49.936C140.06 50.04 139.512 50.12 138.976 50.176C138.448 50.232 137.896 50.272 137.32 50.296C136.744 50.32 136.112 50.332 135.424 50.332H134.56V49.492ZM134.536 43.084H139.432V46.984H135.544V49.828H134.56V46.156H138.448V43.9H134.536V43.084ZM153.051 42.088H154.047V50.008H153.051V42.088ZM147.075 51.88H154.383V52.696H147.075V51.88ZM147.075 49.204H148.071V52.156H147.075V49.204ZM148.227 42.844C148.771 42.844 149.255 42.956 149.679 43.18C150.103 43.404 150.439 43.72 150.687 44.128C150.935 44.528 151.059 44.988 151.059 45.508C151.059 46.028 150.935 46.492 150.687 46.9C150.439 47.3 150.103 47.616 149.679 47.848C149.255 48.072 148.771 48.184 148.227 48.184C147.691 48.184 147.207 48.072 146.775 47.848C146.351 47.616 146.015 47.3 145.767 46.9C145.519 46.492 145.395 46.028 145.395 45.508C145.395 44.988 145.519 44.528 145.767 44.128C146.015 43.72 146.351 43.404 146.775 43.18C147.207 42.956 147.691 42.844 148.227 42.844ZM148.227 43.708C147.875 43.708 147.559 43.784 147.279 43.936C146.999 44.088 146.775 44.3 146.607 44.572C146.447 44.844 146.367 45.156 146.367 45.508C146.367 45.868 146.447 46.184 146.607 46.456C146.775 46.72 146.999 46.928 147.279 47.08C147.559 47.232 147.875 47.308 148.227 47.308C148.579 47.308 148.895 47.232 149.175 47.08C149.463 46.928 149.687 46.72 149.847 46.456C150.007 46.184 150.087 45.868 150.087 45.508C150.087 45.156 150.007 44.844 149.847 44.572C149.687 44.3 149.463 44.088 149.175 43.936C148.895 43.784 148.579 43.708 148.227 43.708ZM161.09 42.268C162.29 42.268 163.226 42.432 163.898 42.76C164.57 43.08 164.906 43.54 164.906 44.14C164.906 44.748 164.57 45.216 163.898 45.544C163.226 45.864 162.29 46.024 161.09 46.024C159.898 46.024 158.962 45.864 158.282 45.544C157.61 45.216 157.274 44.748 157.274 44.14C157.274 43.54 157.61 43.08 158.282 42.76C158.962 42.432 159.898 42.268 161.09 42.268ZM161.09 43.012C160.506 43.012 160.006 43.056 159.59 43.144C159.174 43.232 158.854 43.36 158.63 43.528C158.414 43.696 158.306 43.9 158.306 44.14C158.306 44.38 158.414 44.588 158.63 44.764C158.854 44.932 159.174 45.06 159.59 45.148C160.006 45.228 160.506 45.268 161.09 45.268C161.682 45.268 162.186 45.228 162.602 45.148C163.018 45.06 163.334 44.932 163.55 44.764C163.774 44.588 163.886 44.38 163.886 44.14C163.886 43.9 163.774 43.696 163.55 43.528C163.334 43.36 163.018 43.232 162.602 43.144C162.186 43.056 161.682 43.012 161.09 43.012ZM156.194 46.756H165.998V47.56H156.194V46.756ZM157.382 48.484H164.738V50.932H158.378V52.24H157.406V50.2H163.766V49.252H157.382V48.484ZM157.406 52.036H165.062V52.816H157.406V52.036ZM176.404 44.896H178.84V45.724H176.404V44.896ZM178.54 42.076H179.536V48.544H178.54V42.076ZM175.96 48.88C176.712 48.88 177.356 48.96 177.892 49.12C178.436 49.28 178.852 49.512 179.14 49.816C179.428 50.112 179.572 50.476 179.572 50.908C179.572 51.548 179.248 52.044 178.6 52.396C177.96 52.748 177.08 52.924 175.96 52.924C174.84 52.924 173.956 52.748 173.308 52.396C172.668 52.044 172.348 51.548 172.348 50.908C172.348 50.476 172.492 50.112 172.78 49.816C173.076 49.512 173.492 49.28 174.028 49.12C174.572 48.96 175.216 48.88 175.96 48.88ZM175.96 49.66C175.416 49.66 174.948 49.708 174.556 49.804C174.164 49.9 173.86 50.04 173.644 50.224C173.436 50.408 173.332 50.636 173.332 50.908C173.332 51.164 173.436 51.384 173.644 51.568C173.86 51.752 174.164 51.896 174.556 52C174.948 52.096 175.416 52.144 175.96 52.144C176.512 52.144 176.98 52.096 177.364 52C177.756 51.896 178.056 51.752 178.264 51.568C178.48 51.384 178.588 51.164 178.588 50.908C178.588 50.636 178.48 50.408 178.264 50.224C178.056 50.04 177.756 49.9 177.364 49.804C176.98 49.708 176.512 49.66 175.96 49.66ZM173.368 43.18H174.184V44.056C174.184 44.72 174.056 45.344 173.8 45.928C173.552 46.504 173.2 47.012 172.744 47.452C172.288 47.884 171.76 48.216 171.16 48.448L170.644 47.656C171.052 47.512 171.42 47.316 171.748 47.068C172.084 46.82 172.372 46.536 172.612 46.216C172.86 45.896 173.048 45.552 173.176 45.184C173.304 44.816 173.368 44.44 173.368 44.056V43.18ZM173.56 43.18H174.376V44.044C174.376 44.508 174.484 44.96 174.7 45.4C174.916 45.84 175.224 46.228 175.624 46.564C176.024 46.9 176.484 47.164 177.004 47.356L176.5 48.148C175.908 47.932 175.392 47.62 174.952 47.212C174.512 46.796 174.168 46.316 173.92 45.772C173.68 45.228 173.56 44.652 173.56 44.044V43.18ZM170.956 42.868H176.752V43.684H170.956V42.868ZM189.543 42.088H190.539V48.052H189.543V42.088ZM182.211 46.996H183.087C183.743 46.996 184.351 46.988 184.911 46.972C185.479 46.956 186.031 46.924 186.567 46.876C187.103 46.82 187.659 46.748 188.235 46.66L188.355 47.476C187.755 47.572 187.179 47.644 186.627 47.692C186.083 47.74 185.523 47.776 184.947 47.8C184.379 47.816 183.759 47.824 183.087 47.824H182.211V46.996ZM182.187 42.604H187.107V45.556H183.183V47.536H182.211V44.776H186.135V43.42H182.187V42.604ZM183.531 48.592H184.515V49.864H189.555V48.592H190.539V52.792H183.531V48.592ZM184.515 50.656V51.976H189.555V50.656H184.515ZM192.662 43.936H198.05V44.752H192.662V43.936ZM195.362 45.472C195.818 45.472 196.218 45.576 196.562 45.784C196.914 45.992 197.19 46.284 197.39 46.66C197.59 47.028 197.69 47.456 197.69 47.944C197.69 48.432 197.59 48.864 197.39 49.24C197.19 49.608 196.914 49.9 196.562 50.116C196.218 50.324 195.818 50.428 195.362 50.428C194.914 50.428 194.514 50.324 194.162 50.116C193.81 49.9 193.534 49.608 193.334 49.24C193.134 48.864 193.034 48.432 193.034 47.944C193.034 47.456 193.134 47.028 193.334 46.66C193.534 46.292 193.81 46.004 194.162 45.796C194.514 45.58 194.914 45.472 195.362 45.472ZM195.362 46.312C195.09 46.312 194.842 46.384 194.618 46.528C194.402 46.664 194.23 46.856 194.102 47.104C193.982 47.344 193.922 47.624 193.922 47.944C193.922 48.264 193.982 48.548 194.102 48.796C194.23 49.044 194.402 49.236 194.618 49.372C194.842 49.508 195.09 49.576 195.362 49.576C195.642 49.576 195.89 49.508 196.106 49.372C196.322 49.236 196.49 49.044 196.61 48.796C196.738 48.548 196.802 48.264 196.802 47.944C196.802 47.624 196.738 47.344 196.61 47.104C196.49 46.856 196.322 46.664 196.106 46.528C195.89 46.384 195.642 46.312 195.362 46.312ZM200.918 42.076H201.866V52.936H200.918V42.076ZM199.178 46.648H201.23V47.464H199.178V46.648ZM198.59 42.328H199.526V52.408H198.59V42.328ZM194.87 42.4H195.854V44.428H194.87V42.4ZM213.196 44.608H215.416V45.424H213.196V44.608ZM213.184 46.72H215.392V47.536H213.184V46.72ZM207.112 43.168H213.196V43.972H207.112V43.168ZM210.184 44.5C210.672 44.5 211.1 44.584 211.468 44.752C211.836 44.912 212.124 45.14 212.332 45.436C212.54 45.724 212.644 46.064 212.644 46.456C212.644 46.848 212.54 47.192 212.332 47.488C212.124 47.776 211.836 48 211.468 48.16C211.1 48.32 210.672 48.4 210.184 48.4C209.704 48.4 209.28 48.32 208.912 48.16C208.544 48 208.256 47.776 208.048 47.488C207.84 47.192 207.736 46.848 207.736 46.456C207.736 46.064 207.84 45.724 208.048 45.436C208.256 45.14 208.544 44.912 208.912 44.752C209.28 44.584 209.704 44.5 210.184 44.5ZM210.184 45.268C209.728 45.268 209.36 45.376 209.08 45.592C208.808 45.808 208.672 46.096 208.672 46.456C208.672 46.816 208.808 47.108 209.08 47.332C209.36 47.548 209.728 47.656 210.184 47.656C210.64 47.656 211.008 47.548 211.288 47.332C211.576 47.108 211.72 46.816 211.72 46.456C211.72 46.096 211.576 45.808 211.288 45.592C211.008 45.376 210.64 45.268 210.184 45.268ZM209.704 41.98H210.688V43.66H209.704V41.98ZM215.032 42.076H216.028V48.496H215.032V42.076ZM209.008 48.964H209.992V50.08H215.044V48.964H216.028V52.792H209.008V48.964ZM209.992 50.848V52H215.044V50.848H209.992ZM223.587 44.668H226.503V45.484H223.587V44.668ZM221.103 42.58C221.639 42.58 222.115 42.688 222.531 42.904C222.955 43.112 223.287 43.404 223.527 43.78C223.767 44.156 223.887 44.592 223.887 45.088C223.887 45.584 223.767 46.024 223.527 46.408C223.287 46.784 222.955 47.08 222.531 47.296C222.115 47.504 221.639 47.608 221.103 47.608C220.559 47.608 220.075 47.504 219.651 47.296C219.235 47.08 218.907 46.784 218.667 46.408C218.427 46.024 218.307 45.584 218.307 45.088C218.307 44.592 218.427 44.156 218.667 43.78C218.907 43.404 219.235 43.112 219.651 42.904C220.075 42.688 220.559 42.58 221.103 42.58ZM221.103 43.42C220.743 43.42 220.423 43.492 220.143 43.636C219.871 43.772 219.655 43.968 219.495 44.224C219.335 44.472 219.255 44.76 219.255 45.088C219.255 45.416 219.335 45.708 219.495 45.964C219.655 46.212 219.871 46.408 220.143 46.552C220.423 46.696 220.743 46.768 221.103 46.768C221.455 46.768 221.767 46.696 222.039 46.552C222.319 46.408 222.539 46.212 222.699 45.964C222.859 45.708 222.939 45.416 222.939 45.088C222.939 44.76 222.859 44.472 222.699 44.224C222.539 43.968 222.319 43.772 222.039 43.636C221.767 43.492 221.455 43.42 221.103 43.42ZM226.071 42.076H227.067V47.908H226.071V42.076ZM220.119 48.448H221.103V49.804L226.071 49.804V48.448H227.067V52.792L220.119 52.792V48.448ZM221.103 50.596V51.976L226.071 51.976V50.596L221.103 50.596ZM235.133 48.784H236.129V51.352H235.133V48.784ZM238.781 48.784H239.765V51.352H238.781V48.784ZM233.033 43.684H241.853V44.5H233.033V43.684ZM232.553 50.872H242.393V51.688H232.553V50.872ZM237.449 45.196C238.545 45.196 239.409 45.376 240.041 45.736C240.681 46.088 241.001 46.588 241.001 47.236C241.001 47.876 240.681 48.376 240.041 48.736C239.409 49.088 238.545 49.264 237.449 49.264C236.345 49.264 235.477 49.088 234.845 48.736C234.213 48.376 233.897 47.876 233.897 47.236C233.897 46.588 234.213 46.088 234.845 45.736C235.477 45.376 236.345 45.196 237.449 45.196ZM237.437 45.976C236.917 45.976 236.465 46.028 236.081 46.132C235.705 46.228 235.413 46.372 235.205 46.564C235.005 46.748 234.905 46.972 234.905 47.236C234.905 47.492 235.005 47.716 235.205 47.908C235.413 48.092 235.705 48.236 236.081 48.34C236.465 48.436 236.917 48.484 237.437 48.484C237.973 48.484 238.429 48.436 238.805 48.34C239.181 48.236 239.473 48.092 239.681 47.908C239.889 47.716 239.993 47.492 239.993 47.236C239.993 46.972 239.889 46.748 239.681 46.564C239.473 46.372 239.181 46.228 238.805 46.132C238.429 46.028 237.973 45.976 237.437 45.976ZM236.957 42.256H237.941V44.164H236.957V42.256ZM246.244 46.948H247.228V48.964H246.244V46.948ZM249.688 46.948H250.684V48.964H249.688V46.948ZM248.488 42.208C249.688 42.208 250.624 42.372 251.296 42.7C251.968 43.02 252.304 43.48 252.304 44.08C252.304 44.688 251.968 45.156 251.296 45.484C250.624 45.804 249.688 45.964 248.488 45.964C247.296 45.964 246.36 45.804 245.68 45.484C245.008 45.156 244.672 44.688 244.672 44.08C244.672 43.48 245.008 43.02 245.68 42.7C246.36 42.372 247.296 42.208 248.488 42.208ZM248.488 42.964C247.904 42.964 247.404 43.008 246.988 43.096C246.572 43.184 246.252 43.312 246.028 43.48C245.812 43.64 245.704 43.84 245.704 44.08C245.704 44.32 245.812 44.528 246.028 44.704C246.252 44.872 246.572 45 246.988 45.088C247.404 45.168 247.904 45.208 248.488 45.208C249.08 45.208 249.584 45.168 250 45.088C250.416 45 250.732 44.872 250.948 44.704C251.172 44.528 251.284 44.32 251.284 44.08C251.284 43.84 251.172 43.64 250.948 43.48C250.732 43.312 250.416 43.184 250 43.096C249.584 43.008 249.08 42.964 248.488 42.964ZM243.592 46.624H253.396V47.428H243.592V46.624ZM244.78 48.484H252.136V50.932H245.776V52.24H244.804V50.2H251.164V49.252H244.78V48.484ZM244.804 52.036H252.46V52.816H244.804V52.036ZM259.527 42.268C260.727 42.268 261.663 42.432 262.335 42.76C263.007 43.08 263.343 43.54 263.343 44.14C263.343 44.748 263.007 45.216 262.335 45.544C261.663 45.864 260.727 46.024 259.527 46.024C258.335 46.024 257.399 45.864 256.719 45.544C256.047 45.216 255.711 44.748 255.711 44.14C255.711 43.54 256.047 43.08 256.719 42.76C257.399 42.432 258.335 42.268 259.527 42.268ZM259.527 43.012C258.943 43.012 258.443 43.056 258.027 43.144C257.611 43.232 257.291 43.36 257.067 43.528C256.851 43.696 256.743 43.9 256.743 44.14C256.743 44.38 256.851 44.588 257.067 44.764C257.291 44.932 257.611 45.06 258.027 45.148C258.443 45.228 258.943 45.268 259.527 45.268C260.119 45.268 260.623 45.228 261.039 45.148C261.455 45.06 261.771 44.932 261.987 44.764C262.211 44.588 262.323 44.38 262.323 44.14C262.323 43.9 262.211 43.696 261.987 43.528C261.771 43.36 261.455 43.232 261.039 43.144C260.623 43.056 260.119 43.012 259.527 43.012ZM254.631 46.756H264.435V47.56H254.631V46.756ZM255.819 48.484H263.175V50.932H256.815V52.24H255.843V50.2H262.203V49.252H255.819V48.484ZM255.843 52.036H263.499V52.816H255.843V52.036ZM270.377 44.848H277.757V45.664H270.377V44.848ZM270.377 42.316H271.361V45.376H270.377V42.316ZM269.045 47.02H278.849V47.824H269.045V47.02ZM273.449 45.388H274.445V47.56H273.449V45.388ZM270.137 48.904H277.769V49.708H270.137V48.904ZM270.041 51.976H277.865V52.792H270.041V51.976ZM271.781 49.132H272.765V52.348H271.781V49.132ZM275.141 49.132H276.125V52.348H275.141V49.132ZM287.968 42.076H288.964V52.948H287.968V42.076ZM283.24 42.916C283.776 42.916 284.248 43.072 284.656 43.384C285.072 43.688 285.396 44.124 285.628 44.692C285.868 45.26 285.988 45.928 285.988 46.696C285.988 47.464 285.868 48.132 285.628 48.7C285.396 49.268 285.072 49.708 284.656 50.02C284.248 50.332 283.776 50.488 283.24 50.488C282.704 50.488 282.228 50.332 281.812 50.02C281.396 49.708 281.068 49.268 280.828 48.7C280.596 48.132 280.48 47.464 280.48 46.696C280.48 45.928 280.596 45.26 280.828 44.692C281.068 44.124 281.396 43.688 281.812 43.384C282.228 43.072 282.704 42.916 283.24 42.916ZM283.24 43.804C282.88 43.804 282.564 43.924 282.292 44.164C282.028 44.396 281.82 44.732 281.668 45.172C281.516 45.604 281.44 46.112 281.44 46.696C281.44 47.28 281.516 47.792 281.668 48.232C281.82 48.664 282.028 49 282.292 49.24C282.564 49.48 282.88 49.6 283.24 49.6C283.592 49.6 283.9 49.48 284.164 49.24C284.436 49 284.648 48.664 284.8 48.232C284.952 47.792 285.028 47.28 285.028 46.696C285.028 46.112 284.952 45.604 284.8 45.172C284.648 44.732 284.436 44.396 284.164 44.164C283.9 43.924 283.592 43.804 283.24 43.804ZM292.167 43.168H299.151V43.984H292.167V43.168ZM291.123 50.584H300.927V51.412H291.123V50.584ZM294.939 46.708H295.923V51.004H294.939V46.708ZM298.767 43.168H299.763V44.236C299.763 44.684 299.755 45.156 299.739 45.652C299.731 46.148 299.699 46.692 299.643 47.284C299.595 47.876 299.503 48.536 299.367 49.264L298.359 49.144C298.567 48.104 298.687 47.192 298.719 46.408C298.751 45.616 298.767 44.892 298.767 44.236V43.168ZM312.882 42.076H313.878V52.948H312.882V42.076ZM313.65 46.36H315.654V47.188H313.65V46.36ZM306.006 49.396H306.858C307.522 49.396 308.13 49.388 308.682 49.372C309.242 49.348 309.778 49.308 310.29 49.252C310.81 49.196 311.338 49.12 311.874 49.024L311.993 49.876C311.434 49.972 310.89 50.048 310.362 50.104C309.842 50.16 309.298 50.196 308.73 50.212C308.162 50.228 307.538 50.236 306.858 50.236H306.006V49.396ZM306.006 43.132H311.034V43.948H306.99V49.78H306.006V43.132ZM324.701 43.696H326.573V44.524H324.701V43.696ZM324.701 46.012H326.573V46.84H324.701V46.012ZM319.601 42.724C320.153 42.724 320.641 42.832 321.065 43.048C321.489 43.264 321.821 43.564 322.061 43.948C322.309 44.332 322.433 44.776 322.433 45.28C322.433 45.792 322.309 46.24 322.061 46.624C321.821 47 321.489 47.296 321.065 47.512C320.641 47.728 320.153 47.836 319.601 47.836C319.065 47.836 318.581 47.728 318.149 47.512C317.725 47.296 317.389 47 317.141 46.624C316.893 46.24 316.769 45.792 316.769 45.28C316.769 44.776 316.893 44.332 317.141 43.948C317.389 43.564 317.725 43.264 318.149 43.048C318.581 42.832 319.065 42.724 319.601 42.724ZM319.601 43.564C319.249 43.564 318.933 43.64 318.653 43.792C318.373 43.936 318.149 44.136 317.981 44.392C317.821 44.648 317.741 44.944 317.741 45.28C317.741 45.624 317.821 45.924 317.981 46.18C318.149 46.436 318.373 46.636 318.653 46.78C318.933 46.924 319.249 46.996 319.601 46.996C319.961 46.996 320.281 46.924 320.561 46.78C320.841 46.636 321.061 46.436 321.221 46.18C321.389 45.924 321.473 45.624 321.473 45.28C321.473 44.944 321.389 44.648 321.221 44.392C321.061 44.136 320.841 43.936 320.561 43.792C320.281 43.64 319.961 43.564 319.601 43.564ZM324.005 42.076H325.001V48.508H324.005V42.076ZM321.545 48.844C322.273 48.844 322.905 48.928 323.441 49.096C323.977 49.256 324.389 49.488 324.677 49.792C324.965 50.088 325.109 50.452 325.109 50.884C325.109 51.308 324.965 51.672 324.677 51.976C324.389 52.272 323.977 52.5 323.441 52.66C322.905 52.828 322.273 52.912 321.545 52.912C320.809 52.912 320.173 52.828 319.637 52.66C319.101 52.5 318.689 52.272 318.401 51.976C318.113 51.672 317.969 51.308 317.969 50.884C317.969 50.452 318.113 50.088 318.401 49.792C318.689 49.488 319.101 49.256 319.637 49.096C320.173 48.928 320.809 48.844 321.545 48.844ZM321.545 49.648C321.009 49.648 320.545 49.696 320.153 49.792C319.769 49.888 319.473 50.028 319.265 50.212C319.057 50.396 318.953 50.62 318.953 50.884C318.953 51.14 319.057 51.36 319.265 51.544C319.473 51.728 319.769 51.868 320.153 51.964C320.545 52.06 321.009 52.108 321.545 52.108C322.081 52.108 322.541 52.06 322.925 51.964C323.309 51.868 323.605 51.728 323.813 51.544C324.021 51.36 324.125 51.14 324.125 50.884C324.125 50.62 324.021 50.396 323.813 50.212C323.605 50.028 323.309 49.888 322.925 49.792C322.541 49.696 322.081 49.648 321.545 49.648ZM335.044 42.088H336.04V50.224H335.044V42.088ZM335.728 45.652H337.636V46.48H335.728V45.652ZM327.64 43.408H334.048V44.212H327.64V43.408ZM330.844 44.8C331.356 44.8 331.808 44.888 332.2 45.064C332.592 45.232 332.896 45.468 333.112 45.772C333.328 46.068 333.436 46.42 333.436 46.828C333.436 47.236 333.328 47.592 333.112 47.896C332.896 48.192 332.592 48.424 332.2 48.592C331.808 48.76 331.356 48.844 330.844 48.844C330.332 48.844 329.88 48.76 329.488 48.592C329.096 48.424 328.788 48.192 328.564 47.896C328.348 47.592 328.24 47.236 328.24 46.828C328.24 46.42 328.348 46.068 328.564 45.772C328.788 45.468 329.096 45.232 329.488 45.064C329.88 44.888 330.332 44.8 330.844 44.8ZM330.844 45.58C330.356 45.58 329.96 45.696 329.656 45.928C329.352 46.152 329.2 46.452 329.2 46.828C329.2 47.204 329.352 47.504 329.656 47.728C329.96 47.952 330.356 48.064 330.844 48.064C331.34 48.064 331.736 47.952 332.032 47.728C332.336 47.504 332.488 47.204 332.488 46.828C332.488 46.452 332.336 46.152 332.032 45.928C331.736 45.696 331.34 45.58 330.844 45.58ZM330.352 42.088H331.348V43.816H330.352V42.088ZM329.284 51.88H336.52V52.696H329.284V51.88ZM329.284 49.576H330.268V52.216H329.284V49.576ZM19.048 59.668H21.964V60.484H19.048V59.668ZM16.564 57.58C17.1 57.58 17.576 57.688 17.992 57.904C18.416 58.112 18.748 58.404 18.988 58.78C19.228 59.156 19.348 59.592 19.348 60.088C19.348 60.584 19.228 61.024 18.988 61.408C18.748 61.784 18.416 62.08 17.992 62.296C17.576 62.504 17.1 62.608 16.564 62.608C16.02 62.608 15.536 62.504 15.112 62.296C14.696 62.08 14.368 61.784 14.128 61.408C13.888 61.024 13.768 60.584 13.768 60.088C13.768 59.592 13.888 59.156 14.128 58.78C14.368 58.404 14.696 58.112 15.112 57.904C15.536 57.688 16.02 57.58 16.564 57.58ZM16.564 58.42C16.204 58.42 15.884 58.492 15.604 58.636C15.332 58.772 15.116 58.968 14.956 59.224C14.796 59.472 14.716 59.76 14.716 60.088C14.716 60.416 14.796 60.708 14.956 60.964C15.116 61.212 15.332 61.408 15.604 61.552C15.884 61.696 16.204 61.768 16.564 61.768C16.916 61.768 17.228 61.696 17.5 61.552C17.78 61.408 18 61.212 18.16 60.964C18.32 60.708 18.4 60.416 18.4 60.088C18.4 59.76 18.32 59.472 18.16 59.224C18 58.968 17.78 58.772 17.5 58.636C17.228 58.492 16.916 58.42 16.564 58.42ZM21.532 57.076H22.528V62.908H21.532V57.076ZM15.58 63.448H16.564V64.804H21.532V63.448H22.528V67.792H15.58V63.448ZM16.564 65.596V66.976H21.532V65.596H16.564ZM24.6271 63.376H34.4671V64.192H24.6271V63.376ZM29.0311 63.88H30.0151V67.924H29.0311V63.88ZM25.8871 57.676H33.2071V61.912H25.8871V57.676ZM32.2231 58.48H26.8591V61.12H32.2231V58.48ZM40.3371 60.484H47.7051V61.204H40.3371V60.484ZM40.3371 57.292H47.6451V58.012H41.3331V60.844H40.3371V57.292ZM41.0331 58.876H47.3571V59.572H41.0331V58.876ZM43.4451 62.332H44.4411V63.976H43.4451V62.332ZM39.0651 61.996H48.8451V62.752H39.0651V61.996ZM40.2411 63.688H47.5971V66.052H41.2371V67.396H40.2651V65.344H46.6251V64.42H40.2411V63.688ZM40.2651 67.072H47.9211V67.816H40.2651V67.072ZM54.9882 57.268C56.1882 57.268 57.1242 57.432 57.7962 57.76C58.4682 58.08 58.8042 58.54 58.8042 59.14C58.8042 59.748 58.4682 60.216 57.7962 60.544C57.1242 60.864 56.1882 61.024 54.9882 61.024C53.7962 61.024 52.8602 60.864 52.1802 60.544C51.5082 60.216 51.1722 59.748 51.1722 59.14C51.1722 58.54 51.5082 58.08 52.1802 57.76C52.8602 57.432 53.7962 57.268 54.9882 57.268ZM54.9882 58.012C54.4042 58.012 53.9042 58.056 53.4882 58.144C53.0722 58.232 52.7522 58.36 52.5282 58.528C52.3122 58.696 52.2042 58.9 52.2042 59.14C52.2042 59.38 52.3122 59.588 52.5282 59.764C52.7522 59.932 53.0722 60.06 53.4882 60.148C53.9042 60.228 54.4042 60.268 54.9882 60.268C55.5802 60.268 56.0842 60.228 56.5002 60.148C56.9162 60.06 57.2322 59.932 57.4482 59.764C57.6722 59.588 57.7842 59.38 57.7842 59.14C57.7842 58.9 57.6722 58.696 57.4482 58.528C57.2322 58.36 56.9162 58.232 56.5002 58.144C56.0842 58.056 55.5802 58.012 54.9882 58.012ZM50.0922 61.756H59.8962V62.56H50.0922V61.756ZM51.2802 63.484H58.6362V65.932H52.2762V67.24H51.3042V65.2H57.6642V64.252H51.2802V63.484ZM51.3042 67.036H58.9602V67.816H51.3042V67.036ZM67.1583 58.012H67.9743V59.956C67.9743 60.556 67.8983 61.144 67.7463 61.72C67.6023 62.296 67.3943 62.836 67.1223 63.34C66.8503 63.844 66.5303 64.292 66.1623 64.684C65.7943 65.076 65.3943 65.388 64.9623 65.62L64.3503 64.816C64.7503 64.616 65.1183 64.348 65.4543 64.012C65.7983 63.668 66.0983 63.276 66.3543 62.836C66.6103 62.396 66.8063 61.932 66.9423 61.444C67.0863 60.948 67.1583 60.452 67.1583 59.956V58.012ZM67.3383 58.012H68.1423V59.956C68.1423 60.436 68.2103 60.912 68.3463 61.384C68.4903 61.856 68.6903 62.3 68.9463 62.716C69.2023 63.132 69.4943 63.504 69.8223 63.832C70.1583 64.16 70.5183 64.42 70.9023 64.612L70.2903 65.404C69.8663 65.188 69.4743 64.892 69.1143 64.516C68.7623 64.14 68.4503 63.712 68.1783 63.232C67.9143 62.744 67.7063 62.224 67.5543 61.672C67.4103 61.112 67.3383 60.54 67.3383 59.956V58.012ZM71.8503 57.076H72.8463V67.936H71.8503V57.076ZM72.6183 61.468H74.6223V62.32H72.6183V61.468ZM77.9573 60.76H78.9533V62.8H77.9573V60.76ZM81.9413 60.76H82.9253V62.8H81.9413V60.76ZM75.5453 62.44H85.3493V63.244H75.5453V62.44ZM80.4413 64.072C81.6013 64.072 82.5093 64.236 83.1653 64.564C83.8213 64.892 84.1493 65.364 84.1493 65.98C84.1493 66.604 83.8213 67.08 83.1653 67.408C82.5093 67.744 81.6013 67.912 80.4413 67.912C79.2813 67.912 78.3693 67.744 77.7053 67.408C77.0493 67.08 76.7213 66.604 76.7213 65.98C76.7213 65.364 77.0493 64.892 77.7053 64.564C78.3693 64.236 79.2813 64.072 80.4413 64.072ZM80.4413 64.84C79.8733 64.84 79.3853 64.884 78.9773 64.972C78.5773 65.06 78.2693 65.192 78.0533 65.368C77.8373 65.536 77.7293 65.74 77.7293 65.98C77.7293 66.236 77.8373 66.452 78.0533 66.628C78.2693 66.796 78.5773 66.924 78.9773 67.012C79.3853 67.1 79.8733 67.144 80.4413 67.144C81.0093 67.144 81.4933 67.1 81.8933 67.012C82.3013 66.924 82.6133 66.796 82.8293 66.628C83.0453 66.452 83.1533 66.236 83.1533 65.98C83.1533 65.74 83.0453 65.536 82.8293 65.368C82.6133 65.192 82.3013 65.06 81.8933 64.972C81.4933 64.884 81.0093 64.84 80.4413 64.84ZM80.4413 57.28C81.2253 57.28 81.9013 57.36 82.4693 57.52C83.0453 57.68 83.4853 57.912 83.7893 58.216C84.1013 58.512 84.2573 58.872 84.2573 59.296C84.2573 59.712 84.1013 60.072 83.7893 60.376C83.4853 60.68 83.0453 60.912 82.4693 61.072C81.9013 61.224 81.2253 61.3 80.4413 61.3C79.6573 61.3 78.9773 61.224 78.4013 61.072C77.8333 60.912 77.3933 60.68 77.0813 60.376C76.7773 60.072 76.6253 59.712 76.6253 59.296C76.6253 58.872 76.7773 58.512 77.0813 58.216C77.3933 57.912 77.8333 57.68 78.4013 57.52C78.9773 57.36 79.6573 57.28 80.4413 57.28ZM80.4413 58.06C79.8733 58.06 79.3773 58.108 78.9533 58.204C78.5373 58.3 78.2133 58.44 77.9813 58.624C77.7573 58.808 77.6453 59.032 77.6453 59.296C77.6453 59.552 77.7573 59.776 77.9813 59.968C78.2133 60.152 78.5373 60.292 78.9533 60.388C79.3773 60.484 79.8733 60.532 80.4413 60.532C81.0253 60.532 81.5253 60.484 81.9413 60.388C82.3573 60.292 82.6773 60.152 82.9013 59.968C83.1253 59.776 83.2373 59.552 83.2373 59.296C83.2373 59.032 83.1253 58.808 82.9013 58.624C82.6773 58.44 82.3573 58.3 81.9413 58.204C81.5253 58.108 81.0253 58.06 80.4413 58.06ZM86.5604 58.936H91.9484V59.752H86.5604V58.936ZM89.2604 60.472C89.7164 60.472 90.1164 60.576 90.4604 60.784C90.8124 60.992 91.0884 61.284 91.2884 61.66C91.4884 62.028 91.5884 62.456 91.5884 62.944C91.5884 63.432 91.4884 63.864 91.2884 64.24C91.0884 64.608 90.8124 64.9 90.4604 65.116C90.1164 65.324 89.7164 65.428 89.2604 65.428C88.8124 65.428 88.4124 65.324 88.0604 65.116C87.7084 64.9 87.4324 64.608 87.2324 64.24C87.0324 63.864 86.9324 63.432 86.9324 62.944C86.9324 62.456 87.0324 62.028 87.2324 61.66C87.4324 61.292 87.7084 61.004 88.0604 60.796C88.4124 60.58 88.8124 60.472 89.2604 60.472ZM89.2604 61.312C88.9884 61.312 88.7404 61.384 88.5164 61.528C88.3004 61.664 88.1284 61.856 88.0004 62.104C87.8804 62.344 87.8204 62.624 87.8204 62.944C87.8204 63.264 87.8804 63.548 88.0004 63.796C88.1284 64.044 88.3004 64.236 88.5164 64.372C88.7404 64.508 88.9884 64.576 89.2604 64.576C89.5404 64.576 89.7884 64.508 90.0044 64.372C90.2204 64.236 90.3884 64.044 90.5084 63.796C90.6364 63.548 90.7004 63.264 90.7004 62.944C90.7004 62.624 90.6364 62.344 90.5084 62.104C90.3884 61.856 90.2204 61.664 90.0044 61.528C89.7884 61.384 89.5404 61.312 89.2604 61.312ZM94.8164 57.076H95.7644V67.936H94.8164V57.076ZM93.0764 61.648H95.1284V62.464H93.0764V61.648ZM92.4884 57.328H93.4244V67.408H92.4884V57.328ZM88.7684 57.4H89.7524V59.428H88.7684V57.4ZM104.07 62.548H105.066V64.96H104.07V62.548ZM108.882 57.088H109.878V65.332H108.882V57.088ZM102.474 66.88H110.142V67.696H102.474V66.88ZM102.474 64.528H103.47V67.096H102.474V64.528ZM101.07 62.92L100.938 62.092C101.61 62.092 102.338 62.088 103.122 62.08C103.914 62.064 104.722 62.036 105.546 61.996C106.37 61.948 107.166 61.876 107.934 61.78L108.006 62.5C107.23 62.628 106.43 62.724 105.606 62.788C104.79 62.844 103.994 62.88 103.218 62.896C102.442 62.912 101.726 62.92 101.07 62.92ZM106.674 63.496H109.146V64.216H106.674V63.496ZM104.466 57.52C105.002 57.52 105.47 57.6 105.87 57.76C106.27 57.912 106.578 58.132 106.794 58.42C107.018 58.7 107.13 59.032 107.13 59.416C107.13 59.792 107.018 60.124 106.794 60.412C106.578 60.7 106.27 60.92 105.87 61.072C105.47 61.224 105.002 61.3 104.466 61.3C103.938 61.3 103.47 61.224 103.062 61.072C102.662 60.92 102.35 60.7 102.126 60.412C101.91 60.124 101.802 59.792 101.802 59.416C101.802 59.032 101.91 58.7 102.126 58.42C102.35 58.132 102.662 57.912 103.062 57.76C103.47 57.6 103.938 57.52 104.466 57.52ZM104.466 58.264C103.954 58.264 103.538 58.368 103.218 58.576C102.898 58.784 102.738 59.064 102.738 59.416C102.738 59.76 102.898 60.036 103.218 60.244C103.538 60.452 103.954 60.556 104.466 60.556C104.97 60.556 105.382 60.452 105.702 60.244C106.022 60.036 106.182 59.76 106.182 59.416C106.182 59.176 106.11 58.972 105.966 58.804C105.822 58.636 105.622 58.504 105.366 58.408C105.11 58.312 104.81 58.264 104.466 58.264ZM119.454 57.076H120.45V63.484H119.454V57.076ZM120.03 59.848H122.034V60.688H120.03V59.848ZM113.418 63.976H120.45V66.172H114.426V67.312H113.442V65.512H119.466V64.672H113.418V63.976ZM113.442 67.108H120.858V67.816H113.442V67.108ZM114.882 61.528H115.866V62.908H114.882V61.528ZM112.098 63.232L111.978 62.5C112.618 62.5 113.326 62.496 114.102 62.488C114.878 62.472 115.67 62.444 116.478 62.404C117.286 62.356 118.062 62.28 118.806 62.176L118.878 62.824C118.11 62.952 117.322 63.048 116.514 63.112C115.714 63.168 114.934 63.204 114.174 63.22C113.422 63.228 112.73 63.232 112.098 63.232ZM112.254 57.904H118.482V58.612H112.254V57.904ZM115.362 58.96C116.13 58.96 116.742 59.084 117.198 59.332C117.662 59.58 117.894 59.928 117.894 60.376C117.894 60.832 117.662 61.188 117.198 61.444C116.742 61.692 116.13 61.816 115.362 61.816C114.594 61.816 113.978 61.692 113.514 61.444C113.058 61.188 112.83 60.832 112.83 60.376C112.83 59.928 113.058 59.58 113.514 59.332C113.978 59.084 114.594 58.96 115.362 58.96ZM115.362 59.62C114.874 59.62 114.486 59.688 114.198 59.824C113.918 59.96 113.778 60.144 113.778 60.376C113.778 60.616 113.918 60.808 114.198 60.952C114.486 61.088 114.874 61.156 115.362 61.156C115.85 61.156 116.234 61.088 116.514 60.952C116.802 60.808 116.946 60.616 116.946 60.376C116.946 60.144 116.802 59.96 116.514 59.824C116.234 59.688 115.85 59.62 115.362 59.62ZM114.882 56.98H115.866V58.276H114.882V56.98ZM130.505 57.088H131.501V65.224H130.505V57.088ZM131.189 60.652H133.097V61.48H131.189V60.652ZM123.101 58.408H129.509V59.212H123.101V58.408ZM126.305 59.8C126.817 59.8 127.269 59.888 127.661 60.064C128.053 60.232 128.357 60.468 128.573 60.772C128.789 61.068 128.897 61.42 128.897 61.828C128.897 62.236 128.789 62.592 128.573 62.896C128.357 63.192 128.053 63.424 127.661 63.592C127.269 63.76 126.817 63.844 126.305 63.844C125.793 63.844 125.341 63.76 124.949 63.592C124.557 63.424 124.249 63.192 124.025 62.896C123.809 62.592 123.701 62.236 123.701 61.828C123.701 61.42 123.809 61.068 124.025 60.772C124.249 60.468 124.557 60.232 124.949 60.064C125.341 59.888 125.793 59.8 126.305 59.8ZM126.305 60.58C125.817 60.58 125.421 60.696 125.117 60.928C124.813 61.152 124.661 61.452 124.661 61.828C124.661 62.204 124.813 62.504 125.117 62.728C125.421 62.952 125.817 63.064 126.305 63.064C126.801 63.064 127.197 62.952 127.493 62.728C127.797 62.504 127.949 62.204 127.949 61.828C127.949 61.452 127.797 61.152 127.493 60.928C127.197 60.696 126.801 60.58 126.305 60.58ZM125.813 57.088H126.809V58.816H125.813V57.088ZM124.745 66.88H131.981V67.696H124.745V66.88ZM124.745 64.576H125.729V67.216H124.745V64.576ZM142.003 58.204H142.963C142.963 58.988 142.883 59.752 142.723 60.496C142.571 61.24 142.307 61.952 141.931 62.632C141.563 63.312 141.063 63.948 140.431 64.54C139.807 65.132 139.015 65.668 138.055 66.148L137.503 65.38C138.335 64.956 139.039 64.488 139.615 63.976C140.191 63.464 140.655 62.912 141.007 62.32C141.359 61.728 141.611 61.1 141.763 60.436C141.923 59.764 142.003 59.056 142.003 58.312V58.204ZM138.079 58.204H142.603V59.02H138.079V58.204ZM141.943 60.892V61.66L137.707 62.056L137.527 61.192L141.943 60.892ZM145.423 57.076H146.407V67.936H145.423V57.076ZM142.927 61.432H145.903V62.26H142.927V61.432ZM151.026 63.628H152.022V68.008H151.026V63.628ZM154.878 63.628H155.874V68.008H154.878V63.628ZM148.518 63.352H158.358V64.168H148.518V63.352ZM149.778 57.664H157.098V61.9H149.778V57.664ZM156.114 58.468H150.75V61.096H156.114V58.468ZM167.465 57.076H168.449V67.936H167.465V57.076ZM160.253 58.144H161.237V64.864H160.253V58.144ZM160.253 64.276H161.141C161.973 64.276 162.817 64.24 163.673 64.168C164.537 64.088 165.425 63.956 166.337 63.772L166.469 64.612C165.525 64.812 164.617 64.952 163.745 65.032C162.873 65.104 162.005 65.14 161.141 65.14H160.253V64.276ZM174.4 58.36H175.348C175.348 59.064 175.284 59.756 175.156 60.436C175.036 61.116 174.824 61.772 174.52 62.404C174.216 63.028 173.796 63.616 173.26 64.168C172.724 64.72 172.048 65.224 171.232 65.68L170.668 64.972C171.396 64.572 172 64.132 172.48 63.652C172.96 63.172 173.34 62.66 173.62 62.116C173.908 61.564 174.108 60.988 174.22 60.388C174.34 59.78 174.4 59.156 174.4 58.516V58.36ZM171.184 58.36H174.772V59.176H171.184V58.36ZM174.28 60.868V61.624L170.8 61.972L170.656 61.108L174.28 60.868ZM174.496 61.36H176.992V62.176H174.496V61.36ZM178.876 57.076H179.836V67.936H178.876V57.076ZM176.62 57.364H177.556V67.384H176.62V57.364ZM189.531 57.076H190.527V67.948H189.531V57.076ZM184.803 57.916C185.339 57.916 185.811 58.072 186.219 58.384C186.635 58.688 186.959 59.124 187.191 59.692C187.431 60.26 187.551 60.928 187.551 61.696C187.551 62.464 187.431 63.132 187.191 63.7C186.959 64.268 186.635 64.708 186.219 65.02C185.811 65.332 185.339 65.488 184.803 65.488C184.267 65.488 183.791 65.332 183.375 65.02C182.959 64.708 182.631 64.268 182.391 63.7C182.159 63.132 182.043 62.464 182.043 61.696C182.043 60.928 182.159 60.26 182.391 59.692C182.631 59.124 182.959 58.688 183.375 58.384C183.791 58.072 184.267 57.916 184.803 57.916ZM184.803 58.804C184.443 58.804 184.127 58.924 183.855 59.164C183.591 59.396 183.383 59.732 183.231 60.172C183.079 60.604 183.003 61.112 183.003 61.696C183.003 62.28 183.079 62.792 183.231 63.232C183.383 63.664 183.591 64 183.855 64.24C184.127 64.48 184.443 64.6 184.803 64.6C185.155 64.6 185.463 64.48 185.727 64.24C185.999 64 186.211 63.664 186.363 63.232C186.515 62.792 186.591 62.28 186.591 61.696C186.591 61.112 186.515 60.604 186.363 60.172C186.211 59.732 185.999 59.396 185.727 59.164C185.463 58.924 185.155 58.804 184.803 58.804ZM198.434 58.684H200.87V59.5H198.434V58.684ZM198.434 60.904H200.87V61.72H198.434V60.904ZM195.41 57.688H196.214V59.068C196.214 59.78 196.09 60.448 195.842 61.072C195.594 61.688 195.246 62.228 194.798 62.692C194.358 63.148 193.838 63.5 193.238 63.748L192.71 62.956C193.118 62.796 193.486 62.588 193.814 62.332C194.142 62.068 194.422 61.764 194.654 61.42C194.894 61.076 195.078 60.708 195.206 60.316C195.342 59.916 195.41 59.5 195.41 59.068V57.688ZM195.59 57.688H196.394V59.068C196.394 59.468 196.454 59.856 196.574 60.232C196.702 60.608 196.882 60.96 197.114 61.288C197.346 61.616 197.622 61.908 197.942 62.164C198.27 62.42 198.626 62.624 199.01 62.776L198.458 63.556C197.89 63.324 197.39 62.984 196.958 62.536C196.526 62.08 196.19 61.556 195.95 60.964C195.71 60.372 195.59 59.74 195.59 59.068V57.688ZM200.618 57.088H201.614V65.188H200.618V57.088ZM194.642 66.88H201.866V67.696H194.642V66.88ZM194.642 64.36H195.638V67.312H194.642V64.36ZM211.609 57.076H212.605V67.948H211.609V57.076ZM206.881 57.916C207.417 57.916 207.889 58.072 208.297 58.384C208.713 58.688 209.037 59.124 209.269 59.692C209.509 60.26 209.629 60.928 209.629 61.696C209.629 62.464 209.509 63.132 209.269 63.7C209.037 64.268 208.713 64.708 208.297 65.02C207.889 65.332 207.417 65.488 206.881 65.488C206.345 65.488 205.869 65.332 205.453 65.02C205.037 64.708 204.709 64.268 204.469 63.7C204.237 63.132 204.121 62.464 204.121 61.696C204.121 60.928 204.237 60.26 204.469 59.692C204.709 59.124 205.037 58.688 205.453 58.384C205.869 58.072 206.345 57.916 206.881 57.916ZM206.881 58.804C206.521 58.804 206.205 58.924 205.933 59.164C205.669 59.396 205.461 59.732 205.309 60.172C205.157 60.604 205.081 61.112 205.081 61.696C205.081 62.28 205.157 62.792 205.309 63.232C205.461 63.664 205.669 64 205.933 64.24C206.205 64.48 206.521 64.6 206.881 64.6C207.233 64.6 207.541 64.48 207.805 64.24C208.077 64 208.289 63.664 208.441 63.232C208.593 62.792 208.669 62.28 208.669 61.696C208.669 61.112 208.593 60.604 208.441 60.172C208.289 59.732 208.077 59.396 207.805 59.164C207.541 58.924 207.233 58.804 206.881 58.804ZM225.483 57.076H226.479V67.924H225.483V57.076ZM226.215 61.48H228.207V62.308H226.215V61.48ZM222.711 58.24H223.683C223.683 59.272 223.515 60.26 223.179 61.204C222.843 62.14 222.315 63.008 221.595 63.808C220.875 64.6 219.927 65.288 218.751 65.872L218.199 65.104C219.207 64.6 220.043 64.012 220.707 63.34C221.379 62.66 221.879 61.908 222.207 61.084C222.543 60.252 222.711 59.356 222.711 58.396V58.24ZM218.703 58.24H223.215V59.068H218.703V58.24ZM230.51 60.088H237.866V60.904H230.51V60.088ZM230.51 57.292H231.494V60.448H230.51V57.292ZM229.178 62.164H238.994V62.98H229.178V62.164ZM234.074 63.94C235.234 63.94 236.142 64.112 236.798 64.456C237.454 64.8 237.782 65.288 237.782 65.92C237.782 66.544 237.454 67.028 236.798 67.372C236.142 67.716 235.234 67.888 234.074 67.888C232.914 67.888 232.002 67.716 231.338 67.372C230.682 67.028 230.354 66.544 230.354 65.92C230.354 65.288 230.682 64.8 231.338 64.456C232.002 64.112 232.914 63.94 234.074 63.94ZM234.062 64.732C233.502 64.732 233.018 64.78 232.61 64.876C232.21 64.964 231.902 65.096 231.686 65.272C231.47 65.448 231.362 65.664 231.362 65.92C231.362 66.168 231.47 66.384 231.686 66.568C231.902 66.744 232.21 66.88 232.61 66.976C233.018 67.064 233.502 67.108 234.062 67.108C234.638 67.108 235.126 67.064 235.526 66.976C235.934 66.88 236.246 66.744 236.462 66.568C236.678 66.384 236.786 66.168 236.786 65.92C236.786 65.664 236.678 65.448 236.462 65.272C236.246 65.096 235.934 64.964 235.526 64.876C235.126 64.78 234.638 64.732 234.062 64.732ZM248.413 57.088H249.361V63.808H248.413V57.088ZM246.637 60.064H248.689V60.88H246.637V60.064ZM246.109 57.256H247.045V63.64H246.109V57.256ZM240.157 58.312H245.653V59.116H240.157V58.312ZM242.917 59.656C243.373 59.656 243.773 59.736 244.117 59.896C244.469 60.048 244.741 60.264 244.933 60.544C245.133 60.816 245.233 61.14 245.233 61.516C245.233 61.884 245.133 62.208 244.933 62.488C244.741 62.768 244.469 62.988 244.117 63.148C243.773 63.3 243.373 63.376 242.917 63.376C242.469 63.376 242.069 63.3 241.717 63.148C241.365 62.988 241.093 62.768 240.901 62.488C240.709 62.208 240.613 61.884 240.613 61.516C240.613 61.14 240.709 60.816 240.901 60.544C241.093 60.264 241.365 60.048 241.717 59.896C242.069 59.736 242.469 59.656 242.917 59.656ZM242.917 60.4C242.501 60.4 242.161 60.5 241.897 60.7C241.633 60.9 241.501 61.172 241.501 61.516C241.501 61.852 241.633 62.124 241.897 62.332C242.161 62.532 242.501 62.632 242.917 62.632C243.341 62.632 243.681 62.532 243.937 62.332C244.201 62.124 244.333 61.852 244.333 61.516C244.333 61.172 244.201 60.9 243.937 60.7C243.681 60.5 243.341 60.4 242.917 60.4ZM242.425 57.124H243.409V58.792H242.425V57.124ZM243.073 64.132H243.853V64.492C243.853 64.948 243.753 65.396 243.553 65.836C243.361 66.268 243.081 66.656 242.713 67C242.345 67.344 241.897 67.612 241.369 67.804L240.901 67.048C241.357 66.896 241.745 66.684 242.065 66.412C242.393 66.132 242.641 65.824 242.809 65.488C242.985 65.152 243.073 64.82 243.073 64.492V64.132ZM243.301 64.132H244.045V64.492C244.045 64.836 244.113 65.184 244.249 65.536C244.393 65.88 244.609 66.192 244.897 66.472C245.185 66.752 245.541 66.976 245.965 67.144L245.557 67.9C245.037 67.7 244.609 67.42 244.273 67.06C243.945 66.708 243.701 66.308 243.541 65.86C243.381 65.412 243.301 64.956 243.301 64.492V64.132ZM247.057 64.132H247.801V64.492C247.801 64.9 247.721 65.328 247.561 65.776C247.401 66.224 247.153 66.636 246.817 67.012C246.489 67.396 246.069 67.692 245.557 67.9L245.137 67.144C245.561 66.952 245.913 66.708 246.193 66.412C246.481 66.116 246.697 65.796 246.841 65.452C246.985 65.108 247.057 64.788 247.057 64.492V64.132ZM247.273 64.132H248.041V64.492C248.041 64.844 248.125 65.192 248.293 65.536C248.469 65.872 248.721 66.172 249.049 66.436C249.377 66.7 249.765 66.904 250.213 67.048L249.745 67.804C249.217 67.62 248.769 67.36 248.401 67.024C248.033 66.696 247.753 66.312 247.561 65.872C247.369 65.432 247.273 64.972 247.273 64.492V64.132ZM252.3 58.168H259.284V58.984H252.3V58.168ZM251.256 65.584H261.06V66.412H251.256V65.584ZM255.072 61.708H256.056V66.004H255.072V61.708ZM258.9 58.168H259.896V59.236C259.896 59.684 259.888 60.156 259.872 60.652C259.864 61.148 259.832 61.692 259.776 62.284C259.728 62.876 259.636 63.536 259.5 64.264L258.492 64.144C258.7 63.104 258.82 62.192 258.852 61.408C258.884 60.616 258.9 59.892 258.9 59.236V58.168ZM264.116 65.8068L264.048 66.267C263.999 66.5909 263.925 66.9375 263.826 67.3068C263.729 67.6761 263.629 68.0241 263.523 68.3509C263.418 68.6776 263.332 68.9375 263.263 69.1307H262.496C262.533 68.9489 262.582 68.7088 262.641 68.4105C262.701 68.1122 262.761 67.7784 262.82 67.4091C262.883 67.0426 262.934 66.6676 262.974 66.2841L263.025 65.8068H264.116ZM276.942 57.076H277.938V67.936H276.942V57.076ZM273.762 58.252H274.746C274.746 59.036 274.65 59.792 274.458 60.52C274.274 61.248 273.982 61.94 273.582 62.596C273.182 63.244 272.662 63.848 272.022 64.408C271.382 64.968 270.606 65.468 269.694 65.908L269.166 65.104C270.214 64.6 271.078 64.012 271.758 63.34C272.438 62.668 272.942 61.92 273.27 61.096C273.598 60.264 273.762 59.368 273.762 58.408V58.252ZM269.67 58.252H274.182V59.056H269.67V58.252ZM280.481 58.06H286.829V58.816H280.481V58.06ZM283.649 59.224C284.177 59.224 284.633 59.292 285.017 59.428C285.401 59.556 285.701 59.74 285.917 59.98C286.133 60.22 286.241 60.508 286.241 60.844C286.241 61.172 286.133 61.46 285.917 61.708C285.701 61.948 285.401 62.132 285.017 62.26C284.633 62.388 284.177 62.452 283.649 62.452C283.137 62.452 282.689 62.388 282.305 62.26C281.921 62.132 281.621 61.948 281.405 61.708C281.189 61.46 281.081 61.172 281.081 60.844C281.081 60.508 281.189 60.22 281.405 59.98C281.621 59.74 281.921 59.556 282.305 59.428C282.689 59.292 283.137 59.224 283.649 59.224ZM283.661 59.92C283.165 59.92 282.769 60.004 282.473 60.172C282.177 60.332 282.029 60.556 282.029 60.844C282.029 61.116 282.177 61.336 282.473 61.504C282.777 61.672 283.173 61.756 283.661 61.756C284.157 61.756 284.553 61.672 284.849 61.504C285.145 61.336 285.293 61.116 285.293 60.844C285.293 60.556 285.145 60.332 284.849 60.172C284.553 60.004 284.157 59.92 283.661 59.92ZM283.157 57.004H284.153V58.468H283.157V57.004ZM283.157 62.068H284.153V63.532H283.157V62.068ZM287.957 57.1H288.953V64.348H287.957V57.1ZM281.681 64.864H288.953V67.936H287.957V65.656H281.681V64.864ZM280.265 64.012L280.121 63.22C280.793 63.22 281.521 63.216 282.305 63.208C283.097 63.192 283.901 63.16 284.717 63.112C285.541 63.064 286.329 62.988 287.081 62.884L287.153 63.58C286.369 63.716 285.569 63.816 284.753 63.88C283.945 63.936 283.157 63.972 282.389 63.988C281.621 64.004 280.913 64.012 280.265 64.012ZM291.1 63.508H300.94V64.312H291.1V63.508ZM295.504 63.88H296.488V67.936H295.504V63.88ZM292.348 57.52H293.332V59.008H298.696V57.52H299.692V62.212H292.348V57.52ZM293.332 59.812V61.396H298.696V59.812H293.332ZM310.095 57.076H311.079V67.948H310.095V57.076ZM307.851 61.168H310.251V61.984H307.851V61.168ZM302.655 64.516H303.471C304.159 64.516 304.771 64.508 305.307 64.492C305.843 64.476 306.351 64.444 306.831 64.396C307.319 64.348 307.815 64.28 308.319 64.192L308.427 65.008C307.907 65.096 307.399 65.164 306.903 65.212C306.407 65.26 305.883 65.296 305.331 65.32C304.787 65.336 304.167 65.344 303.471 65.344H302.655V64.516ZM302.655 58.072H307.671V58.888H303.639V64.792H302.655V58.072ZM303.387 61.12H307.191V61.924H303.387V61.12ZM316.565 65.704H326.405V66.544H316.565V65.704ZM317.429 58.168H325.481V58.984H317.429V58.168ZM317.453 62.74H325.457V63.556H317.453V62.74ZM319.109 58.912H320.105V62.836H319.109V58.912ZM322.805 58.912H323.789V62.836H322.805V58.912ZM327.604 65.764H337.444V66.592H327.604V65.764ZM332.008 63.448H332.992V66.112H332.008V63.448ZM328.804 57.88H336.22V61.168H329.812V63.34H328.828V60.376H335.236V58.696H328.804V57.88ZM328.828 62.92H336.472V63.736H328.828V62.92ZM14.86 77.716H22.312V78.52H14.86V77.716ZM13.6 80.764H23.44V81.58H13.6V80.764ZM18.004 78.124H19V81.136H18.004V78.124ZM14.86 72.964H22.204V73.78H15.868L15.868 78.016H14.86V72.964ZM15.556 75.292H21.964V76.096H15.556V75.292ZM25.1071 79.492H25.9591C26.6231 79.492 27.2311 79.484 27.7831 79.468C28.3351 79.452 28.8671 79.42 29.3791 79.372C29.8991 79.324 30.4311 79.252 30.9751 79.156L31.0711 79.972C30.5191 80.068 29.9791 80.144 29.4511 80.2C28.9231 80.248 28.3751 80.28 27.8071 80.296C27.2471 80.312 26.6311 80.32 25.9591 80.32H25.1071V79.492ZM25.1071 73.06H30.1591V73.888H26.1031V79.78H25.1071V73.06ZM25.8511 76.108H29.9191V76.912H25.8511V76.108ZM31.9831 72.076H32.9791V82.936H31.9831V72.076ZM32.7511 76.432H34.7551V77.272H32.7511V76.432ZM43.5741 72.076H44.5701V77.908H43.5741V72.076ZM37.5861 78.448H38.5581V79.756H43.5861V78.448H44.5701V82.792H37.5861V78.448ZM38.5581 80.548V81.976H43.5861V80.548H38.5581ZM38.7501 72.592C39.3021 72.592 39.7901 72.7 40.2141 72.916C40.6381 73.124 40.9701 73.416 41.2101 73.792C41.4581 74.168 41.5821 74.604 41.5821 75.1C41.5821 75.588 41.4581 76.024 41.2101 76.408C40.9701 76.784 40.6381 77.076 40.2141 77.284C39.7901 77.492 39.3021 77.596 38.7501 77.596C38.2061 77.596 37.7181 77.492 37.2861 77.284C36.8621 77.076 36.5261 76.784 36.2781 76.408C36.0381 76.024 35.9181 75.588 35.9181 75.1C35.9181 74.604 36.0381 74.168 36.2781 73.792C36.5261 73.416 36.8621 73.124 37.2861 72.916C37.7181 72.7 38.2061 72.592 38.7501 72.592ZM38.7501 73.432C38.3901 73.432 38.0701 73.504 37.7901 73.648C37.5101 73.784 37.2901 73.98 37.1301 74.236C36.9701 74.484 36.8901 74.772 36.8901 75.1C36.8901 75.42 36.9701 75.708 37.1301 75.964C37.2901 76.212 37.5101 76.408 37.7901 76.552C38.0701 76.696 38.3901 76.768 38.7501 76.768C39.1101 76.768 39.4301 76.696 39.7101 76.552C39.9901 76.408 40.2101 76.212 40.3701 75.964C40.5301 75.708 40.6101 75.42 40.6101 75.1C40.6101 74.772 40.5301 74.484 40.3701 74.236C40.2101 73.98 39.9901 73.784 39.7101 73.648C39.4301 73.504 39.1101 73.432 38.7501 73.432ZM48.5376 80.8068L48.4695 81.267C48.4212 81.5909 48.3473 81.9375 48.2479 82.3068C48.1513 82.6761 48.0504 83.0241 47.9453 83.3509C47.8402 83.6776 47.7536 83.9375 47.6854 84.1307H46.9183C46.9553 83.9489 47.0036 83.7088 47.0632 83.4105C47.1229 83.1122 47.1825 82.7784 47.2422 82.4091C47.3047 82.0426 47.3558 81.6676 47.3956 81.2841L47.4467 80.8068H48.5376ZM61.6875 72.076H62.6475V82.936H61.6875V72.076ZM59.9355 76.444H62.0235V77.26H59.9355V76.444ZM57.1395 73.48H58.0875C58.0875 74.176 58.0195 74.856 57.8835 75.52C57.7475 76.184 57.5235 76.824 57.2115 77.44C56.9075 78.048 56.4955 78.62 55.9755 79.156C55.4555 79.684 54.8075 80.168 54.0315 80.608L53.4555 79.9C54.3675 79.388 55.0915 78.808 55.6275 78.16C56.1635 77.512 56.5475 76.812 56.7795 76.06C57.0195 75.3 57.1395 74.5 57.1395 73.66V73.48ZM53.8755 73.48H57.4635V74.296H53.8755V73.48ZM59.2875 72.364H60.2235V82.396H59.2875V72.364ZM64.9385 72.532H65.9225V74.08H68.9825V72.532H69.9665V77.26H64.9385V72.532ZM65.9225 74.86V76.456H68.9825V74.86H65.9225ZM71.9225 72.076H72.9185V77.68H71.9225V72.076ZM72.4745 74.416H74.5145V75.232H72.4745V74.416ZM66.0185 78.196H72.9185V80.836H67.0265V82.456H66.0545V80.092H71.9345V78.988H66.0185V78.196ZM66.0545 82.012H73.3025V82.816H66.0545V82.012ZM85.0046 74.608H87.2246V75.424H85.0046V74.608ZM84.9926 76.72H87.2006V77.536H84.9926V76.72ZM78.9206 73.168H85.0046V73.972H78.9206V73.168ZM81.9926 74.5C82.4806 74.5 82.9086 74.584 83.2766 74.752C83.6446 74.912 83.9326 75.14 84.1406 75.436C84.3486 75.724 84.4526 76.064 84.4526 76.456C84.4526 76.848 84.3486 77.192 84.1406 77.488C83.9326 77.776 83.6446 78 83.2766 78.16C82.9086 78.32 82.4806 78.4 81.9926 78.4C81.5126 78.4 81.0886 78.32 80.7206 78.16C80.3526 78 80.0646 77.776 79.8566 77.488C79.6486 77.192 79.5446 76.848 79.5446 76.456C79.5446 76.064 79.6486 75.724 79.8566 75.436C80.0646 75.14 80.3526 74.912 80.7206 74.752C81.0886 74.584 81.5126 74.5 81.9926 74.5ZM81.9926 75.268C81.5366 75.268 81.1686 75.376 80.8886 75.592C80.6166 75.808 80.4806 76.096 80.4806 76.456C80.4806 76.816 80.6166 77.108 80.8886 77.332C81.1686 77.548 81.5366 77.656 81.9926 77.656C82.4486 77.656 82.8166 77.548 83.0966 77.332C83.3846 77.108 83.5286 76.816 83.5286 76.456C83.5286 76.096 83.3846 75.808 83.0966 75.592C82.8166 75.376 82.4486 75.268 81.9926 75.268ZM81.5126 71.98H82.4966V73.66H81.5126V71.98ZM86.8406 72.076H87.8366V78.496H86.8406V72.076ZM80.8166 78.964H81.8006V80.08H86.8526V78.964H87.8366V82.792H80.8166V78.964ZM81.8006 80.848V82H86.8526V80.848H81.8006ZM95.3957 74.668H98.3117V75.484H95.3957V74.668ZM92.9117 72.58C93.4477 72.58 93.9237 72.688 94.3397 72.904C94.7637 73.112 95.0957 73.404 95.3357 73.78C95.5757 74.156 95.6957 74.592 95.6957 75.088C95.6957 75.584 95.5757 76.024 95.3357 76.408C95.0957 76.784 94.7637 77.08 94.3397 77.296C93.9237 77.504 93.4477 77.608 92.9117 77.608C92.3677 77.608 91.8837 77.504 91.4597 77.296C91.0437 77.08 90.7157 76.784 90.4757 76.408C90.2357 76.024 90.1157 75.584 90.1157 75.088C90.1157 74.592 90.2357 74.156 90.4757 73.78C90.7157 73.404 91.0437 73.112 91.4597 72.904C91.8837 72.688 92.3677 72.58 92.9117 72.58ZM92.9117 73.42C92.5517 73.42 92.2317 73.492 91.9517 73.636C91.6797 73.772 91.4637 73.968 91.3037 74.224C91.1437 74.472 91.0637 74.76 91.0637 75.088C91.0637 75.416 91.1437 75.708 91.3037 75.964C91.4637 76.212 91.6797 76.408 91.9517 76.552C92.2317 76.696 92.5517 76.768 92.9117 76.768C93.2637 76.768 93.5757 76.696 93.8477 76.552C94.1277 76.408 94.3477 76.212 94.5077 75.964C94.6677 75.708 94.7477 75.416 94.7477 75.088C94.7477 74.76 94.6677 74.472 94.5077 74.224C94.3477 73.968 94.1277 73.772 93.8477 73.636C93.5757 73.492 93.2637 73.42 92.9117 73.42ZM97.8797 72.076H98.8757V77.908H97.8797V72.076ZM91.9277 78.448H92.9117V79.804H97.8797V78.448H98.8757V82.792H91.9277V78.448ZM92.9117 80.596V81.976H97.8797V80.596H92.9117ZM108.511 72.076H109.507V82.936H108.511V72.076ZM109.183 76.552H111.127V77.38H109.183V76.552ZM103.315 73.252H104.239C104.239 73.9 104.199 74.544 104.119 75.184C104.039 75.824 103.903 76.452 103.711 77.068C103.527 77.684 103.271 78.28 102.943 78.856C102.623 79.424 102.219 79.968 101.731 80.488L100.939 79.924C101.379 79.46 101.751 78.972 102.055 78.46C102.367 77.948 102.615 77.416 102.799 76.864C102.983 76.312 103.115 75.744 103.195 75.16C103.275 74.568 103.315 73.968 103.315 73.36V73.252ZM101.287 73.252H103.687V74.08H101.287V73.252ZM106.279 73.252H107.203C107.203 73.908 107.171 74.58 107.107 75.268C107.051 75.956 106.935 76.644 106.759 77.332C106.591 78.02 106.351 78.692 106.039 79.348C105.735 80.004 105.331 80.624 104.827 81.208L104.023 80.656C104.487 80.128 104.863 79.568 105.151 78.976C105.447 78.384 105.675 77.776 105.835 77.152C105.995 76.52 106.107 75.884 106.171 75.244C106.243 74.604 106.279 73.972 106.279 73.348V73.252ZM104.587 73.252H106.675V74.08H104.587V73.252ZM114.894 73.636H115.71V75.388C115.71 75.964 115.63 76.532 115.47 77.092C115.31 77.644 115.086 78.168 114.798 78.664C114.518 79.152 114.19 79.584 113.814 79.96C113.438 80.336 113.034 80.632 112.602 80.848L112.026 80.056C112.418 79.864 112.786 79.604 113.13 79.276C113.482 78.948 113.79 78.572 114.054 78.148C114.318 77.724 114.522 77.276 114.666 76.804C114.818 76.332 114.894 75.86 114.894 75.388V73.636ZM115.098 73.636H115.902V75.388C115.902 75.844 115.974 76.3 116.118 76.756C116.27 77.204 116.478 77.628 116.742 78.028C117.014 78.42 117.322 78.768 117.666 79.072C118.018 79.376 118.394 79.616 118.794 79.792L118.242 80.584C117.802 80.376 117.39 80.096 117.006 79.744C116.622 79.392 116.286 78.988 115.998 78.532C115.718 78.068 115.498 77.572 115.338 77.044C115.178 76.508 115.098 75.956 115.098 75.388V73.636ZM112.374 73.192H118.434V74.02H112.374V73.192ZM119.91 72.076H120.906V82.936H119.91V72.076ZM134.336 72.076H135.332V77.692H134.336V72.076ZM128.312 78.244H135.332V80.86H129.308V82.348H128.348V80.104H134.348V79.036H128.312V78.244ZM128.348 82.012H135.704V82.816H128.348V82.012ZM129.26 72.388H130.088V73.216C130.088 73.888 129.96 74.516 129.704 75.1C129.448 75.684 129.088 76.192 128.624 76.624C128.16 77.048 127.624 77.372 127.016 77.596L126.512 76.804C126.92 76.66 127.292 76.468 127.628 76.228C127.964 75.988 128.252 75.712 128.492 75.4C128.74 75.08 128.928 74.736 129.056 74.368C129.192 74 129.26 73.616 129.26 73.216V72.388ZM129.44 72.388H130.268V73.216C130.268 73.592 130.332 73.956 130.46 74.308C130.596 74.66 130.784 74.984 131.024 75.28C131.272 75.576 131.564 75.84 131.9 76.072C132.236 76.296 132.604 76.476 133.004 76.612L132.512 77.392C132.056 77.232 131.64 77.02 131.264 76.756C130.888 76.484 130.564 76.168 130.292 75.808C130.02 75.44 129.808 75.04 129.656 74.608C129.512 74.168 129.44 73.704 129.44 73.216V72.388ZM137.467 78.376H147.307V79.192H137.467V78.376ZM141.871 78.88H142.855V82.924H141.871V78.88ZM138.727 72.676H146.047V76.912H138.727V72.676ZM145.063 73.48H139.699V76.12H145.063V73.48ZM157.089 74.08H159.993V74.884H157.089V74.08ZM156.993 76.336H159.921V77.152H156.993V76.336ZM159.825 72.088H160.821V78.58H159.825V72.088ZM156.429 72.892H157.485C157.485 73.82 157.281 74.656 156.873 75.4C156.473 76.144 155.893 76.784 155.133 77.32C154.381 77.848 153.485 78.268 152.445 78.58L152.037 77.788C152.957 77.516 153.745 77.164 154.401 76.732C155.057 76.292 155.557 75.788 155.901 75.22C156.253 74.644 156.429 74.012 156.429 73.324V72.892ZM152.589 72.892H157.101V73.708H152.589V72.892ZM157.293 78.7C158.029 78.7 158.661 78.784 159.189 78.952C159.725 79.12 160.141 79.36 160.437 79.672C160.733 79.984 160.881 80.356 160.881 80.788C160.881 81.228 160.733 81.604 160.437 81.916C160.141 82.22 159.725 82.456 159.189 82.624C158.661 82.8 158.029 82.888 157.293 82.888C156.565 82.888 155.929 82.8 155.385 82.624C154.849 82.456 154.433 82.22 154.137 81.916C153.841 81.604 153.693 81.228 153.693 80.788C153.693 80.356 153.841 79.984 154.137 79.672C154.433 79.36 154.849 79.12 155.385 78.952C155.929 78.784 156.565 78.7 157.293 78.7ZM157.293 79.492C156.765 79.492 156.305 79.544 155.913 79.648C155.521 79.752 155.217 79.9 155.001 80.092C154.785 80.284 154.677 80.516 154.677 80.788C154.677 81.06 154.785 81.292 155.001 81.484C155.217 81.676 155.521 81.824 155.913 81.928C156.305 82.032 156.765 82.084 157.293 82.084C157.829 82.084 158.289 82.032 158.673 81.928C159.057 81.824 159.357 81.676 159.573 81.484C159.789 81.292 159.897 81.06 159.897 80.788C159.897 80.516 159.789 80.284 159.573 80.092C159.357 79.9 159.057 79.752 158.673 79.648C158.289 79.544 157.829 79.492 157.293 79.492ZM170.864 72.076H171.86V78.652H170.864V72.076ZM169.064 75.376H171.308V76.204H169.064V75.376ZM164.816 79.228H171.86V82.792H164.816V79.228ZM170.888 80.032H165.8V81.976H170.888V80.032ZM162.944 73.204H169.22V74.02H162.944V73.204ZM166.088 74.572C166.576 74.572 167.008 74.652 167.384 74.812C167.76 74.972 168.052 75.2 168.26 75.496C168.476 75.784 168.584 76.12 168.584 76.504C168.584 76.896 168.476 77.236 168.26 77.524C168.052 77.812 167.76 78.036 167.384 78.196C167.008 78.356 166.576 78.436 166.088 78.436C165.6 78.436 165.164 78.356 164.78 78.196C164.404 78.036 164.108 77.812 163.892 77.524C163.684 77.236 163.58 76.896 163.58 76.504C163.58 76.12 163.684 75.784 163.892 75.496C164.108 75.2 164.404 74.972 164.78 74.812C165.164 74.652 165.6 74.572 166.088 74.572ZM166.088 75.34C165.784 75.34 165.512 75.388 165.272 75.484C165.04 75.58 164.856 75.716 164.72 75.892C164.592 76.068 164.528 76.272 164.528 76.504C164.528 76.736 164.592 76.94 164.72 77.116C164.856 77.292 165.04 77.432 165.272 77.536C165.512 77.632 165.784 77.68 166.088 77.68C166.392 77.68 166.66 77.632 166.892 77.536C167.124 77.432 167.304 77.292 167.432 77.116C167.568 76.94 167.636 76.736 167.636 76.504C167.636 76.272 167.568 76.068 167.432 75.892C167.304 75.716 167.124 75.58 166.892 75.484C166.66 75.388 166.392 75.34 166.088 75.34ZM165.596 71.98H166.58V73.792H165.596V71.98ZM178.867 72.268C180.067 72.268 181.003 72.432 181.675 72.76C182.347 73.08 182.683 73.54 182.683 74.14C182.683 74.748 182.347 75.216 181.675 75.544C181.003 75.864 180.067 76.024 178.867 76.024C177.675 76.024 176.739 75.864 176.059 75.544C175.387 75.216 175.051 74.748 175.051 74.14C175.051 73.54 175.387 73.08 176.059 72.76C176.739 72.432 177.675 72.268 178.867 72.268ZM178.867 73.012C178.283 73.012 177.783 73.056 177.367 73.144C176.951 73.232 176.631 73.36 176.407 73.528C176.191 73.696 176.083 73.9 176.083 74.14C176.083 74.38 176.191 74.588 176.407 74.764C176.631 74.932 176.951 75.06 177.367 75.148C177.783 75.228 178.283 75.268 178.867 75.268C179.459 75.268 179.963 75.228 180.379 75.148C180.795 75.06 181.111 74.932 181.327 74.764C181.551 74.588 181.663 74.38 181.663 74.14C181.663 73.9 181.551 73.696 181.327 73.528C181.111 73.36 180.795 73.232 180.379 73.144C179.963 73.056 179.459 73.012 178.867 73.012ZM173.971 76.756H183.775V77.56H173.971V76.756ZM175.159 78.484H182.515V80.932H176.155V82.24H175.183V80.2H181.543V79.252H175.159V78.484ZM175.183 82.036H182.839V82.816H175.183V82.036ZM196.041 72.076H197.025V77.848H196.041V72.076ZM196.377 74.428H198.417V75.256H196.377V74.428ZM189.969 72.532H190.701V73.252C190.701 73.596 190.669 73.956 190.605 74.332C190.541 74.708 190.433 75.076 190.281 75.436C190.137 75.796 189.945 76.128 189.705 76.432C189.473 76.736 189.181 76.988 188.829 77.188L188.289 76.468C188.593 76.292 188.853 76.076 189.069 75.82C189.285 75.564 189.457 75.288 189.585 74.992C189.721 74.696 189.817 74.396 189.873 74.092C189.937 73.788 189.969 73.508 189.969 73.252V72.532ZM190.197 72.532H190.917V73.252C190.917 73.492 190.937 73.76 190.977 74.056C191.025 74.352 191.105 74.656 191.217 74.968C191.329 75.272 191.481 75.564 191.673 75.844C191.865 76.116 192.109 76.352 192.405 76.552L191.937 77.296C191.593 77.072 191.305 76.8 191.073 76.48C190.841 76.152 190.661 75.8 190.533 75.424C190.413 75.04 190.325 74.66 190.269 74.284C190.221 73.908 190.197 73.564 190.197 73.252V72.532ZM192.957 72.544H193.677V73.264C193.677 73.592 193.653 73.944 193.605 74.32C193.557 74.696 193.469 75.076 193.341 75.46C193.213 75.836 193.033 76.184 192.801 76.504C192.577 76.824 192.289 77.092 191.937 77.308L191.469 76.564C191.765 76.364 192.009 76.132 192.201 75.868C192.401 75.596 192.553 75.308 192.657 75.004C192.769 74.692 192.845 74.388 192.885 74.092C192.933 73.788 192.957 73.512 192.957 73.264V72.544ZM193.173 72.532H193.893V73.252C193.893 73.644 193.945 74.048 194.049 74.464C194.161 74.872 194.341 75.256 194.589 75.616C194.845 75.968 195.177 76.252 195.585 76.468L195.045 77.188C194.581 76.932 194.209 76.592 193.929 76.168C193.657 75.744 193.461 75.276 193.341 74.764C193.229 74.252 193.173 73.748 193.173 73.252V72.532ZM189.825 78.484H197.469V79.264H189.825V78.484ZM193.653 79.78C194.653 79.78 195.429 79.916 195.981 80.188C196.533 80.452 196.809 80.836 196.809 81.34C196.809 81.844 196.533 82.232 195.981 82.504C195.429 82.776 194.653 82.912 193.653 82.912C192.653 82.912 191.873 82.776 191.313 82.504C190.761 82.232 190.485 81.844 190.485 81.34C190.485 80.836 190.761 80.452 191.313 80.188C191.873 79.916 192.653 79.78 193.653 79.78ZM193.653 80.5C192.949 80.5 192.409 80.576 192.033 80.728C191.657 80.872 191.469 81.076 191.469 81.34C191.469 81.62 191.657 81.832 192.033 81.976C192.409 82.12 192.949 82.192 193.653 82.192C194.349 82.192 194.885 82.12 195.261 81.976C195.645 81.832 195.837 81.62 195.837 81.34C195.837 81.076 195.645 80.872 195.261 80.728C194.885 80.576 194.349 80.5 193.653 80.5ZM193.161 77.416H194.157V78.964H193.161V77.416ZM204.32 72.268C205.52 72.268 206.456 72.432 207.128 72.76C207.8 73.08 208.136 73.54 208.136 74.14C208.136 74.748 207.8 75.216 207.128 75.544C206.456 75.864 205.52 76.024 204.32 76.024C203.128 76.024 202.192 75.864 201.512 75.544C200.84 75.216 200.504 74.748 200.504 74.14C200.504 73.54 200.84 73.08 201.512 72.76C202.192 72.432 203.128 72.268 204.32 72.268ZM204.32 73.012C203.736 73.012 203.236 73.056 202.82 73.144C202.404 73.232 202.084 73.36 201.86 73.528C201.644 73.696 201.536 73.9 201.536 74.14C201.536 74.38 201.644 74.588 201.86 74.764C202.084 74.932 202.404 75.06 202.82 75.148C203.236 75.228 203.736 75.268 204.32 75.268C204.912 75.268 205.416 75.228 205.832 75.148C206.248 75.06 206.564 74.932 206.78 74.764C207.004 74.588 207.116 74.38 207.116 74.14C207.116 73.9 207.004 73.696 206.78 73.528C206.564 73.36 206.248 73.232 205.832 73.144C205.416 73.056 204.912 73.012 204.32 73.012ZM199.424 76.756H209.228V77.56H199.424V76.756ZM200.612 78.484H207.968V80.932H201.608V82.24H200.636V80.2H206.996V79.252H200.612V78.484ZM200.636 82.036H208.292V82.816H200.636V82.036ZM218.23 72.46H219.106V73.072C219.106 73.488 219.026 73.88 218.866 74.248C218.706 74.608 218.486 74.94 218.206 75.244C217.934 75.548 217.614 75.82 217.246 76.06C216.878 76.3 216.478 76.5 216.046 76.66C215.622 76.82 215.186 76.936 214.738 77.008L214.33 76.204C214.73 76.148 215.118 76.052 215.494 75.916C215.878 75.78 216.234 75.616 216.562 75.424C216.89 75.224 217.178 75 217.426 74.752C217.682 74.504 217.878 74.24 218.014 73.96C218.158 73.672 218.23 73.376 218.23 73.072V72.46ZM218.398 72.46H219.262V73.072C219.262 73.376 219.334 73.668 219.478 73.948C219.622 74.228 219.818 74.492 220.066 74.74C220.322 74.988 220.614 75.212 220.942 75.412C221.27 75.612 221.622 75.78 221.998 75.916C222.382 76.052 222.77 76.148 223.162 76.204L222.766 77.008C222.318 76.936 221.882 76.82 221.458 76.66C221.034 76.492 220.634 76.288 220.258 76.048C219.89 75.808 219.566 75.536 219.286 75.232C219.014 74.928 218.798 74.596 218.638 74.236C218.478 73.868 218.398 73.48 218.398 73.072V72.46ZM218.23 78.808H219.214V82.936H218.23V78.808ZM213.838 78.184H223.642V79.012H213.838V78.184ZM230.952 78.76H231.732V79.336C231.732 79.808 231.636 80.272 231.444 80.728C231.252 81.184 230.972 81.592 230.604 81.952C230.244 82.312 229.8 82.588 229.272 82.78L228.78 82.048C229.236 81.88 229.624 81.648 229.944 81.352C230.272 81.056 230.52 80.736 230.688 80.392C230.864 80.04 230.952 79.688 230.952 79.336V78.76ZM231.18 78.76H231.912V79.336C231.912 79.704 231.984 80.068 232.128 80.428C232.272 80.788 232.488 81.116 232.776 81.412C233.072 81.708 233.432 81.944 233.856 82.12L233.448 82.876C232.92 82.668 232.488 82.38 232.152 82.012C231.824 81.644 231.58 81.228 231.42 80.764C231.26 80.292 231.18 79.816 231.18 79.336V78.76ZM234.972 78.76H235.704V79.336C235.704 79.76 235.62 80.204 235.452 80.668C235.292 81.132 235.044 81.564 234.708 81.964C234.38 82.356 233.96 82.66 233.448 82.876L233.016 82.12C233.448 81.92 233.808 81.664 234.096 81.352C234.384 81.032 234.6 80.696 234.744 80.344C234.896 79.984 234.972 79.648 234.972 79.336V78.76ZM235.164 78.76H235.944V79.336C235.944 79.712 236.028 80.076 236.196 80.428C236.372 80.78 236.62 81.1 236.94 81.388C237.268 81.668 237.66 81.888 238.116 82.048L237.624 82.78C237.096 82.588 236.648 82.32 236.28 81.976C235.912 81.624 235.632 81.224 235.44 80.776C235.256 80.32 235.164 79.84 235.164 79.336V78.76ZM236.148 72.088H237.144V78.28H236.148V72.088ZM231.324 72.712C231.876 72.712 232.364 72.82 232.788 73.036C233.212 73.252 233.544 73.552 233.784 73.936C234.032 74.312 234.156 74.752 234.156 75.256C234.156 75.752 234.032 76.188 233.784 76.564C233.544 76.94 233.212 77.236 232.788 77.452C232.364 77.668 231.876 77.776 231.324 77.776C230.78 77.776 230.292 77.668 229.86 77.452C229.436 77.236 229.1 76.94 228.852 76.564C228.612 76.188 228.492 75.752 228.492 75.256C228.492 74.752 228.612 74.312 228.852 73.936C229.1 73.552 229.436 73.252 229.86 73.036C230.292 72.82 230.78 72.712 231.324 72.712ZM231.324 73.552C230.972 73.552 230.656 73.624 230.376 73.768C230.096 73.912 229.872 74.112 229.704 74.368C229.544 74.616 229.464 74.912 229.464 75.256C229.464 75.592 229.544 75.888 229.704 76.144C229.872 76.392 230.096 76.588 230.376 76.732C230.656 76.876 230.972 76.948 231.324 76.948C231.684 76.948 232.004 76.876 232.284 76.732C232.564 76.588 232.784 76.392 232.944 76.144C233.104 75.888 233.184 75.592 233.184 75.256C233.184 74.912 233.104 74.616 232.944 74.368C232.784 74.112 232.564 73.912 232.284 73.768C232.004 73.624 231.684 73.552 231.324 73.552ZM242.183 72.916C242.711 72.916 243.179 73.072 243.587 73.384C243.995 73.688 244.311 74.124 244.535 74.692C244.767 75.26 244.883 75.928 244.883 76.696C244.883 77.464 244.767 78.132 244.535 78.7C244.311 79.268 243.995 79.708 243.587 80.02C243.179 80.332 242.711 80.488 242.183 80.488C241.663 80.488 241.195 80.332 240.779 80.02C240.371 79.708 240.051 79.268 239.819 78.7C239.595 78.132 239.483 77.464 239.483 76.696C239.483 75.928 239.595 75.26 239.819 74.692C240.051 74.124 240.371 73.688 240.779 73.384C241.195 73.072 241.663 72.916 242.183 72.916ZM242.183 73.804C241.839 73.804 241.535 73.924 241.271 74.164C241.007 74.396 240.799 74.732 240.647 75.172C240.503 75.604 240.431 76.112 240.431 76.696C240.431 77.28 240.503 77.792 240.647 78.232C240.799 78.664 241.007 79 241.271 79.24C241.535 79.48 241.839 79.6 242.183 79.6C242.535 79.6 242.843 79.48 243.107 79.24C243.371 79 243.575 78.664 243.719 78.232C243.871 77.792 243.947 77.28 243.947 76.696C243.947 76.112 243.871 75.604 243.719 75.172C243.575 74.732 243.371 74.396 243.107 74.164C242.843 73.924 242.535 73.804 242.183 73.804ZM247.235 72.076H248.219V82.948H247.235V72.076ZM244.559 76.216H247.679V77.02H244.559V76.216ZM258.109 75.304H259.093V76.96H258.109V75.304ZM257.965 72.748H258.829V73.072C258.829 73.4 258.753 73.704 258.601 73.984C258.457 74.264 258.249 74.516 257.977 74.74C257.705 74.964 257.389 75.16 257.029 75.328C256.677 75.496 256.289 75.636 255.865 75.748C255.441 75.852 255.001 75.924 254.545 75.964L254.221 75.208C254.613 75.176 254.989 75.12 255.349 75.04C255.717 74.952 256.061 74.844 256.381 74.716C256.701 74.588 256.977 74.44 257.209 74.272C257.449 74.104 257.633 73.92 257.761 73.72C257.897 73.52 257.965 73.304 257.965 73.072V72.748ZM258.397 72.748H259.249V73.072C259.249 73.304 259.317 73.52 259.453 73.72C259.589 73.92 259.773 74.104 260.005 74.272C260.237 74.44 260.513 74.588 260.833 74.716C261.153 74.844 261.493 74.952 261.853 75.04C262.221 75.12 262.601 75.176 262.993 75.208L262.669 75.964C262.221 75.924 261.785 75.852 261.361 75.748C260.937 75.636 260.545 75.496 260.185 75.328C259.825 75.16 259.509 74.964 259.237 74.74C258.973 74.516 258.765 74.268 258.613 73.996C258.469 73.716 258.397 73.408 258.397 73.072V72.748ZM254.605 72.412H262.621V73.204H254.605V72.412ZM254.617 78.82H262.597V79.6H254.617V78.82ZM253.693 76.576H263.533V77.392H253.693V76.576ZM258.601 80.128C259.649 80.128 260.453 80.248 261.013 80.488C261.581 80.728 261.865 81.084 261.865 81.556C261.865 82.028 261.581 82.384 261.013 82.624C260.453 82.872 259.649 82.996 258.601 82.996C257.561 82.996 256.757 82.872 256.189 82.624C255.629 82.384 255.349 82.028 255.349 81.556C255.349 81.084 255.629 80.728 256.189 80.488C256.757 80.248 257.561 80.128 258.601 80.128ZM258.601 80.824C257.889 80.824 257.337 80.888 256.945 81.016C256.553 81.136 256.357 81.316 256.357 81.556C256.357 81.804 256.553 81.992 256.945 82.12C257.337 82.248 257.889 82.312 258.601 82.312C259.321 82.312 259.873 82.248 260.257 82.12C260.649 81.992 260.845 81.804 260.845 81.556C260.845 81.316 260.649 81.136 260.257 81.016C259.873 80.888 259.321 80.824 258.601 80.824ZM258.109 77.812H259.105V79.324H258.109V77.812ZM267.769 72.712C268.321 72.712 268.809 72.824 269.233 73.048C269.657 73.264 269.989 73.564 270.229 73.948C270.477 74.324 270.601 74.764 270.601 75.268C270.601 75.78 270.477 76.228 270.229 76.612C269.989 76.988 269.657 77.284 269.233 77.5C268.809 77.716 268.321 77.824 267.769 77.824C267.233 77.824 266.749 77.716 266.317 77.5C265.893 77.284 265.557 76.988 265.309 76.612C265.061 76.228 264.937 75.78 264.937 75.268C264.937 74.764 265.061 74.324 265.309 73.948C265.557 73.564 265.893 73.264 266.317 73.048C266.749 72.824 267.233 72.712 267.769 72.712ZM267.769 73.552C267.417 73.552 267.101 73.628 266.821 73.78C266.541 73.924 266.317 74.124 266.149 74.38C265.989 74.636 265.909 74.932 265.909 75.268C265.909 75.612 265.989 75.912 266.149 76.168C266.317 76.424 266.541 76.624 266.821 76.768C267.101 76.912 267.417 76.984 267.769 76.984C268.129 76.984 268.449 76.912 268.729 76.768C269.009 76.624 269.229 76.424 269.389 76.168C269.557 75.912 269.641 75.612 269.641 75.268C269.641 74.932 269.557 74.636 269.389 74.38C269.229 74.124 269.009 73.924 268.729 73.78C268.449 73.628 268.129 73.552 267.769 73.552ZM272.173 72.076H273.169V78.256H272.173V72.076ZM272.893 74.68H274.765V75.496H272.893V74.68ZM267.349 78.748H268.117V79.324C268.117 79.796 268.021 80.264 267.829 80.728C267.637 81.184 267.357 81.592 266.989 81.952C266.629 82.312 266.189 82.596 265.669 82.804L265.177 82.06C265.633 81.884 266.021 81.652 266.341 81.364C266.669 81.068 266.917 80.744 267.085 80.392C267.261 80.032 267.349 79.676 267.349 79.324V78.748ZM267.565 78.748H268.297V79.324C268.297 79.692 268.369 80.06 268.513 80.428C268.657 80.788 268.873 81.12 269.161 81.424C269.449 81.72 269.813 81.96 270.253 82.144L269.821 82.9C269.301 82.692 268.873 82.4 268.537 82.024C268.209 81.648 267.965 81.228 267.805 80.764C267.645 80.292 267.565 79.812 267.565 79.324V78.748ZM271.345 78.748H272.089V79.324C272.089 79.748 272.009 80.196 271.849 80.668C271.689 81.14 271.441 81.576 271.105 81.976C270.769 82.368 270.341 82.676 269.821 82.9L269.401 82.144C269.833 81.944 270.193 81.684 270.481 81.364C270.769 81.044 270.985 80.704 271.129 80.344C271.273 79.976 271.345 79.636 271.345 79.324V78.748ZM271.549 78.748H272.317V79.324C272.317 79.7 272.401 80.068 272.569 80.428C272.745 80.788 272.993 81.112 273.313 81.4C273.641 81.68 274.033 81.9 274.489 82.06L273.997 82.804C273.469 82.604 273.021 82.332 272.653 81.988C272.285 81.636 272.009 81.232 271.825 80.776C271.641 80.312 271.549 79.828 271.549 79.324V78.748ZM277.02 78.592H278.004V79.84H283.32V78.592H284.304V82.792H277.02V78.592ZM278.004 80.62V81.988H283.32V80.62H278.004ZM275.784 77.02H285.588V77.836H275.784V77.02ZM280.176 72.196H281.04V72.688C281.04 73.064 280.96 73.42 280.8 73.756C280.64 74.084 280.42 74.388 280.14 74.668C279.868 74.94 279.548 75.184 279.18 75.4C278.82 75.616 278.428 75.796 278.004 75.94C277.588 76.084 277.156 76.192 276.708 76.264L276.336 75.472C276.728 75.416 277.108 75.328 277.476 75.208C277.852 75.088 278.204 74.944 278.532 74.776C278.86 74.6 279.148 74.404 279.396 74.188C279.644 73.964 279.836 73.728 279.972 73.48C280.108 73.224 280.176 72.96 280.176 72.688V72.196ZM280.344 72.196H281.196V72.688C281.196 72.952 281.264 73.212 281.4 73.468C281.544 73.716 281.74 73.952 281.988 74.176C282.236 74.392 282.52 74.588 282.84 74.764C283.168 74.94 283.516 75.092 283.884 75.22C284.26 75.34 284.64 75.424 285.024 75.472L284.664 76.264C284.216 76.192 283.78 76.084 283.356 75.94C282.94 75.796 282.548 75.616 282.18 75.4C281.82 75.176 281.5 74.924 281.22 74.644C280.948 74.364 280.732 74.06 280.572 73.732C280.42 73.404 280.344 73.056 280.344 72.688V72.196ZM294.719 72.076H295.703V82.936H294.719V72.076ZM287.507 73.144H288.491V79.864H287.507V73.144ZM287.507 79.276H288.395C289.227 79.276 290.071 79.24 290.927 79.168C291.791 79.088 292.679 78.956 293.591 78.772L293.723 79.612C292.779 79.812 291.871 79.952 290.999 80.032C290.127 80.104 289.259 80.14 288.395 80.14H287.507V79.276ZM305.206 72.076H306.202V82.948H305.206V72.076ZM305.974 76.36H307.978V77.188H305.974V76.36ZM298.33 79.396H299.182C299.846 79.396 300.454 79.388 301.006 79.372C301.566 79.348 302.102 79.308 302.614 79.252C303.134 79.196 303.662 79.12 304.198 79.024L304.318 79.876C303.758 79.972 303.214 80.048 302.686 80.104C302.166 80.16 301.622 80.196 301.054 80.212C300.486 80.228 299.862 80.236 299.182 80.236H298.33V79.396ZM298.33 73.132H303.358V73.948H299.314V79.78H298.33V73.132ZM309.954 82.0682C309.744 82.0682 309.564 81.9929 309.413 81.8423C309.262 81.6918 309.187 81.5114 309.187 81.3011C309.187 81.0909 309.262 80.9105 309.413 80.7599C309.564 80.6094 309.744 80.5341 309.954 80.5341C310.164 80.5341 310.345 80.6094 310.495 80.7599C310.646 80.9105 310.721 81.0909 310.721 81.3011C310.721 81.4403 310.686 81.5682 310.615 81.6847C310.547 81.8011 310.454 81.8949 310.338 81.9659C310.224 82.0341 310.096 82.0682 309.954 82.0682Z" fill="white"/>
</g>
<defs>
<filter id="filter0_d_512_3423" x="0" y="0" width="362" height="102" filterUnits="userSpaceOnUse" color-interpolation-filters="sRGB">
<feFlood flood-opacity="0" result="BackgroundImageFix"/>
<feColorMatrix in="SourceAlpha" type="matrix" values="0 0 0 0 0 0 0 0 0 0 0 0 0 0 0 0 0 0 127 0" result="hardAlpha"/>
<feOffset dy="4"/>
<feGaussianBlur stdDeviation="2"/>
<feComposite in2="hardAlpha" operator="out"/>
<feColorMatrix type="matrix" values="0 0 0 0 0 0 0 0 0 0 0 0 0 0 0 0 0 0 0.25 0"/>
<feBlend mode="normal" in2="BackgroundImageFix" result="effect1_dropShadow_512_3423"/>
<feBlend mode="normal" in="SourceGraphic" in2="effect1_dropShadow_512_3423" result="shape"/>
</filter>
</defs>
</svg>
