<svg width="362" height="102" viewBox="0 0 362 102" fill="none" xmlns="http://www.w3.org/2000/svg">
<g filter="url(#filter0_d_512_3464)">
<rect x="5" y="1" width="352" height="92" rx="8" fill="#222127" shape-rendering="crispEdges"/>
<rect x="5" y="1" width="352" height="92" rx="8" stroke="#49494C" stroke-width="2" shape-rendering="crispEdges"/>
<path d="M21.112 16.932H22.708V28.08H21.112V16.932ZM16.72 17.712C17.288 17.712 17.792 17.876 18.232 18.204C18.672 18.524 19.016 18.984 19.264 19.584C19.52 20.176 19.648 20.876 19.648 21.684C19.648 22.5 19.52 23.208 19.264 23.808C19.016 24.4 18.672 24.86 18.232 25.188C17.792 25.508 17.288 25.668 16.72 25.668C16.16 25.668 15.66 25.508 15.22 25.188C14.78 24.86 14.432 24.4 14.176 23.808C13.928 23.208 13.804 22.5 13.804 21.684C13.804 20.876 13.928 20.176 14.176 19.584C14.432 18.984 14.78 18.524 15.22 18.204C15.66 17.876 16.16 17.712 16.72 17.712ZM16.72 19.164C16.448 19.164 16.208 19.26 16 19.452C15.792 19.644 15.628 19.928 15.508 20.304C15.396 20.672 15.34 21.132 15.34 21.684C15.34 22.228 15.396 22.692 15.508 23.076C15.628 23.452 15.792 23.736 16 23.928C16.208 24.12 16.448 24.216 16.72 24.216C17 24.216 17.244 24.12 17.452 23.928C17.66 23.736 17.82 23.452 17.932 23.076C18.052 22.692 18.112 22.228 18.112 21.684C18.112 21.132 18.052 20.672 17.932 20.304C17.82 19.928 17.66 19.644 17.452 19.452C17.244 19.26 17 19.164 16.72 19.164ZM28.9351 19.392H30.7951V20.688H28.9351V19.392ZM28.9351 22.836H30.7951V24.12H28.9351V22.836ZM32.5471 16.944H34.0711V28.056H32.5471V16.944ZM30.3391 17.124H31.8271V27.564H30.3391V17.124ZM27.0271 17.724C27.5151 17.724 27.9391 17.888 28.2991 18.216C28.6671 18.536 28.9471 19 29.1391 19.608C29.3391 20.208 29.4391 20.928 29.4391 21.768C29.4391 22.6 29.3391 23.32 29.1391 23.928C28.9471 24.536 28.6671 25.004 28.2991 25.332C27.9391 25.652 27.5111 25.812 27.0151 25.812C26.5351 25.812 26.1111 25.652 25.7431 25.332C25.3831 25.004 25.1031 24.536 24.9031 23.928C24.7111 23.32 24.6151 22.6 24.6151 21.768C24.6151 20.928 24.7111 20.208 24.9031 19.608C25.1031 19 25.3831 18.536 25.7431 18.216C26.1111 17.888 26.5391 17.724 27.0271 17.724ZM27.0271 19.236C26.8191 19.236 26.6431 19.328 26.4991 19.512C26.3551 19.696 26.2431 19.976 26.1631 20.352C26.0911 20.72 26.0551 21.192 26.0551 21.768C26.0551 22.328 26.0911 22.796 26.1631 23.172C26.2431 23.548 26.3551 23.832 26.4991 24.024C26.6431 24.208 26.8191 24.3 27.0271 24.3C27.2351 24.3 27.4111 24.208 27.5551 24.024C27.6991 23.832 27.8111 23.548 27.8911 23.172C27.9711 22.796 28.0111 22.328 28.0111 21.768C28.0111 21.192 27.9711 20.72 27.8911 20.352C27.8111 19.976 27.6991 19.696 27.5551 19.512C27.4111 19.328 27.2351 19.236 27.0271 19.236ZM35.5581 22.62H45.6141V23.88H35.5581V22.62ZM36.7821 26.592H44.4861V27.876H36.7821V26.592ZM36.7821 24.624H38.3781V27H36.7821V24.624ZM40.5861 17.28C41.3941 17.28 42.0981 17.372 42.6981 17.556C43.3061 17.74 43.7781 18.004 44.1141 18.348C44.4501 18.692 44.6181 19.096 44.6181 19.56C44.6181 20.032 44.4501 20.44 44.1141 20.784C43.7781 21.128 43.3061 21.392 42.6981 21.576C42.0981 21.76 41.3941 21.852 40.5861 21.852C39.7861 21.852 39.0821 21.76 38.4741 21.576C37.8741 21.392 37.4061 21.128 37.0701 20.784C36.7341 20.44 36.5661 20.032 36.5661 19.56C36.5661 19.096 36.7341 18.692 37.0701 18.348C37.4061 18.004 37.8741 17.74 38.4741 17.556C39.0821 17.372 39.7861 17.28 40.5861 17.28ZM40.5861 18.54C40.0981 18.54 39.6741 18.58 39.3141 18.66C38.9541 18.74 38.6821 18.856 38.4981 19.008C38.3141 19.152 38.2221 19.336 38.2221 19.56C38.2221 19.784 38.3141 19.972 38.4981 20.124C38.6821 20.276 38.9541 20.392 39.3141 20.472C39.6741 20.552 40.0981 20.592 40.5861 20.592C41.0901 20.592 41.5181 20.552 41.8701 20.472C42.2221 20.392 42.4901 20.276 42.6741 20.124C42.8661 19.972 42.9621 19.784 42.9621 19.56C42.9621 19.336 42.8661 19.152 42.6741 19.008C42.4901 18.856 42.2221 18.74 41.8701 18.66C41.5181 18.58 41.0901 18.54 40.5861 18.54Z" fill="#F7F8F8"/>
<path d="M52.6 25.716H62.44V26.544H52.6V25.716ZM57.004 22.908H57.988V25.944H57.004V22.908ZM53.752 17.976H61.24V23.088H53.752V17.976ZM60.268 18.78H54.724V22.296H60.268V18.78ZM64.3231 24.492H65.1871C65.8671 24.492 66.4871 24.484 67.0471 24.468C67.6151 24.452 68.1591 24.42 68.6791 24.372C69.2071 24.324 69.7471 24.252 70.2991 24.156L70.4071 24.972C69.8391 25.068 69.2871 25.144 68.7511 25.2C68.2151 25.248 67.6591 25.28 67.0831 25.296C66.5151 25.312 65.8831 25.32 65.1871 25.32H64.3231V24.492ZM64.3231 18.06H69.5791V18.888H65.3071V24.78H64.3231V18.06ZM65.0671 21.108H69.1831V21.912H65.0671V21.108ZM71.5471 17.076H72.5431V27.936H71.5471V17.076ZM75.0621 18.336H79.2021V25.02H75.0621V18.336ZM78.2661 19.128H75.9981V24.228H78.2661V19.128ZM82.9461 17.076H83.9061V27.936H82.9461V17.076ZM78.7101 21.168H81.2061V21.984H78.7101V21.168ZM80.7861 17.304H81.7341V27.384H80.7861V17.304ZM93.6012 17.076H94.5972V27.948H93.6012V17.076ZM88.8732 17.916C89.4092 17.916 89.8812 18.072 90.2892 18.384C90.7052 18.688 91.0292 19.124 91.2612 19.692C91.5012 20.26 91.6212 20.928 91.6212 21.696C91.6212 22.464 91.5012 23.132 91.2612 23.7C91.0292 24.268 90.7052 24.708 90.2892 25.02C89.8812 25.332 89.4092 25.488 88.8732 25.488C88.3372 25.488 87.8612 25.332 87.4452 25.02C87.0292 24.708 86.7012 24.268 86.4612 23.7C86.2292 23.132 86.1132 22.464 86.1132 21.696C86.1132 20.928 86.2292 20.26 86.4612 19.692C86.7012 19.124 87.0292 18.688 87.4452 18.384C87.8612 18.072 88.3372 17.916 88.8732 17.916ZM88.8732 18.804C88.5132 18.804 88.1972 18.924 87.9252 19.164C87.6612 19.396 87.4532 19.732 87.3012 20.172C87.1492 20.604 87.0732 21.112 87.0732 21.696C87.0732 22.28 87.1492 22.792 87.3012 23.232C87.4532 23.664 87.6612 24 87.9252 24.24C88.1972 24.48 88.5132 24.6 88.8732 24.6C89.2252 24.6 89.5332 24.48 89.7972 24.24C90.0692 24 90.2812 23.664 90.4332 23.232C90.5852 22.792 90.6612 22.28 90.6612 21.696C90.6612 21.112 90.5852 20.604 90.4332 20.172C90.2812 19.732 90.0692 19.396 89.7972 19.164C89.5332 18.924 89.2252 18.804 88.8732 18.804ZM98.0163 22.932H105.468V23.736H98.0163V22.932ZM96.7563 25.704H106.596V26.532H96.7563V25.704ZM98.0163 18.012H105.36V18.828H99.0243V23.172H98.0163V18.012ZM98.7123 20.424H105.12V21.228H98.7123V20.424ZM109.71 25.8068L109.646 26.2713C109.603 26.6122 109.531 26.9673 109.428 27.3366C109.329 27.7088 109.225 28.054 109.117 28.3722C109.012 28.6903 108.925 28.9432 108.857 29.1307H107.954C107.991 28.9545 108.042 28.7159 108.107 28.4148C108.173 28.1165 108.237 27.7827 108.299 27.4134C108.362 27.044 108.408 26.6676 108.44 26.2841L108.482 25.8068H109.71ZM114.288 25.704H124.128V26.544H114.288V25.704ZM115.152 18.168H123.204V18.984H115.152V18.168ZM115.176 22.74H123.18V23.556H115.176V22.74ZM116.832 18.912H117.828V22.836H116.832V18.912ZM120.528 18.912H121.512V22.836H120.528V18.912ZM125.315 23.268H135.155V24.084H125.315V23.268ZM126.611 27.012H134.135V27.828H126.611V27.012ZM126.611 24.816H127.607V27.252H126.611V24.816ZM129.743 21.708H130.727V23.628H129.743V21.708ZM126.563 17.424H133.895V20.124H127.571V21.576H126.587V19.38H132.911V18.216H126.563V17.424ZM126.587 21.312H134.123V22.092H126.587V21.312ZM137.626 22.932H145.078V23.736H137.626V22.932ZM136.366 25.704H146.206V26.532H136.366V25.704ZM137.626 18.012H144.97V18.828H138.634V23.172H137.626V18.012ZM138.322 20.424H144.73V21.228H138.322V20.424ZM152.013 20.172H153.861V21H152.013V20.172ZM149.973 17.928C150.453 17.928 150.877 18.04 151.245 18.264C151.613 18.488 151.905 18.8 152.121 19.2C152.337 19.592 152.445 20.048 152.445 20.568C152.445 21.08 152.337 21.536 152.121 21.936C151.905 22.328 151.613 22.636 151.245 22.86C150.877 23.084 150.453 23.196 149.973 23.196C149.493 23.196 149.069 23.084 148.701 22.86C148.333 22.636 148.041 22.328 147.825 21.936C147.617 21.536 147.513 21.08 147.513 20.568C147.513 20.048 147.617 19.592 147.825 19.2C148.041 18.8 148.333 18.488 148.701 18.264C149.069 18.04 149.493 17.928 149.973 17.928ZM149.973 18.78C149.677 18.78 149.409 18.856 149.169 19.008C148.937 19.16 148.753 19.372 148.617 19.644C148.481 19.908 148.413 20.216 148.413 20.568C148.413 20.912 148.481 21.22 148.617 21.492C148.753 21.756 148.937 21.964 149.169 22.116C149.409 22.268 149.677 22.344 149.973 22.344C150.269 22.344 150.537 22.268 150.777 22.116C151.017 21.964 151.205 21.756 151.341 21.492C151.477 21.22 151.545 20.912 151.545 20.568C151.545 20.216 151.477 19.908 151.341 19.644C151.205 19.372 151.017 19.16 150.777 19.008C150.537 18.856 150.269 18.78 149.973 18.78ZM155.601 17.076H156.549V25.2H155.601V17.076ZM153.549 17.292H154.485V24.888H153.549V17.292ZM149.469 26.88H156.873V27.696H149.469V26.88ZM149.469 24.156H150.465V27.252H149.469V24.156ZM159.692 22.284H167.144V23.1H159.692V22.284ZM158.444 25.632H168.284V26.46H158.444V25.632ZM159.692 18.084H167.036V18.9H160.676V22.644H159.692V18.084Z" fill="#8A8F98"/>
<path d="M21.028 42.076H22.024V49.936H21.028V42.076ZM21.712 45.292H23.632V46.12H21.712V45.292ZM14.104 47.188H14.944C15.688 47.188 16.34 47.18 16.9 47.164C17.46 47.148 17.976 47.112 18.448 47.056C18.92 47 19.396 46.924 19.876 46.828L19.996 47.644C19.492 47.74 18.996 47.816 18.508 47.872C18.028 47.928 17.504 47.968 16.936 47.992C16.368 48.008 15.704 48.016 14.944 48.016H14.104V47.188ZM14.104 43.012H18.892V43.828H15.088V47.632H14.104V43.012ZM15.268 51.88H22.504V52.696H15.268V51.88ZM15.268 49.144H16.252V52.252H15.268V49.144ZM29.0311 42.352H29.8951V42.88C29.8951 43.272 29.8151 43.644 29.6551 43.996C29.5031 44.348 29.2911 44.672 29.0191 44.968C28.7471 45.264 28.4311 45.528 28.0711 45.76C27.7111 45.984 27.3191 46.176 26.8951 46.336C26.4791 46.496 26.0511 46.612 25.6111 46.684L25.2271 45.904C25.6111 45.84 25.9871 45.744 26.3551 45.616C26.7311 45.48 27.0791 45.32 27.3991 45.136C27.7191 44.944 27.9991 44.732 28.2391 44.5C28.4871 44.26 28.6791 44.004 28.8151 43.732C28.9591 43.452 29.0311 43.168 29.0311 42.88V42.352ZM29.1991 42.352H30.0511V42.88C30.0511 43.168 30.1191 43.448 30.2551 43.72C30.3991 43.984 30.5951 44.236 30.8431 44.476C31.0911 44.708 31.3751 44.92 31.6951 45.112C32.0151 45.296 32.3591 45.456 32.7271 45.592C33.1031 45.728 33.4791 45.824 33.8551 45.88L33.4711 46.672C33.0311 46.592 32.6031 46.476 32.1871 46.324C31.7711 46.164 31.3831 45.968 31.0231 45.736C30.6631 45.504 30.3431 45.24 30.0631 44.944C29.7911 44.648 29.5791 44.328 29.4271 43.984C29.2751 43.64 29.1991 43.272 29.1991 42.88V42.352ZM24.6271 47.596H34.4671V48.412H24.6271V47.596ZM29.1151 48.112H30.1111V50.608H29.1151V48.112ZM25.8751 51.88H33.3751V52.696H25.8751V51.88ZM25.8751 49.564H26.8711V52.132H25.8751V49.564ZM43.5621 42.076H44.5581V52.936H43.5621V42.076ZM35.9181 43.828H42.4221V44.644H35.9181V43.828ZM39.1941 45.52C39.7061 45.52 40.1621 45.628 40.5621 45.844C40.9701 46.06 41.2901 46.356 41.5221 46.732C41.7541 47.1 41.8701 47.528 41.8701 48.016C41.8701 48.504 41.7541 48.936 41.5221 49.312C41.2901 49.688 40.9701 49.984 40.5621 50.2C40.1621 50.408 39.7061 50.512 39.1941 50.512C38.6741 50.512 38.2101 50.408 37.8021 50.2C37.4021 49.984 37.0861 49.688 36.8541 49.312C36.6221 48.936 36.5061 48.504 36.5061 48.016C36.5061 47.528 36.6221 47.1 36.8541 46.732C37.0861 46.356 37.4021 46.06 37.8021 45.844C38.2101 45.628 38.6741 45.52 39.1941 45.52ZM39.1941 46.348C38.8661 46.348 38.5701 46.42 38.3061 46.564C38.0421 46.708 37.8341 46.904 37.6821 47.152C37.5301 47.4 37.4541 47.688 37.4541 48.016C37.4541 48.344 37.5301 48.636 37.6821 48.892C37.8341 49.14 38.0421 49.336 38.3061 49.48C38.5701 49.616 38.8661 49.684 39.1941 49.684C39.5301 49.684 39.8261 49.616 40.0821 49.48C40.3461 49.336 40.5501 49.14 40.6941 48.892C40.8461 48.636 40.9221 48.344 40.9221 48.016C40.9221 47.688 40.8461 47.4 40.6941 47.152C40.5501 46.904 40.3461 46.708 40.0821 46.564C39.8261 46.42 39.5301 46.348 39.1941 46.348ZM38.6661 42.184H39.6741V44.332H38.6661V42.184ZM51.2682 43.132H58.1442V43.948H51.2682V43.132ZM50.0922 50.632H59.8962V51.46H50.0922V50.632ZM57.7362 43.132H58.7082V44.164C58.7082 44.604 58.7002 45.072 58.6842 45.568C58.6762 46.064 58.6402 46.608 58.5762 47.2C58.5202 47.784 58.4162 48.448 58.2642 49.192L57.2802 49.084C57.5042 48.028 57.6362 47.104 57.6762 46.312C57.7162 45.52 57.7362 44.804 57.7362 44.164V43.132ZM57.9642 45.736V46.492L51.1122 46.888L50.9562 46.024L57.9642 45.736ZM53.9082 47.824H54.8922V50.932H53.9082V47.824ZM69.0273 42.076H70.0233V48.748H69.0273V42.076ZM61.7913 46.876H62.6793C63.4633 46.876 64.1513 46.868 64.7433 46.852C65.3433 46.836 65.8953 46.8 66.3993 46.744C66.9113 46.688 67.4273 46.608 67.9473 46.504L68.0553 47.32C67.5193 47.424 66.9913 47.504 66.4713 47.56C65.9513 47.616 65.3873 47.656 64.7793 47.68C64.1793 47.696 63.4793 47.704 62.6793 47.704H61.7913V46.876ZM61.7913 42.928H66.8913V43.744H62.7753V47.332H61.7913V42.928ZM66.4233 48.772C67.1753 48.772 67.8233 48.856 68.3673 49.024C68.9113 49.184 69.3313 49.42 69.6273 49.732C69.9233 50.036 70.0713 50.408 70.0713 50.848C70.0713 51.28 69.9233 51.652 69.6273 51.964C69.3313 52.276 68.9113 52.512 68.3673 52.672C67.8233 52.84 67.1753 52.924 66.4233 52.924C65.6713 52.924 65.0233 52.84 64.4793 52.672C63.9353 52.512 63.5153 52.276 63.2193 51.964C62.9313 51.652 62.7873 51.28 62.7873 50.848C62.7873 50.408 62.9313 50.036 63.2193 49.732C63.5153 49.42 63.9353 49.184 64.4793 49.024C65.0233 48.856 65.6713 48.772 66.4233 48.772ZM66.4233 49.564C65.8713 49.564 65.3953 49.616 64.9953 49.72C64.6033 49.816 64.3033 49.96 64.0953 50.152C63.8873 50.344 63.7833 50.576 63.7833 50.848C63.7833 51.112 63.8873 51.34 64.0953 51.532C64.3033 51.724 64.6033 51.872 64.9953 51.976C65.3953 52.08 65.8713 52.132 66.4233 52.132C66.9753 52.132 67.4473 52.08 67.8393 51.976C68.2313 51.872 68.5353 51.724 68.7513 51.532C68.9673 51.34 69.0753 51.112 69.0753 50.848C69.0753 50.576 68.9673 50.344 68.7513 50.152C68.5353 49.96 68.2313 49.816 67.8393 49.72C67.4473 49.616 66.9753 49.564 66.4233 49.564ZM79.5263 42.076H80.5103V52.936H79.5263V42.076ZM80.2823 46.54H82.2863V47.38H80.2823V46.54ZM72.1103 43.816H78.5063V44.632H72.1103V43.816ZM75.3623 45.52C75.8743 45.52 76.3263 45.628 76.7183 45.844C77.1183 46.06 77.4303 46.356 77.6543 46.732C77.8863 47.1 78.0023 47.528 78.0023 48.016C78.0023 48.504 77.8863 48.936 77.6543 49.312C77.4303 49.688 77.1183 49.984 76.7183 50.2C76.3263 50.408 75.8743 50.512 75.3623 50.512C74.8503 50.512 74.3943 50.408 73.9943 50.2C73.6023 49.984 73.2903 49.688 73.0583 49.312C72.8263 48.936 72.7103 48.504 72.7103 48.016C72.7103 47.528 72.8263 47.1 73.0583 46.732C73.2903 46.356 73.6023 46.06 73.9943 45.844C74.3943 45.628 74.8503 45.52 75.3623 45.52ZM75.3623 46.348C75.0343 46.348 74.7423 46.42 74.4863 46.564C74.2303 46.708 74.0263 46.904 73.8743 47.152C73.7303 47.4 73.6583 47.688 73.6583 48.016C73.6583 48.344 73.7303 48.636 73.8743 48.892C74.0263 49.14 74.2303 49.336 74.4863 49.48C74.7423 49.616 75.0343 49.684 75.3623 49.684C75.6823 49.684 75.9703 49.616 76.2263 49.48C76.4823 49.336 76.6823 49.14 76.8263 48.892C76.9783 48.636 77.0543 48.344 77.0543 48.016C77.0543 47.688 76.9783 47.4 76.8263 47.152C76.6823 46.904 76.4823 46.708 76.2263 46.564C75.9703 46.42 75.6823 46.348 75.3623 46.348ZM74.8463 42.208H75.8423V44.176H74.8463V42.208ZM84.5294 45.34H91.9094V46.144H84.5294V45.34ZM83.1974 47.596H93.0374V48.412H83.1974V47.596ZM84.5294 42.472H85.5134V45.748H84.5294V42.472ZM84.4574 51.856H91.9694V52.672H84.4574V51.856ZM84.4574 49.504H85.4534V52.072H84.4574V49.504ZM105.555 42.088H106.551V49.42H105.555V42.088ZM103.227 45.136H105.759V45.964H103.227V45.136ZM102.135 42.94H103.179C103.179 43.868 102.983 44.708 102.591 45.46C102.199 46.204 101.631 46.852 100.887 47.404C100.151 47.956 99.2674 48.4 98.2354 48.736L97.8034 47.944C98.7234 47.656 99.5034 47.288 100.143 46.84C100.791 46.392 101.283 45.872 101.619 45.28C101.963 44.688 102.135 44.036 102.135 43.324V42.94ZM98.3314 42.94H102.843V43.756H98.3314V42.94ZM102.555 48.496H103.407V48.988C103.407 49.5 103.295 49.976 103.071 50.416C102.855 50.848 102.555 51.232 102.171 51.568C101.795 51.896 101.363 52.172 100.875 52.396C100.387 52.628 99.8714 52.796 99.3274 52.9L98.9314 52.108C99.4114 52.028 99.8674 51.896 100.299 51.712C100.739 51.52 101.127 51.288 101.463 51.016C101.799 50.744 102.063 50.436 102.255 50.092C102.455 49.748 102.555 49.38 102.555 48.988V48.496ZM102.687 48.496H103.539V48.988C103.539 49.372 103.635 49.736 103.827 50.08C104.019 50.416 104.283 50.72 104.619 50.992C104.955 51.264 105.339 51.492 105.771 51.676C106.211 51.86 106.667 51.996 107.139 52.084L106.731 52.876C106.187 52.772 105.671 52.608 105.183 52.384C104.703 52.16 104.275 51.884 103.899 51.556C103.523 51.22 103.227 50.836 103.011 50.404C102.795 49.972 102.687 49.5 102.687 48.988V48.496ZM113.559 42.268C114.759 42.268 115.695 42.432 116.367 42.76C117.039 43.08 117.375 43.54 117.375 44.14C117.375 44.748 117.039 45.216 116.367 45.544C115.695 45.864 114.759 46.024 113.559 46.024C112.367 46.024 111.431 45.864 110.751 45.544C110.079 45.216 109.743 44.748 109.743 44.14C109.743 43.54 110.079 43.08 110.751 42.76C111.431 42.432 112.367 42.268 113.559 42.268ZM113.559 43.012C112.975 43.012 112.475 43.056 112.059 43.144C111.643 43.232 111.323 43.36 111.099 43.528C110.883 43.696 110.775 43.9 110.775 44.14C110.775 44.38 110.883 44.588 111.099 44.764C111.323 44.932 111.643 45.06 112.059 45.148C112.475 45.228 112.975 45.268 113.559 45.268C114.151 45.268 114.655 45.228 115.071 45.148C115.487 45.06 115.803 44.932 116.019 44.764C116.243 44.588 116.355 44.38 116.355 44.14C116.355 43.9 116.243 43.696 116.019 43.528C115.803 43.36 115.487 43.232 115.071 43.144C114.655 43.056 114.151 43.012 113.559 43.012ZM108.663 46.756H118.467V47.56H108.663V46.756ZM109.851 48.484H117.207V50.932H110.847V52.24H109.875V50.2H116.235V49.252H109.851V48.484ZM109.875 52.036H117.531V52.816H109.875V52.036ZM125.021 48.856H132.005V52.792H125.021V48.856ZM131.033 49.66H125.993V51.976H131.033V49.66ZM123.713 42.724H124.697V47.236H123.713V42.724ZM123.713 46.792H124.541C125.117 46.792 125.669 46.78 126.197 46.756C126.725 46.732 127.245 46.688 127.757 46.624C128.277 46.56 128.805 46.472 129.341 46.36L129.461 47.212C128.917 47.316 128.377 47.4 127.841 47.464C127.313 47.528 126.777 47.576 126.233 47.608C125.697 47.632 125.133 47.644 124.541 47.644H123.713V46.792ZM131.009 42.076H132.005V48.328H131.009V42.076ZM127.937 44.116H131.249V44.932H127.937V44.116ZM137.008 42.916C137.536 42.916 138.004 43.072 138.412 43.384C138.82 43.688 139.136 44.124 139.36 44.692C139.592 45.26 139.708 45.928 139.708 46.696C139.708 47.464 139.592 48.132 139.36 48.7C139.136 49.268 138.82 49.708 138.412 50.02C138.004 50.332 137.536 50.488 137.008 50.488C136.488 50.488 136.02 50.332 135.604 50.02C135.196 49.708 134.876 49.268 134.644 48.7C134.42 48.132 134.308 47.464 134.308 46.696C134.308 45.928 134.42 45.26 134.644 44.692C134.876 44.124 135.196 43.688 135.604 43.384C136.02 43.072 136.488 42.916 137.008 42.916ZM137.008 43.804C136.664 43.804 136.36 43.924 136.096 44.164C135.832 44.396 135.624 44.732 135.472 45.172C135.328 45.604 135.256 46.112 135.256 46.696C135.256 47.28 135.328 47.792 135.472 48.232C135.624 48.664 135.832 49 136.096 49.24C136.36 49.48 136.664 49.6 137.008 49.6C137.36 49.6 137.668 49.48 137.932 49.24C138.196 49 138.4 48.664 138.544 48.232C138.696 47.792 138.772 47.28 138.772 46.696C138.772 46.112 138.696 45.604 138.544 45.172C138.4 44.732 138.196 44.396 137.932 44.164C137.668 43.924 137.36 43.804 137.008 43.804ZM142.06 42.076H143.044V52.948H142.06V42.076ZM139.384 46.216H142.504V47.02H139.384V46.216ZM154.626 44.608H156.846V45.424H154.626V44.608ZM154.614 46.72H156.822V47.536H154.614V46.72ZM148.542 43.168H154.626V43.972H148.542V43.168ZM151.614 44.5C152.102 44.5 152.53 44.584 152.898 44.752C153.266 44.912 153.554 45.14 153.762 45.436C153.97 45.724 154.074 46.064 154.074 46.456C154.074 46.848 153.97 47.192 153.762 47.488C153.554 47.776 153.266 48 152.898 48.16C152.53 48.32 152.102 48.4 151.614 48.4C151.134 48.4 150.71 48.32 150.342 48.16C149.974 48 149.686 47.776 149.478 47.488C149.27 47.192 149.166 46.848 149.166 46.456C149.166 46.064 149.27 45.724 149.478 45.436C149.686 45.14 149.974 44.912 150.342 44.752C150.71 44.584 151.134 44.5 151.614 44.5ZM151.614 45.268C151.158 45.268 150.79 45.376 150.51 45.592C150.238 45.808 150.102 46.096 150.102 46.456C150.102 46.816 150.238 47.108 150.51 47.332C150.79 47.548 151.158 47.656 151.614 47.656C152.07 47.656 152.438 47.548 152.718 47.332C153.006 47.108 153.15 46.816 153.15 46.456C153.15 46.096 153.006 45.808 152.718 45.592C152.438 45.376 152.07 45.268 151.614 45.268ZM151.134 41.98H152.118V43.66H151.134V41.98ZM156.462 42.076H157.458V48.496H156.462V42.076ZM150.438 48.964H151.422V50.08H156.474V48.964H157.458V52.792H150.438V48.964ZM151.422 50.848V52H156.474V50.848H151.422ZM165.017 44.668H167.933V45.484H165.017V44.668ZM162.533 42.58C163.069 42.58 163.545 42.688 163.961 42.904C164.385 43.112 164.717 43.404 164.957 43.78C165.197 44.156 165.317 44.592 165.317 45.088C165.317 45.584 165.197 46.024 164.957 46.408C164.717 46.784 164.385 47.08 163.961 47.296C163.545 47.504 163.069 47.608 162.533 47.608C161.989 47.608 161.505 47.504 161.081 47.296C160.665 47.08 160.337 46.784 160.097 46.408C159.857 46.024 159.737 45.584 159.737 45.088C159.737 44.592 159.857 44.156 160.097 43.78C160.337 43.404 160.665 43.112 161.081 42.904C161.505 42.688 161.989 42.58 162.533 42.58ZM162.533 43.42C162.173 43.42 161.853 43.492 161.573 43.636C161.301 43.772 161.085 43.968 160.925 44.224C160.765 44.472 160.685 44.76 160.685 45.088C160.685 45.416 160.765 45.708 160.925 45.964C161.085 46.212 161.301 46.408 161.573 46.552C161.853 46.696 162.173 46.768 162.533 46.768C162.885 46.768 163.197 46.696 163.469 46.552C163.749 46.408 163.969 46.212 164.129 45.964C164.289 45.708 164.369 45.416 164.369 45.088C164.369 44.76 164.289 44.472 164.129 44.224C163.969 43.968 163.749 43.772 163.469 43.636C163.197 43.492 162.885 43.42 162.533 43.42ZM167.501 42.076H168.497V47.908H167.501V42.076ZM161.549 48.448H162.533V49.804H167.501V48.448H168.497V52.792H161.549V48.448ZM162.533 50.596V51.976H167.501V50.596H162.533ZM178.951 48.892C179.687 48.892 180.319 48.972 180.847 49.132C181.383 49.292 181.795 49.52 182.083 49.816C182.371 50.112 182.515 50.472 182.515 50.896C182.515 51.32 182.371 51.684 182.083 51.988C181.795 52.292 181.383 52.524 180.847 52.684C180.319 52.844 179.687 52.924 178.951 52.924C178.215 52.924 177.579 52.844 177.043 52.684C176.507 52.524 176.095 52.292 175.807 51.988C175.519 51.684 175.375 51.32 175.375 50.896C175.375 50.472 175.519 50.112 175.807 49.816C176.095 49.52 176.507 49.292 177.043 49.132C177.579 48.972 178.215 48.892 178.951 48.892ZM178.951 49.684C178.415 49.684 177.951 49.732 177.559 49.828C177.175 49.924 176.879 50.064 176.671 50.248C176.463 50.424 176.359 50.64 176.359 50.896C176.359 51.16 176.463 51.384 176.671 51.568C176.879 51.752 177.175 51.892 177.559 51.988C177.951 52.084 178.415 52.132 178.951 52.132C179.487 52.132 179.947 52.084 180.331 51.988C180.715 51.892 181.011 51.752 181.219 51.568C181.427 51.384 181.531 51.16 181.531 50.896C181.531 50.64 181.427 50.424 181.219 50.248C181.011 50.064 180.715 49.924 180.331 49.828C179.947 49.732 179.487 49.684 178.951 49.684ZM181.411 42.076H182.407V48.592H181.411V42.076ZM182.131 44.8H184.003V45.64H182.131V44.8ZM174.427 42.76H175.411V44.392H178.471V42.76H179.455V47.764H174.427V42.76ZM175.411 45.184V46.96H178.471V45.184H175.411ZM187.842 42.592H188.67V43.648C188.67 44.336 188.542 44.98 188.286 45.58C188.038 46.18 187.682 46.704 187.218 47.152C186.762 47.592 186.23 47.928 185.622 48.16L185.118 47.368C185.526 47.216 185.894 47.016 186.222 46.768C186.558 46.512 186.846 46.22 187.086 45.892C187.334 45.564 187.522 45.208 187.65 44.824C187.778 44.44 187.842 44.048 187.842 43.648V42.592ZM188.022 42.592H188.85V43.648C188.85 44.04 188.914 44.416 189.042 44.776C189.178 45.136 189.366 45.472 189.606 45.784C189.846 46.096 190.13 46.372 190.458 46.612C190.794 46.852 191.162 47.04 191.562 47.176L191.07 47.968C190.47 47.744 189.938 47.424 189.474 47.008C189.018 46.584 188.662 46.084 188.406 45.508C188.15 44.932 188.022 44.312 188.022 43.648V42.592ZM186.666 49.156H193.914V52.936H192.918V49.972H186.666V49.156ZM192.918 42.076H193.914V48.604H192.918V42.076ZM196.553 43.264H201.449V44.08H196.553V43.264ZM198.245 46.372H199.229V50.044H198.245V46.372ZM201.041 43.264H202.025V43.852C202.025 44.292 202.009 44.868 201.977 45.58C201.953 46.292 201.865 47.152 201.713 48.16L200.729 48.076C200.889 47.092 200.981 46.252 201.005 45.556C201.029 44.86 201.041 44.292 201.041 43.852V43.264ZM203.381 42.076H204.377V52.936H203.381V42.076ZM204.101 46.612H206.105V47.464H204.101V46.612ZM196.073 50.56L195.953 49.732C196.601 49.724 197.309 49.716 198.077 49.708C198.853 49.692 199.637 49.66 200.429 49.612C201.229 49.564 201.993 49.496 202.721 49.408L202.781 50.152C202.029 50.272 201.257 50.36 200.465 50.416C199.681 50.472 198.913 50.512 198.161 50.536C197.409 50.552 196.713 50.56 196.073 50.56ZM218.371 42.076H219.367V47.692H218.371V42.076ZM212.347 48.244H219.367V50.86H213.343V52.348H212.383V50.104H218.383V49.036H212.347V48.244ZM212.383 52.012H219.739V52.816H212.383V52.012ZM213.295 42.388H214.123V43.216C214.123 43.888 213.995 44.516 213.739 45.1C213.483 45.684 213.123 46.192 212.659 46.624C212.195 47.048 211.659 47.372 211.051 47.596L210.547 46.804C210.955 46.66 211.327 46.468 211.663 46.228C211.999 45.988 212.287 45.712 212.527 45.4C212.775 45.08 212.963 44.736 213.091 44.368C213.227 44 213.295 43.616 213.295 43.216V42.388ZM213.475 42.388H214.303V43.216C214.303 43.592 214.367 43.956 214.495 44.308C214.631 44.66 214.819 44.984 215.059 45.28C215.307 45.576 215.599 45.84 215.935 46.072C216.271 46.296 216.639 46.476 217.039 46.612L216.547 47.392C216.091 47.232 215.675 47.02 215.299 46.756C214.923 46.484 214.599 46.168 214.327 45.808C214.055 45.44 213.843 45.04 213.691 44.608C213.547 44.168 213.475 43.704 213.475 43.216V42.388ZM221.502 48.376L231.342 48.376V49.192L221.502 49.192V48.376ZM225.906 48.88H226.89V52.924H225.906V48.88ZM222.762 42.676H230.082V46.912H222.762V42.676ZM229.098 43.48H223.734V46.12H229.098V43.48ZM235.313 43.18H236.129V44.068C236.129 44.724 236.001 45.34 235.745 45.916C235.497 46.492 235.145 46.996 234.689 47.428C234.233 47.852 233.705 48.176 233.105 48.4L232.589 47.608C232.989 47.464 233.353 47.272 233.681 47.032C234.017 46.792 234.309 46.516 234.557 46.204C234.805 45.884 234.993 45.544 235.121 45.184C235.249 44.816 235.313 44.444 235.313 44.068V43.18ZM235.505 43.18H236.321V44.056C236.321 44.52 236.429 44.972 236.645 45.412C236.861 45.844 237.169 46.232 237.569 46.576C237.969 46.912 238.429 47.176 238.949 47.368L238.445 48.148C237.853 47.932 237.337 47.62 236.897 47.212C236.457 46.804 236.113 46.328 235.865 45.784C235.625 45.24 235.505 44.664 235.505 44.056V43.18ZM238.361 44.908H240.773V45.736H238.361V44.908ZM232.901 42.82H238.697V43.636H232.901V42.82ZM234.233 49.156H241.481V52.936H240.485V49.972H234.233V49.156ZM240.485 42.076H241.481V48.568H240.485V42.076ZM251.488 42.088H252.484V50.008H251.488V42.088ZM245.512 51.88H252.82V52.696H245.512V51.88ZM245.512 49.204H246.508V52.156H245.512V49.204ZM246.664 42.844C247.208 42.844 247.692 42.956 248.116 43.18C248.54 43.404 248.876 43.72 249.124 44.128C249.372 44.528 249.496 44.988 249.496 45.508C249.496 46.028 249.372 46.492 249.124 46.9C248.876 47.3 248.54 47.616 248.116 47.848C247.692 48.072 247.208 48.184 246.664 48.184C246.128 48.184 245.644 48.072 245.212 47.848C244.788 47.616 244.452 47.3 244.204 46.9C243.956 46.492 243.832 46.028 243.832 45.508C243.832 44.988 243.956 44.528 244.204 44.128C244.452 43.72 244.788 43.404 245.212 43.18C245.644 42.956 246.128 42.844 246.664 42.844ZM246.664 43.708C246.312 43.708 245.996 43.784 245.716 43.936C245.436 44.088 245.212 44.3 245.044 44.572C244.884 44.844 244.804 45.156 244.804 45.508C244.804 45.868 244.884 46.184 245.044 46.456C245.212 46.72 245.436 46.928 245.716 47.08C245.996 47.232 246.312 47.308 246.664 47.308C247.016 47.308 247.332 47.232 247.612 47.08C247.9 46.928 248.124 46.72 248.284 46.456C248.444 46.184 248.524 45.868 248.524 45.508C248.524 45.156 248.444 44.844 248.284 44.572C248.124 44.3 247.9 44.088 247.612 43.936C247.332 43.784 247.016 43.708 246.664 43.708ZM266.238 42.076H267.198V52.936H266.238V42.076ZM264.486 46.444H266.574V47.26H264.486V46.444ZM261.69 43.48H262.638C262.638 44.176 262.57 44.856 262.434 45.52C262.298 46.184 262.074 46.824 261.762 47.44C261.458 48.048 261.046 48.62 260.526 49.156C260.006 49.684 259.358 50.168 258.582 50.608L258.006 49.9C258.918 49.388 259.642 48.808 260.178 48.16C260.714 47.512 261.098 46.812 261.33 46.06C261.57 45.3 261.69 44.5 261.69 43.66V43.48ZM258.426 43.48H262.014V44.296H258.426V43.48ZM263.838 42.364H264.774V52.396H263.838V42.364ZM269.489 42.532H270.473V44.08H273.533V42.532H274.517V47.26H269.489V42.532ZM270.473 44.86V46.456H273.533V44.86H270.473ZM276.473 42.076H277.469V47.68H276.473V42.076ZM277.025 44.416H279.065V45.232H277.025V44.416ZM270.569 48.196H277.469V50.836H271.577V52.456H270.605V50.092H276.485V48.988H270.569V48.196ZM270.605 52.012H277.853V52.816H270.605V52.012ZM288.655 44.08H291.559V44.884H288.655V44.08ZM288.559 46.336H291.487V47.152H288.559V46.336ZM291.391 42.088H292.387V48.58H291.391V42.088ZM287.995 42.892H289.051C289.051 43.82 288.847 44.656 288.439 45.4C288.039 46.144 287.459 46.784 286.699 47.32C285.947 47.848 285.051 48.268 284.011 48.58L283.603 47.788C284.523 47.516 285.311 47.164 285.967 46.732C286.623 46.292 287.123 45.788 287.467 45.22C287.819 44.644 287.995 44.012 287.995 43.324V42.892ZM284.155 42.892H288.667V43.708H284.155V42.892ZM288.859 48.7C289.595 48.7 290.227 48.784 290.755 48.952C291.291 49.12 291.707 49.36 292.003 49.672C292.299 49.984 292.447 50.356 292.447 50.788C292.447 51.228 292.299 51.604 292.003 51.916C291.707 52.22 291.291 52.456 290.755 52.624C290.227 52.8 289.595 52.888 288.859 52.888C288.131 52.888 287.495 52.8 286.951 52.624C286.415 52.456 285.999 52.22 285.703 51.916C285.407 51.604 285.259 51.228 285.259 50.788C285.259 50.356 285.407 49.984 285.703 49.672C285.999 49.36 286.415 49.12 286.951 48.952C287.495 48.784 288.131 48.7 288.859 48.7ZM288.859 49.492C288.331 49.492 287.871 49.544 287.479 49.648C287.087 49.752 286.783 49.9 286.567 50.092C286.351 50.284 286.243 50.516 286.243 50.788C286.243 51.06 286.351 51.292 286.567 51.484C286.783 51.676 287.087 51.824 287.479 51.928C287.871 52.032 288.331 52.084 288.859 52.084C289.395 52.084 289.855 52.032 290.239 51.928C290.623 51.824 290.923 51.676 291.139 51.484C291.355 51.292 291.463 51.06 291.463 50.788C291.463 50.516 291.355 50.284 291.139 50.092C290.923 49.9 290.623 49.752 290.239 49.648C289.855 49.544 289.395 49.492 288.859 49.492ZM302.43 42.076H303.426V48.652H302.43V42.076ZM300.63 45.376H302.874V46.204H300.63V45.376ZM296.382 49.228H303.426V52.792H296.382V49.228ZM302.454 50.032H297.366V51.976H302.454V50.032ZM294.51 43.204H300.786V44.02H294.51V43.204ZM297.654 44.572C298.142 44.572 298.574 44.652 298.95 44.812C299.326 44.972 299.618 45.2 299.826 45.496C300.042 45.784 300.15 46.12 300.15 46.504C300.15 46.896 300.042 47.236 299.826 47.524C299.618 47.812 299.326 48.036 298.95 48.196C298.574 48.356 298.142 48.436 297.654 48.436C297.166 48.436 296.73 48.356 296.346 48.196C295.97 48.036 295.674 47.812 295.458 47.524C295.25 47.236 295.146 46.896 295.146 46.504C295.146 46.12 295.25 45.784 295.458 45.496C295.674 45.2 295.97 44.972 296.346 44.812C296.73 44.652 297.166 44.572 297.654 44.572ZM297.654 45.34C297.35 45.34 297.078 45.388 296.838 45.484C296.606 45.58 296.422 45.716 296.286 45.892C296.158 46.068 296.094 46.272 296.094 46.504C296.094 46.736 296.158 46.94 296.286 47.116C296.422 47.292 296.606 47.432 296.838 47.536C297.078 47.632 297.35 47.68 297.654 47.68C297.958 47.68 298.226 47.632 298.458 47.536C298.69 47.432 298.87 47.292 298.998 47.116C299.134 46.94 299.202 46.736 299.202 46.504C299.202 46.272 299.134 46.068 298.998 45.892C298.87 45.716 298.69 45.58 298.458 45.484C298.226 45.388 297.958 45.34 297.654 45.34ZM297.162 41.98H298.146V43.792H297.162V41.98ZM310.434 42.268C311.634 42.268 312.57 42.432 313.242 42.76C313.914 43.08 314.25 43.54 314.25 44.14C314.25 44.748 313.914 45.216 313.242 45.544C312.57 45.864 311.634 46.024 310.434 46.024C309.242 46.024 308.306 45.864 307.626 45.544C306.954 45.216 306.618 44.748 306.618 44.14C306.618 43.54 306.954 43.08 307.626 42.76C308.306 42.432 309.242 42.268 310.434 42.268ZM310.434 43.012C309.85 43.012 309.35 43.056 308.934 43.144C308.518 43.232 308.198 43.36 307.974 43.528C307.758 43.696 307.65 43.9 307.65 44.14C307.65 44.38 307.758 44.588 307.974 44.764C308.198 44.932 308.518 45.06 308.934 45.148C309.35 45.228 309.85 45.268 310.434 45.268C311.026 45.268 311.53 45.228 311.946 45.148C312.362 45.06 312.678 44.932 312.894 44.764C313.118 44.588 313.23 44.38 313.23 44.14C313.23 43.9 313.118 43.696 312.894 43.528C312.678 43.36 312.362 43.232 311.946 43.144C311.53 43.056 311.026 43.012 310.434 43.012ZM305.538 46.756H315.342V47.56H305.538V46.756ZM306.726 48.484H314.082V50.932H307.722V52.24H306.75V50.2H313.11V49.252H306.726V48.484ZM306.75 52.036H314.406V52.816H306.75V52.036ZM327.608 42.076H328.592V47.848H327.608V42.076ZM327.944 44.428H329.984V45.256H327.944V44.428ZM321.536 42.532H322.268V43.252C322.268 43.596 322.236 43.956 322.172 44.332C322.108 44.708 322 45.076 321.848 45.436C321.704 45.796 321.512 46.128 321.272 46.432C321.04 46.736 320.748 46.988 320.396 47.188L319.856 46.468C320.16 46.292 320.42 46.076 320.636 45.82C320.852 45.564 321.024 45.288 321.152 44.992C321.288 44.696 321.384 44.396 321.44 44.092C321.504 43.788 321.536 43.508 321.536 43.252V42.532ZM321.764 42.532H322.484V43.252C322.484 43.492 322.504 43.76 322.544 44.056C322.592 44.352 322.672 44.656 322.784 44.968C322.896 45.272 323.048 45.564 323.24 45.844C323.432 46.116 323.676 46.352 323.972 46.552L323.504 47.296C323.16 47.072 322.872 46.8 322.64 46.48C322.408 46.152 322.228 45.8 322.1 45.424C321.98 45.04 321.892 44.66 321.836 44.284C321.788 43.908 321.764 43.564 321.764 43.252V42.532ZM324.524 42.544H325.244V43.264C325.244 43.592 325.22 43.944 325.172 44.32C325.124 44.696 325.036 45.076 324.908 45.46C324.78 45.836 324.6 46.184 324.368 46.504C324.144 46.824 323.856 47.092 323.504 47.308L323.036 46.564C323.332 46.364 323.576 46.132 323.768 45.868C323.968 45.596 324.12 45.308 324.224 45.004C324.336 44.692 324.412 44.388 324.452 44.092C324.5 43.788 324.524 43.512 324.524 43.264V42.544ZM324.74 42.532H325.46V43.252C325.46 43.644 325.512 44.048 325.616 44.464C325.728 44.872 325.908 45.256 326.156 45.616C326.412 45.968 326.744 46.252 327.152 46.468L326.612 47.188C326.148 46.932 325.776 46.592 325.496 46.168C325.224 45.744 325.028 45.276 324.908 44.764C324.796 44.252 324.74 43.748 324.74 43.252V42.532ZM321.392 48.484H329.036V49.264H321.392V48.484ZM325.22 49.78C326.22 49.78 326.996 49.916 327.548 50.188C328.1 50.452 328.376 50.836 328.376 51.34C328.376 51.844 328.1 52.232 327.548 52.504C326.996 52.776 326.22 52.912 325.22 52.912C324.22 52.912 323.44 52.776 322.88 52.504C322.328 52.232 322.052 51.844 322.052 51.34C322.052 50.836 322.328 50.452 322.88 50.188C323.44 49.916 324.22 49.78 325.22 49.78ZM325.22 50.5C324.516 50.5 323.976 50.576 323.6 50.728C323.224 50.872 323.036 51.076 323.036 51.34C323.036 51.62 323.224 51.832 323.6 51.976C323.976 52.12 324.516 52.192 325.22 52.192C325.916 52.192 326.452 52.12 326.828 51.976C327.212 51.832 327.404 51.62 327.404 51.34C327.404 51.076 327.212 50.872 326.828 50.728C326.452 50.576 325.916 50.5 325.22 50.5ZM324.728 47.416H325.724V48.964H324.728V47.416ZM335.887 42.268C337.087 42.268 338.023 42.432 338.695 42.76C339.367 43.08 339.703 43.54 339.703 44.14C339.703 44.748 339.367 45.216 338.695 45.544C338.023 45.864 337.087 46.024 335.887 46.024C334.695 46.024 333.759 45.864 333.079 45.544C332.407 45.216 332.071 44.748 332.071 44.14C332.071 43.54 332.407 43.08 333.079 42.76C333.759 42.432 334.695 42.268 335.887 42.268ZM335.887 43.012C335.303 43.012 334.803 43.056 334.387 43.144C333.971 43.232 333.651 43.36 333.427 43.528C333.211 43.696 333.103 43.9 333.103 44.14C333.103 44.38 333.211 44.588 333.427 44.764C333.651 44.932 333.971 45.06 334.387 45.148C334.803 45.228 335.303 45.268 335.887 45.268C336.479 45.268 336.983 45.228 337.399 45.148C337.815 45.06 338.131 44.932 338.347 44.764C338.571 44.588 338.683 44.38 338.683 44.14C338.683 43.9 338.571 43.696 338.347 43.528C338.131 43.36 337.815 43.232 337.399 43.144C336.983 43.056 336.479 43.012 335.887 43.012ZM330.991 46.756H340.795V47.56H330.991V46.756ZM332.179 48.484H339.535V50.932H333.175V52.24H332.203V50.2H338.563V49.252H332.179V48.484ZM332.203 52.036H339.859V52.816H332.203V52.036ZM17.992 57.46H18.868V58.072C18.868 58.488 18.788 58.88 18.628 59.248C18.468 59.608 18.248 59.94 17.968 60.244C17.696 60.548 17.376 60.82 17.008 61.06C16.64 61.3 16.24 61.5 15.808 61.66C15.384 61.82 14.948 61.936 14.5 62.008L14.092 61.204C14.492 61.148 14.88 61.052 15.256 60.916C15.64 60.78 15.996 60.616 16.324 60.424C16.652 60.224 16.94 60 17.188 59.752C17.444 59.504 17.64 59.24 17.776 58.96C17.92 58.672 17.992 58.376 17.992 58.072V57.46ZM18.16 57.46H19.024V58.072C19.024 58.376 19.096 58.668 19.24 58.948C19.384 59.228 19.58 59.492 19.828 59.74C20.084 59.988 20.376 60.212 20.704 60.412C21.032 60.612 21.384 60.78 21.76 60.916C22.144 61.052 22.532 61.148 22.924 61.204L22.528 62.008C22.08 61.936 21.644 61.82 21.22 61.66C20.796 61.492 20.396 61.288 20.02 61.048C19.652 60.808 19.328 60.536 19.048 60.232C18.776 59.928 18.56 59.596 18.4 59.236C18.24 58.868 18.16 58.48 18.16 58.072V57.46ZM17.992 63.808H18.976V67.936H17.992V63.808ZM13.6 63.184H23.404V64.012H13.6V63.184ZM30.7141 63.76H31.4941V64.336C31.4941 64.808 31.3981 65.272 31.2061 65.728C31.0141 66.184 30.7341 66.592 30.3661 66.952C30.0061 67.312 29.5621 67.588 29.0341 67.78L28.5421 67.048C28.9981 66.88 29.3861 66.648 29.7061 66.352C30.0341 66.056 30.2821 65.736 30.4501 65.392C30.6261 65.04 30.7141 64.688 30.7141 64.336V63.76ZM30.9421 63.76H31.6741V64.336C31.6741 64.704 31.7461 65.068 31.8901 65.428C32.0341 65.788 32.2501 66.116 32.5381 66.412C32.8341 66.708 33.1941 66.944 33.6181 67.12L33.2101 67.876C32.6821 67.668 32.2501 67.38 31.9141 67.012C31.5861 66.644 31.3421 66.228 31.1821 65.764C31.0221 65.292 30.9421 64.816 30.9421 64.336V63.76ZM34.7341 63.76H35.4661V64.336C35.4661 64.76 35.3821 65.204 35.2141 65.668C35.0541 66.132 34.8061 66.564 34.4701 66.964C34.1421 67.356 33.7221 67.66 33.2101 67.876L32.7781 67.12C33.2101 66.92 33.5701 66.664 33.8581 66.352C34.1461 66.032 34.3621 65.696 34.5061 65.344C34.6581 64.984 34.7341 64.648 34.7341 64.336V63.76ZM34.9261 63.76H35.7061V64.336C35.7061 64.712 35.7901 65.076 35.9581 65.428C36.1341 65.78 36.3821 66.1 36.7021 66.388C37.0301 66.668 37.4221 66.888 37.8781 67.048L37.3861 67.78C36.8581 67.588 36.4101 67.32 36.0421 66.976C35.6741 66.624 35.3941 66.224 35.2021 65.776C35.0181 65.32 34.9261 64.84 34.9261 64.336V63.76ZM35.9101 57.088H36.9061V63.28H35.9101V57.088ZM31.0861 57.712C31.6381 57.712 32.1261 57.82 32.5501 58.036C32.9741 58.252 33.3061 58.552 33.5461 58.936C33.7941 59.312 33.9181 59.752 33.9181 60.256C33.9181 60.752 33.7941 61.188 33.5461 61.564C33.3061 61.94 32.9741 62.236 32.5501 62.452C32.1261 62.668 31.6381 62.776 31.0861 62.776C30.5421 62.776 30.0541 62.668 29.6221 62.452C29.1981 62.236 28.8621 61.94 28.6141 61.564C28.3741 61.188 28.2541 60.752 28.2541 60.256C28.2541 59.752 28.3741 59.312 28.6141 58.936C28.8621 58.552 29.1981 58.252 29.6221 58.036C30.0541 57.82 30.5421 57.712 31.0861 57.712ZM31.0861 58.552C30.7341 58.552 30.4181 58.624 30.1381 58.768C29.8581 58.912 29.6341 59.112 29.4661 59.368C29.3061 59.616 29.2261 59.912 29.2261 60.256C29.2261 60.592 29.3061 60.888 29.4661 61.144C29.6341 61.392 29.8581 61.588 30.1381 61.732C30.4181 61.876 30.7341 61.948 31.0861 61.948C31.4461 61.948 31.7661 61.876 32.0461 61.732C32.3261 61.588 32.5461 61.392 32.7061 61.144C32.8661 60.888 32.9461 60.592 32.9461 60.256C32.9461 59.912 32.8661 59.616 32.7061 59.368C32.5461 59.112 32.3261 58.912 32.0461 58.768C31.7661 58.624 31.4461 58.552 31.0861 58.552ZM41.8251 63.688H42.6051V64.324C42.6051 64.796 42.5091 65.264 42.3171 65.728C42.1251 66.184 41.8451 66.592 41.4771 66.952C41.1171 67.312 40.6731 67.592 40.1451 67.792L39.6531 67.048C40.1091 66.88 40.4971 66.652 40.8171 66.364C41.1451 66.068 41.3931 65.744 41.5611 65.392C41.7371 65.032 41.8251 64.676 41.8251 64.324V63.688ZM42.0411 63.688H42.7851V64.324C42.7851 64.692 42.8571 65.06 43.0011 65.428C43.1451 65.788 43.3611 66.12 43.6491 66.424C43.9371 66.72 44.3011 66.96 44.7411 67.144L44.3091 67.888C43.7891 67.68 43.3611 67.388 43.0251 67.012C42.6891 66.636 42.4411 66.216 42.2811 65.752C42.1211 65.28 42.0411 64.804 42.0411 64.324V63.688ZM45.8331 63.688H46.5771V64.324C46.5771 64.748 46.4971 65.196 46.3371 65.668C46.1771 66.132 45.9291 66.564 45.5931 66.964C45.2571 67.364 44.8291 67.672 44.3091 67.888L43.8891 67.144C44.3211 66.936 44.6811 66.672 44.9691 66.352C45.2571 66.032 45.4731 65.692 45.6171 65.332C45.7611 64.972 45.8331 64.636 45.8331 64.324V63.688ZM46.0371 63.688H46.8051V64.324C46.8051 64.7 46.8891 65.068 47.0571 65.428C47.2331 65.788 47.4811 66.108 47.8011 66.388C48.1291 66.668 48.5251 66.888 48.9891 67.048L48.4851 67.792C47.9571 67.6 47.5091 67.328 47.1411 66.976C46.7811 66.624 46.5051 66.22 46.3131 65.764C46.1291 65.308 46.0371 64.828 46.0371 64.324V63.688ZM44.3931 59.8H47.2611V60.616H44.3931V59.8ZM42.0171 57.688C42.5451 57.688 43.0171 57.796 43.4331 58.012C43.8571 58.228 44.1891 58.528 44.4291 58.912C44.6691 59.296 44.7891 59.736 44.7891 60.232C44.7891 60.736 44.6691 61.18 44.4291 61.564C44.1891 61.94 43.8571 62.236 43.4331 62.452C43.0171 62.668 42.5451 62.776 42.0171 62.776C41.4811 62.776 41.0011 62.668 40.5771 62.452C40.1611 62.236 39.8331 61.94 39.5931 61.564C39.3531 61.18 39.2331 60.736 39.2331 60.232C39.2331 59.736 39.3531 59.296 39.5931 58.912C39.8331 58.528 40.1611 58.228 40.5771 58.012C41.0011 57.796 41.4811 57.688 42.0171 57.688ZM42.0171 58.528C41.6651 58.528 41.3491 58.6 41.0691 58.744C40.7971 58.888 40.5811 59.092 40.4211 59.356C40.2611 59.612 40.1811 59.904 40.1811 60.232C40.1811 60.568 40.2611 60.864 40.4211 61.12C40.5811 61.376 40.7971 61.58 41.0691 61.732C41.3491 61.876 41.6651 61.948 42.0171 61.948C42.3611 61.948 42.6691 61.876 42.9411 61.732C43.2211 61.58 43.4411 61.376 43.6011 61.12C43.7611 60.864 43.8411 60.568 43.8411 60.232C43.8411 59.904 43.7611 59.612 43.6011 59.356C43.4411 59.092 43.2211 58.888 42.9411 58.744C42.6691 58.6 42.3611 58.528 42.0171 58.528ZM46.9851 57.076H47.9811V63.268H46.9851V57.076ZM51.3282 63.592H52.3122V64.84H57.6282V63.592H58.6122V67.792H51.3282V63.592ZM52.3122 65.62V66.988H57.6282V65.62H52.3122ZM50.0922 62.02H59.8962V62.836H50.0922V62.02ZM54.4842 57.196H55.3482V57.688C55.3482 58.064 55.2682 58.42 55.1082 58.756C54.9482 59.084 54.7282 59.388 54.4482 59.668C54.1762 59.94 53.8562 60.184 53.4882 60.4C53.1282 60.616 52.7362 60.796 52.3122 60.94C51.8962 61.084 51.4642 61.192 51.0162 61.264L50.6442 60.472C51.0362 60.416 51.4162 60.328 51.7842 60.208C52.1602 60.088 52.5122 59.944 52.8402 59.776C53.1682 59.6 53.4562 59.404 53.7042 59.188C53.9522 58.964 54.1442 58.728 54.2802 58.48C54.4162 58.224 54.4842 57.96 54.4842 57.688V57.196ZM54.6522 57.196H55.5042V57.688C55.5042 57.952 55.5722 58.212 55.7082 58.468C55.8522 58.716 56.0482 58.952 56.2962 59.176C56.5442 59.392 56.8282 59.588 57.1482 59.764C57.4762 59.94 57.8242 60.092 58.1922 60.22C58.5682 60.34 58.9482 60.424 59.3322 60.472L58.9722 61.264C58.5242 61.192 58.0882 61.084 57.6642 60.94C57.2482 60.796 56.8562 60.616 56.4882 60.4C56.1282 60.176 55.8082 59.924 55.5282 59.644C55.2562 59.364 55.0402 59.06 54.8802 58.732C54.7282 58.404 54.6522 58.056 54.6522 57.688V57.196ZM69.0273 57.076H70.0113V67.936H69.0273V57.076ZM61.8153 58.144H62.7993V64.864H61.8153V58.144ZM61.8153 64.276H62.7033C63.5353 64.276 64.3793 64.24 65.2353 64.168C66.0993 64.088 66.9873 63.956 67.8993 63.772L68.0312 64.612C67.0873 64.812 66.1793 64.952 65.3073 65.032C64.4353 65.104 63.5673 65.14 62.7033 65.14H61.8153V64.276ZM79.5143 57.076H80.5103V67.948H79.5143V57.076ZM80.2823 61.36H82.2863V62.188H80.2823V61.36ZM72.6383 64.396H73.4903C74.1543 64.396 74.7623 64.388 75.3143 64.372C75.8743 64.348 76.4103 64.308 76.9223 64.252C77.4423 64.196 77.9703 64.12 78.5063 64.024L78.6263 64.876C78.0663 64.972 77.5223 65.048 76.9943 65.104C76.4743 65.16 75.9303 65.196 75.3623 65.212C74.7943 65.228 74.1703 65.236 73.4903 65.236H72.6383V64.396ZM72.6383 58.132H77.6663V58.948H73.6223V64.78H72.6383V58.132ZM84.2628 67.0682C84.0526 67.0682 83.8722 66.9929 83.7216 66.8423C83.571 66.6918 83.4957 66.5114 83.4957 66.3011C83.4957 66.0909 83.571 65.9105 83.7216 65.7599C83.8722 65.6094 84.0526 65.5341 84.2628 65.5341C84.473 65.5341 84.6534 65.6094 84.804 65.7599C84.9545 65.9105 85.0298 66.0909 85.0298 66.3011C85.0298 66.4403 84.9943 66.5682 84.9233 66.6847C84.8551 66.8011 84.7628 66.8949 84.6463 66.9659C84.5327 67.0341 84.4048 67.0682 84.2628 67.0682ZM97.7731 57.076H98.7691V67.948H97.7731V57.076ZM93.0451 57.916C93.5811 57.916 94.0531 58.072 94.4611 58.384C94.8771 58.688 95.2011 59.124 95.4331 59.692C95.6731 60.26 95.7931 60.928 95.7931 61.696C95.7931 62.464 95.6731 63.132 95.4331 63.7C95.2011 64.268 94.8771 64.708 94.4611 65.02C94.0531 65.332 93.5811 65.488 93.0451 65.488C92.5091 65.488 92.0331 65.332 91.6171 65.02C91.2011 64.708 90.8731 64.268 90.6331 63.7C90.4011 63.132 90.2851 62.464 90.2851 61.696C90.2851 60.928 90.4011 60.26 90.6331 59.692C90.8731 59.124 91.2011 58.688 91.6171 58.384C92.0331 58.072 92.5091 57.916 93.0451 57.916ZM93.0451 58.804C92.6851 58.804 92.3691 58.924 92.0971 59.164C91.8331 59.396 91.6251 59.732 91.4731 60.172C91.3211 60.604 91.2451 61.112 91.2451 61.696C91.2451 62.28 91.3211 62.792 91.4731 63.232C91.6251 63.664 91.8331 64 92.0971 64.24C92.3691 64.48 92.6851 64.6 93.0451 64.6C93.3971 64.6 93.7051 64.48 93.9691 64.24C94.2411 64 94.4531 63.664 94.6051 63.232C94.7571 62.792 94.8331 62.28 94.8331 61.696C94.8331 61.112 94.7571 60.604 94.6051 60.172C94.4531 59.732 94.2411 59.396 93.9691 59.164C93.7051 58.924 93.3971 58.804 93.0451 58.804ZM106.052 60.136H109.16V60.952H106.052V60.136ZM108.86 57.088H109.856V65.116H108.86V57.088ZM102.884 66.88H110.108V67.696H102.884V66.88ZM102.884 64.336H103.88V67.288H102.884V64.336ZM101.456 57.808H102.452V59.716H105.38V57.808H106.364V63.268H101.456V57.808ZM102.452 60.496V62.464H105.38V60.496H102.452ZM115.342 62.428H125.158V63.232H115.342V62.428ZM119.758 60.688H120.73V62.764H119.758V60.688ZM116.578 60.376H124.006V61.18H116.578V60.376ZM116.578 57.58H123.934V58.372H117.562V60.856H116.578V57.58ZM120.238 64.012C121.398 64.012 122.306 64.184 122.962 64.528C123.618 64.864 123.946 65.344 123.946 65.968C123.946 66.592 123.618 67.072 122.962 67.408C122.306 67.752 121.398 67.924 120.238 67.924C119.078 67.924 118.166 67.752 117.502 67.408C116.846 67.072 116.518 66.592 116.518 65.968C116.518 65.344 116.846 64.864 117.502 64.528C118.166 64.184 119.078 64.012 120.238 64.012ZM120.226 64.792C119.666 64.792 119.182 64.84 118.774 64.936C118.374 65.024 118.066 65.156 117.85 65.332C117.634 65.5 117.526 65.712 117.526 65.968C117.526 66.216 117.634 66.428 117.85 66.604C118.066 66.78 118.374 66.912 118.774 67C119.182 67.096 119.666 67.144 120.226 67.144C120.802 67.144 121.29 67.096 121.69 67C122.098 66.912 122.41 66.78 122.626 66.604C122.842 66.428 122.95 66.216 122.95 65.968C122.95 65.712 122.842 65.5 122.626 65.332C122.41 65.156 122.098 65.024 121.69 64.936C121.29 64.84 120.802 64.792 120.226 64.792ZM129.261 57.916C129.797 57.916 130.269 58.072 130.677 58.384C131.085 58.688 131.405 59.124 131.637 59.692C131.869 60.26 131.985 60.928 131.985 61.696C131.985 62.464 131.869 63.132 131.637 63.7C131.405 64.268 131.085 64.708 130.677 65.02C130.269 65.332 129.797 65.488 129.261 65.488C128.733 65.488 128.261 65.332 127.845 65.02C127.437 64.708 127.117 64.268 126.885 63.7C126.653 63.132 126.537 62.464 126.537 61.696C126.537 60.928 126.653 60.26 126.885 59.692C127.117 59.124 127.437 58.688 127.845 58.384C128.261 58.072 128.733 57.916 129.261 57.916ZM129.261 58.804C128.917 58.804 128.609 58.924 128.337 59.164C128.073 59.396 127.865 59.732 127.713 60.172C127.561 60.604 127.485 61.112 127.485 61.696C127.485 62.28 127.561 62.792 127.713 63.232C127.865 63.664 128.073 64 128.337 64.24C128.609 64.48 128.921 64.6 129.273 64.6C129.617 64.6 129.921 64.48 130.185 64.24C130.457 64 130.665 63.664 130.809 63.232C130.961 62.792 131.037 62.28 131.037 61.696C131.037 61.112 130.961 60.604 130.809 60.172C130.665 59.732 130.457 59.396 130.185 59.164C129.921 58.924 129.613 58.804 129.261 58.804ZM133.725 57.076H134.721V67.936H133.725V57.076ZM134.493 61.408H136.497V62.248H134.493V61.408ZM145.328 57.076H146.312V67.948H145.328V57.076ZM138.044 64.492H138.944C139.56 64.492 140.152 64.484 140.72 64.468C141.296 64.444 141.876 64.404 142.46 64.348C143.052 64.292 143.668 64.212 144.308 64.108L144.404 64.924C143.428 65.084 142.508 65.192 141.644 65.248C140.78 65.296 139.88 65.32 138.944 65.32H138.044V64.492ZM138.02 58.084H143.036V61.96H139.052V64.804H138.044V61.156H142.028V58.9H138.02V58.084ZM151.822 62.824H161.638V63.628H151.822V62.824ZM156.226 61.42H157.222V63.16H156.226V61.42ZM153.118 60.988H160.486V61.768H153.118V60.988ZM153.118 57.388H160.426V58.18H154.114V61.408H153.118V57.388ZM153.814 59.176H160.138V59.932H153.814V59.176ZM156.73 64.432C157.906 64.432 158.818 64.58 159.466 64.876C160.114 65.172 160.438 65.604 160.438 66.172C160.438 66.74 160.114 67.172 159.466 67.468C158.818 67.764 157.906 67.912 156.73 67.912C155.546 67.912 154.63 67.764 153.982 67.468C153.334 67.172 153.01 66.74 153.01 66.172C153.01 65.604 153.334 65.172 153.982 64.876C154.63 64.58 155.546 64.432 156.73 64.432ZM156.718 65.188C155.854 65.188 155.186 65.272 154.714 65.44C154.242 65.608 154.006 65.852 154.006 66.172C154.006 66.5 154.242 66.748 154.714 66.916C155.186 67.076 155.854 67.156 156.718 67.156C157.598 67.156 158.27 67.076 158.734 66.916C159.206 66.748 159.442 66.5 159.442 66.172C159.442 65.852 159.206 65.608 158.734 65.44C158.27 65.272 157.598 65.188 156.718 65.188ZM170.301 57.076H171.297V63.388H170.301V57.076ZM170.865 59.848H172.893V60.688H170.865V59.848ZM164.469 63.868H165.453V65.008H170.301V63.868H171.297V67.792H164.469V63.868ZM165.453 65.788V66.988H170.301V65.788H165.453ZM162.897 58.192H169.305V58.996H162.897V58.192ZM166.101 59.5C166.621 59.5 167.073 59.58 167.457 59.74C167.849 59.892 168.153 60.112 168.369 60.4C168.585 60.68 168.693 61.012 168.693 61.396C168.693 61.78 168.585 62.116 168.369 62.404C168.153 62.692 167.849 62.916 167.457 63.076C167.073 63.228 166.621 63.304 166.101 63.304C165.581 63.304 165.125 63.228 164.733 63.076C164.349 62.916 164.045 62.692 163.821 62.404C163.605 62.116 163.497 61.78 163.497 61.396C163.497 61.012 163.605 60.68 163.821 60.4C164.045 60.112 164.349 59.892 164.733 59.74C165.125 59.58 165.581 59.5 166.101 59.5ZM166.101 60.256C165.605 60.256 165.205 60.36 164.901 60.568C164.605 60.776 164.457 61.052 164.457 61.396C164.457 61.748 164.605 62.028 164.901 62.236C165.205 62.444 165.605 62.548 166.101 62.548C166.589 62.548 166.985 62.444 167.289 62.236C167.593 62.028 167.745 61.748 167.745 61.396C167.745 61.052 167.593 60.776 167.289 60.568C166.993 60.36 166.597 60.256 166.101 60.256ZM165.609 56.98H166.605V58.624H165.609V56.98ZM178.809 57.268C180.009 57.268 180.945 57.432 181.617 57.76C182.289 58.08 182.625 58.54 182.625 59.14C182.625 59.748 182.289 60.216 181.617 60.544C180.945 60.864 180.009 61.024 178.809 61.024C177.617 61.024 176.681 60.864 176.001 60.544C175.329 60.216 174.993 59.748 174.993 59.14C174.993 58.54 175.329 58.08 176.001 57.76C176.681 57.432 177.617 57.268 178.809 57.268ZM178.809 58.012C178.225 58.012 177.725 58.056 177.309 58.144C176.893 58.232 176.573 58.36 176.349 58.528C176.133 58.696 176.025 58.9 176.025 59.14C176.025 59.38 176.133 59.588 176.349 59.764C176.573 59.932 176.893 60.06 177.309 60.148C177.725 60.228 178.225 60.268 178.809 60.268C179.401 60.268 179.905 60.228 180.321 60.148C180.737 60.06 181.053 59.932 181.269 59.764C181.493 59.588 181.605 59.38 181.605 59.14C181.605 58.9 181.493 58.696 181.269 58.528C181.053 58.36 180.737 58.232 180.321 58.144C179.905 58.056 179.401 58.012 178.809 58.012ZM173.913 61.756H183.717V62.56H173.913V61.756ZM175.101 63.484H182.457V65.932H176.097V67.24H175.125V65.2H181.485V64.252H175.101V63.484ZM175.125 67.036H182.781V67.816H175.125V67.036ZM188.315 62.824H198.131V63.628H188.315V62.824ZM192.719 61.42H193.715V63.16H192.719V61.42ZM189.611 60.988H196.979V61.768H189.611V60.988ZM189.611 57.388H196.919V58.18H190.607V61.408H189.611V57.388ZM190.307 59.176H196.631V59.932H190.307V59.176ZM193.223 64.432C194.399 64.432 195.311 64.58 195.959 64.876C196.607 65.172 196.931 65.604 196.931 66.172C196.931 66.74 196.607 67.172 195.959 67.468C195.311 67.764 194.399 67.912 193.223 67.912C192.039 67.912 191.123 67.764 190.475 67.468C189.827 67.172 189.503 66.74 189.503 66.172C189.503 65.604 189.827 65.172 190.475 64.876C191.123 64.58 192.039 64.432 193.223 64.432ZM193.211 65.188C192.347 65.188 191.679 65.272 191.207 65.44C190.735 65.608 190.499 65.852 190.499 66.172C190.499 66.5 190.735 66.748 191.207 66.916C191.679 67.076 192.347 67.156 193.211 67.156C194.091 67.156 194.763 67.076 195.227 66.916C195.699 66.748 195.935 66.5 195.935 66.172C195.935 65.852 195.699 65.608 195.227 65.44C194.763 65.272 194.091 65.188 193.211 65.188ZM199.342 58.936H204.73V59.752H199.342V58.936ZM202.042 60.472C202.498 60.472 202.898 60.576 203.242 60.784C203.594 60.992 203.87 61.284 204.07 61.66C204.27 62.028 204.37 62.456 204.37 62.944C204.37 63.432 204.27 63.864 204.07 64.24C203.87 64.608 203.594 64.9 203.242 65.116C202.898 65.324 202.498 65.428 202.042 65.428C201.594 65.428 201.194 65.324 200.842 65.116C200.49 64.9 200.214 64.608 200.014 64.24C199.814 63.864 199.714 63.432 199.714 62.944C199.714 62.456 199.814 62.028 200.014 61.66C200.214 61.292 200.49 61.004 200.842 60.796C201.194 60.58 201.594 60.472 202.042 60.472ZM202.042 61.312C201.77 61.312 201.522 61.384 201.298 61.528C201.082 61.664 200.91 61.856 200.782 62.104C200.662 62.344 200.602 62.624 200.602 62.944C200.602 63.264 200.662 63.548 200.782 63.796C200.91 64.044 201.082 64.236 201.298 64.372C201.522 64.508 201.77 64.576 202.042 64.576C202.322 64.576 202.57 64.508 202.786 64.372C203.002 64.236 203.17 64.044 203.29 63.796C203.418 63.548 203.482 63.264 203.482 62.944C203.482 62.624 203.418 62.344 203.29 62.104C203.17 61.856 203.002 61.664 202.786 61.528C202.57 61.384 202.322 61.312 202.042 61.312ZM207.598 57.076H208.546V67.936H207.598V57.076ZM205.858 61.648H207.91V62.464H205.858V61.648ZM205.27 57.328H206.206V67.408H205.27V57.328ZM201.55 57.4H202.534V59.428H201.55V57.4ZM214.32 64.432H215.148C215.828 64.432 216.436 64.424 216.972 64.408C217.508 64.384 218.016 64.348 218.496 64.3C218.984 64.252 219.476 64.18 219.972 64.084L220.092 64.9C219.572 65.004 219.064 65.08 218.568 65.128C218.072 65.176 217.552 65.212 217.008 65.236C216.464 65.26 215.844 65.272 215.148 65.272H214.32V64.432ZM214.32 58.108H219.252V58.936H215.316V64.732H214.32V58.108ZM221.724 57.076H222.72V67.948H221.724V57.076ZM218.616 61.012H222.144V61.84H218.616V61.012ZM229.223 62.836H230.207V64.708H229.223V62.836ZM224.819 62.356H234.623V63.16H224.819V62.356ZM225.911 64.444H233.411V67.936H232.415V65.248H225.911V64.444ZM229.715 57.328C230.499 57.328 231.175 57.412 231.743 57.58C232.311 57.748 232.751 57.988 233.063 58.3C233.375 58.612 233.531 58.988 233.531 59.428C233.531 59.86 233.375 60.232 233.063 60.544C232.751 60.856 232.311 61.096 231.743 61.264C231.175 61.432 230.499 61.516 229.715 61.516C228.939 61.516 228.263 61.432 227.687 61.264C227.119 61.096 226.679 60.856 226.367 60.544C226.055 60.232 225.899 59.86 225.899 59.428C225.899 58.988 226.055 58.612 226.367 58.3C226.679 57.988 227.119 57.748 227.687 57.58C228.263 57.412 228.939 57.328 229.715 57.328ZM229.715 58.12C229.147 58.12 228.651 58.172 228.227 58.276C227.811 58.38 227.487 58.528 227.255 58.72C227.031 58.912 226.919 59.148 226.919 59.428C226.919 59.7 227.031 59.932 227.255 60.124C227.487 60.316 227.811 60.464 228.227 60.568C228.651 60.672 229.147 60.724 229.715 60.724C230.291 60.724 230.787 60.672 231.203 60.568C231.627 60.464 231.951 60.316 232.175 60.124C232.399 59.932 232.511 59.7 232.511 59.428C232.511 59.148 232.399 58.912 232.175 58.72C231.951 58.528 231.627 58.38 231.203 58.276C230.787 58.172 230.291 58.12 229.715 58.12ZM243.661 61.36H245.701V62.188H243.661V61.36ZM241.453 59.86H242.221V60.424C242.221 60.96 242.165 61.492 242.053 62.02C241.941 62.548 241.777 63.048 241.561 63.52C241.353 63.992 241.093 64.416 240.781 64.792C240.477 65.168 240.125 65.476 239.725 65.716L239.137 64.96C239.505 64.744 239.833 64.472 240.121 64.144C240.409 63.808 240.649 63.44 240.841 63.04C241.041 62.632 241.193 62.204 241.297 61.756C241.401 61.308 241.453 60.864 241.453 60.424V59.86ZM241.633 59.86H242.401V60.424C242.401 60.848 242.453 61.276 242.557 61.708C242.661 62.132 242.813 62.536 243.013 62.92C243.213 63.304 243.453 63.652 243.733 63.964C244.021 64.268 244.349 64.524 244.717 64.732L244.153 65.476C243.625 65.18 243.173 64.772 242.797 64.252C242.421 63.724 242.133 63.128 241.933 62.464C241.733 61.8 241.633 61.12 241.633 60.424V59.86ZM239.437 59.08H244.393V59.896H239.437V59.08ZM241.453 57.472H242.401V59.704H241.453V57.472ZM247.489 57.076H248.437V67.936H247.489V57.076ZM245.317 57.328H246.253V67.372H245.317V57.328ZM254.484 60.088H256.884V60.904H254.484V60.088ZM254.4 62.812H256.86V63.628H254.4V62.812ZM258.54 57.076H259.5V67.936H258.54V57.076ZM256.356 57.364H257.304V67.384H256.356V57.364ZM253.944 58.456H254.904C254.904 59.4 254.768 60.308 254.496 61.18C254.224 62.044 253.788 62.852 253.188 63.604C252.596 64.348 251.816 65.012 250.848 65.596L250.26 64.876C251.108 64.364 251.804 63.788 252.348 63.148C252.892 62.5 253.292 61.8 253.548 61.048C253.812 60.288 253.944 59.484 253.944 58.636V58.456ZM250.74 58.456H254.328V59.272H250.74V58.456ZM264.071 58.18H264.887V59.068C264.887 59.724 264.759 60.34 264.503 60.916C264.255 61.492 263.903 61.996 263.447 62.428C262.991 62.852 262.463 63.176 261.863 63.4L261.347 62.608C261.747 62.464 262.111 62.272 262.439 62.032C262.775 61.792 263.067 61.516 263.315 61.204C263.563 60.884 263.751 60.544 263.879 60.184C264.007 59.816 264.071 59.444 264.071 59.068V58.18ZM264.263 58.18H265.079V59.056C265.079 59.52 265.187 59.972 265.403 60.412C265.619 60.844 265.927 61.232 266.327 61.576C266.727 61.912 267.187 62.176 267.707 62.368L267.203 63.148C266.611 62.932 266.095 62.62 265.655 62.212C265.215 61.804 264.871 61.328 264.623 60.784C264.383 60.24 264.263 59.664 264.263 59.056V58.18ZM267.119 59.908H269.531V60.736H267.119V59.908ZM261.659 57.82L267.455 57.82V58.636L261.659 58.636V57.82ZM262.991 64.156H270.239V67.936H269.243V64.972H262.991V64.156ZM269.243 57.076H270.239V63.568H269.243V57.076ZM280.246 57.088H281.242V65.008H280.246V57.088ZM274.27 66.88H281.578V67.696H274.27V66.88ZM274.27 64.204H275.266V67.156H274.27V64.204ZM275.422 57.844C275.966 57.844 276.45 57.956 276.874 58.18C277.298 58.404 277.634 58.72 277.882 59.128C278.13 59.528 278.254 59.988 278.254 60.508C278.254 61.028 278.13 61.492 277.882 61.9C277.634 62.3 277.298 62.616 276.874 62.848C276.45 63.072 275.966 63.184 275.422 63.184C274.886 63.184 274.402 63.072 273.97 62.848C273.546 62.616 273.21 62.3 272.962 61.9C272.714 61.492 272.59 61.028 272.59 60.508C272.59 59.988 272.714 59.528 272.962 59.128C273.21 58.72 273.546 58.404 273.97 58.18C274.402 57.956 274.886 57.844 275.422 57.844ZM275.422 58.708C275.07 58.708 274.754 58.784 274.474 58.936C274.194 59.088 273.97 59.3 273.802 59.572C273.642 59.844 273.562 60.156 273.562 60.508C273.562 60.868 273.642 61.184 273.802 61.456C273.97 61.72 274.194 61.928 274.474 62.08C274.754 62.232 275.07 62.308 275.422 62.308C275.774 62.308 276.09 62.232 276.37 62.08C276.658 61.928 276.882 61.72 277.042 61.456C277.202 61.184 277.282 60.868 277.282 60.508C277.282 60.156 277.202 59.844 277.042 59.572C276.882 59.3 276.658 59.088 276.37 58.936C276.09 58.784 275.774 58.708 275.422 58.708ZM286.788 58.228H293.196V59.032H286.788V58.228ZM289.992 59.596C290.504 59.596 290.956 59.676 291.348 59.836C291.74 59.996 292.044 60.224 292.26 60.52C292.476 60.808 292.584 61.152 292.584 61.552C292.584 61.952 292.476 62.296 292.26 62.584C292.044 62.872 291.74 63.1 291.348 63.268C290.956 63.428 290.504 63.508 289.992 63.508C289.48 63.508 289.028 63.428 288.636 63.268C288.244 63.1 287.936 62.872 287.712 62.584C287.496 62.296 287.388 61.952 287.388 61.552C287.388 61.152 287.496 60.808 287.712 60.52C287.936 60.224 288.244 59.996 288.636 59.836C289.028 59.676 289.48 59.596 289.992 59.596ZM289.992 60.364C289.496 60.364 289.096 60.472 288.792 60.688C288.496 60.896 288.348 61.184 288.348 61.552C288.348 61.912 288.496 62.2 288.792 62.416C289.096 62.624 289.496 62.728 289.992 62.728C290.48 62.728 290.876 62.624 291.18 62.416C291.484 62.2 291.636 61.912 291.636 61.552C291.636 61.184 291.484 60.896 291.18 60.688C290.884 60.472 290.488 60.364 289.992 60.364ZM294.192 57.076H295.188V63.868H294.192V57.076ZM294.912 60.076H296.784V60.904H294.912V60.076ZM288.132 64.456H295.188V67.936H294.192V65.272H288.132V64.456ZM289.5 57.028H290.496V58.672H289.5V57.028ZM299.039 63.592H300.023V64.84H305.339V63.592H306.323V67.792H299.039V63.592ZM300.023 65.62V66.988H305.339V65.62H300.023ZM297.803 62.02H307.607V62.836H297.803V62.02ZM302.195 57.196H303.059V57.688C303.059 58.064 302.979 58.42 302.819 58.756C302.659 59.084 302.439 59.388 302.159 59.668C301.887 59.94 301.567 60.184 301.199 60.4C300.839 60.616 300.447 60.796 300.023 60.94C299.607 61.084 299.175 61.192 298.727 61.264L298.355 60.472C298.747 60.416 299.127 60.328 299.495 60.208C299.871 60.088 300.223 59.944 300.551 59.776C300.879 59.6 301.167 59.404 301.415 59.188C301.663 58.964 301.855 58.728 301.991 58.48C302.127 58.224 302.195 57.96 302.195 57.688V57.196ZM302.363 57.196H303.215V57.688C303.215 57.952 303.283 58.212 303.419 58.468C303.563 58.716 303.759 58.952 304.007 59.176C304.255 59.392 304.539 59.588 304.859 59.764C305.187 59.94 305.535 60.092 305.903 60.22C306.279 60.34 306.659 60.424 307.043 60.472L306.683 61.264C306.235 61.192 305.799 61.084 305.375 60.94C304.959 60.796 304.567 60.616 304.199 60.4C303.839 60.176 303.519 59.924 303.239 59.644C302.967 59.364 302.751 59.06 302.591 58.732C302.439 58.404 302.363 58.056 302.363 57.688V57.196ZM319.633 57.076H320.629V65.572H319.633V57.076ZM320.209 60.868H322.213V61.696H320.209V60.868ZM313.765 66.88H321.013V67.696H313.765V66.88ZM313.765 65.008H314.761V67.12H313.765V65.008ZM315.061 62.38H316.045V63.868H315.061V62.38ZM312.277 64.324L312.157 63.52C312.797 63.52 313.505 63.512 314.281 63.496C315.057 63.48 315.849 63.444 316.657 63.388C317.465 63.332 318.241 63.248 318.985 63.136L319.057 63.844C318.297 63.988 317.513 64.096 316.705 64.168C315.897 64.232 315.113 64.276 314.353 64.3C313.601 64.316 312.909 64.324 312.277 64.324ZM312.433 58.132H318.661V58.888H312.433V58.132ZM315.541 59.344C316.309 59.344 316.921 59.492 317.377 59.788C317.841 60.084 318.073 60.492 318.073 61.012C318.073 61.532 317.841 61.94 317.377 62.236C316.921 62.532 316.309 62.68 315.541 62.68C314.781 62.68 314.169 62.532 313.705 62.236C313.241 61.94 313.009 61.532 313.009 61.012C313.009 60.492 313.241 60.084 313.705 59.788C314.169 59.492 314.781 59.344 315.541 59.344ZM315.541 60.04C315.061 60.04 314.677 60.128 314.389 60.304C314.101 60.472 313.957 60.708 313.957 61.012C313.957 61.308 314.101 61.544 314.389 61.72C314.677 61.888 315.061 61.972 315.541 61.972C316.021 61.972 316.405 61.888 316.693 61.72C316.981 61.544 317.125 61.308 317.125 61.012C317.125 60.708 316.981 60.472 316.693 60.304C316.405 60.128 316.021 60.04 315.541 60.04ZM315.061 57.04H316.045V58.48H315.061V57.04ZM328.452 59.08H331.356V59.884H328.452V59.08ZM328.356 61.336H331.284V62.152H328.356V61.336ZM331.188 57.088H332.184V63.58H331.188V57.088ZM327.792 57.892H328.848C328.848 58.82 328.644 59.656 328.236 60.4C327.836 61.144 327.256 61.784 326.496 62.32C325.744 62.848 324.848 63.268 323.808 63.58L323.4 62.788C324.32 62.516 325.108 62.164 325.764 61.732C326.42 61.292 326.92 60.788 327.264 60.22C327.616 59.644 327.792 59.012 327.792 58.324V57.892ZM323.952 57.892H328.464V58.708H323.952V57.892ZM328.656 63.7C329.392 63.7 330.024 63.784 330.552 63.952C331.088 64.12 331.504 64.36 331.8 64.672C332.096 64.984 332.244 65.356 332.244 65.788C332.244 66.228 332.096 66.604 331.8 66.916C331.504 67.22 331.088 67.456 330.552 67.624C330.024 67.8 329.392 67.888 328.656 67.888C327.928 67.888 327.292 67.8 326.748 67.624C326.212 67.456 325.796 67.22 325.5 66.916C325.204 66.604 325.056 66.228 325.056 65.788C325.056 65.356 325.204 64.984 325.5 64.672C325.796 64.36 326.212 64.12 326.748 63.952C327.292 63.784 327.928 63.7 328.656 63.7ZM328.656 64.492C328.128 64.492 327.668 64.544 327.276 64.648C326.884 64.752 326.58 64.9 326.364 65.092C326.148 65.284 326.04 65.516 326.04 65.788C326.04 66.06 326.148 66.292 326.364 66.484C326.58 66.676 326.884 66.824 327.276 66.928C327.668 67.032 328.128 67.084 328.656 67.084C329.192 67.084 329.652 67.032 330.036 66.928C330.42 66.824 330.72 66.676 330.936 66.484C331.152 66.292 331.26 66.06 331.26 65.788C331.26 65.516 331.152 65.284 330.936 65.092C330.72 64.9 330.42 64.752 330.036 64.648C329.652 64.544 329.192 64.492 328.656 64.492ZM342.179 57.076H343.175V67.948H342.179V57.076ZM337.451 57.916C337.987 57.916 338.459 58.072 338.867 58.384C339.283 58.688 339.607 59.124 339.839 59.692C340.079 60.26 340.199 60.928 340.199 61.696C340.199 62.464 340.079 63.132 339.839 63.7C339.607 64.268 339.283 64.708 338.867 65.02C338.459 65.332 337.987 65.488 337.451 65.488C336.915 65.488 336.439 65.332 336.023 65.02C335.607 64.708 335.279 64.268 335.039 63.7C334.807 63.132 334.691 62.464 334.691 61.696C334.691 60.928 334.807 60.26 335.039 59.692C335.279 59.124 335.607 58.688 336.023 58.384C336.439 58.072 336.915 57.916 337.451 57.916ZM337.451 58.804C337.091 58.804 336.775 58.924 336.503 59.164C336.239 59.396 336.031 59.732 335.879 60.172C335.727 60.604 335.651 61.112 335.651 61.696C335.651 62.28 335.727 62.792 335.879 63.232C336.031 63.664 336.239 64 336.503 64.24C336.775 64.48 337.091 64.6 337.451 64.6C337.803 64.6 338.111 64.48 338.375 64.24C338.647 64 338.859 63.664 339.011 63.232C339.163 62.792 339.239 62.28 339.239 61.696C339.239 61.112 339.163 60.604 339.011 60.172C338.859 59.732 338.647 59.396 338.375 59.164C338.111 58.924 337.803 58.804 337.451 58.804ZM13.6 80.716H23.44V81.544H13.6V80.716ZM18.016 78.088H19.012V80.992H18.016V78.088ZM17.992 73.456H18.844V74.116C18.844 74.564 18.76 74.988 18.592 75.388C18.432 75.78 18.208 76.148 17.92 76.492C17.64 76.828 17.312 77.128 16.936 77.392C16.568 77.648 16.172 77.872 15.748 78.064C15.332 78.248 14.912 78.384 14.488 78.472L14.08 77.68C14.448 77.616 14.82 77.508 15.196 77.356C15.572 77.196 15.924 77.004 16.252 76.78C16.588 76.556 16.884 76.304 17.14 76.024C17.404 75.744 17.612 75.444 17.764 75.124C17.916 74.804 17.992 74.468 17.992 74.116V73.456ZM18.184 73.456H19.024V74.116C19.024 74.468 19.1 74.804 19.252 75.124C19.404 75.436 19.612 75.732 19.876 76.012C20.14 76.292 20.44 76.544 20.776 76.768C21.112 76.984 21.468 77.168 21.844 77.32C22.228 77.472 22.608 77.576 22.984 77.632L22.576 78.424C22.144 78.336 21.716 78.204 21.292 78.028C20.868 77.844 20.468 77.624 20.092 77.368C19.724 77.104 19.396 76.808 19.108 76.48C18.82 76.144 18.592 75.78 18.424 75.388C18.264 74.988 18.184 74.564 18.184 74.116V73.456ZM14.416 73.06H22.6V73.888H14.416V73.06ZM27.3751 72.688H28.2031V73.804C28.2031 74.508 28.0751 75.156 27.8191 75.748C27.5711 76.34 27.2191 76.86 26.7631 77.308C26.3151 77.748 25.7791 78.084 25.1551 78.316L24.6271 77.512C25.1871 77.312 25.6711 77.028 26.0791 76.66C26.4871 76.292 26.8031 75.864 27.0271 75.376C27.2591 74.88 27.3751 74.356 27.3751 73.804V72.688ZM27.5551 72.688H28.3591V73.768C28.3591 74.28 28.4711 74.764 28.6951 75.22C28.9191 75.676 29.2271 76.08 29.6191 76.432C30.0191 76.776 30.4831 77.036 31.0111 77.212L30.4711 77.992C29.8871 77.768 29.3751 77.452 28.9351 77.044C28.4951 76.636 28.1551 76.152 27.9151 75.592C27.6751 75.032 27.5551 74.424 27.5551 73.768V72.688ZM32.5711 72.076H33.5671V78.496H32.5711V72.076ZM29.9911 78.82C31.1111 78.82 31.9911 79 32.6311 79.36C33.2791 79.72 33.6031 80.224 33.6031 80.872C33.6031 81.512 33.2791 82.012 32.6311 82.372C31.9911 82.732 31.1111 82.912 29.9911 82.912C28.8711 82.912 27.9871 82.732 27.3391 82.372C26.6991 82.012 26.3791 81.512 26.3791 80.872C26.3791 80.224 26.6991 79.72 27.3391 79.36C27.9871 79 28.8711 78.82 29.9911 78.82ZM29.9911 79.612C29.4471 79.612 28.9791 79.664 28.5871 79.768C28.1951 79.864 27.8911 80.008 27.6751 80.2C27.4671 80.384 27.3631 80.608 27.3631 80.872C27.3631 81.128 27.4671 81.352 27.6751 81.544C27.8911 81.728 28.1951 81.872 28.5871 81.976C28.9791 82.072 29.4471 82.12 29.9911 82.12C30.5431 82.12 31.0111 82.072 31.3951 81.976C31.7871 81.872 32.0871 81.728 32.2951 81.544C32.5111 81.352 32.6191 81.128 32.6191 80.872C32.6191 80.608 32.5111 80.384 32.2951 80.2C32.0871 80.008 31.7871 79.864 31.3951 79.768C31.0111 79.664 30.5431 79.612 29.9911 79.612ZM30.2071 74.368H32.7751V75.196H30.2071V74.368ZM36.5421 76.756H42.0861V77.572H36.5421V76.756ZM38.7621 77.404H39.7581V79.9H38.7621V77.404ZM36.5421 73.108H42.0381V73.912H37.5261V77.044H36.5421V73.108ZM43.5261 72.076H44.5221V82.948H43.5261V72.076ZM35.8701 80.596L35.7381 79.756C36.4501 79.756 37.2061 79.752 38.0061 79.744C38.8061 79.728 39.6181 79.7 40.4421 79.66C41.2661 79.612 42.0581 79.544 42.8181 79.456L42.9021 80.188C42.1101 80.308 41.3021 80.4 40.4781 80.464C39.6621 80.52 38.8621 80.556 38.0781 80.572C37.3021 80.588 36.5661 80.596 35.8701 80.596ZM47.7612 73.168H54.7452V73.984H47.7612V73.168ZM46.7172 80.584H56.5212V81.412H46.7172V80.584ZM50.5332 76.708H51.5172V81.004H50.5332V76.708ZM54.3612 73.168H55.3572V74.236C55.3572 74.684 55.3492 75.156 55.3332 75.652C55.3252 76.148 55.2932 76.692 55.2372 77.284C55.1892 77.876 55.0972 78.536 54.9612 79.264L53.9532 79.144C54.1612 78.104 54.2812 77.192 54.3132 76.408C54.3452 75.616 54.3612 74.892 54.3612 74.236V73.168ZM66.6992 74.632H69.4233V75.46H66.6992V74.632ZM63.8553 72.736H64.6593V74.068C64.6593 74.764 64.5353 75.416 64.2873 76.024C64.0393 76.632 63.6913 77.164 63.2433 77.62C62.7953 78.068 62.2713 78.412 61.6713 78.652L61.1433 77.86C61.5513 77.708 61.9193 77.504 62.2473 77.248C62.5833 76.992 62.8673 76.696 63.0993 76.36C63.3393 76.024 63.5233 75.664 63.6513 75.28C63.7873 74.888 63.8553 74.484 63.8553 74.068V72.736ZM64.0353 72.736H64.8393V74.104C64.8393 74.48 64.9033 74.848 65.0313 75.208C65.1593 75.568 65.3393 75.904 65.5713 76.216C65.8033 76.528 66.0793 76.804 66.3993 77.044C66.7273 77.284 67.0873 77.476 67.4793 77.62L66.9393 78.4C66.3633 78.168 65.8553 77.84 65.4153 77.416C64.9833 76.992 64.6433 76.496 64.3953 75.928C64.1553 75.36 64.0353 74.752 64.0353 74.104V72.736ZM69.0633 72.088H70.0593V80.2H69.0633V72.088ZM63.0873 81.88H70.3113V82.696H63.0873V81.88ZM63.0873 79.3H64.0833V82.252H63.0873V79.3ZM72.6863 73.312H81.4103V74.128H72.6863V73.312ZM72.1703 79.12H82.0103V79.936H72.1703V79.12ZM76.5743 79.78H77.5583V82.948H76.5743V79.78ZM77.0663 74.752C78.1703 74.752 79.0343 74.908 79.6583 75.22C80.2823 75.532 80.5943 75.98 80.5943 76.564C80.5943 77.132 80.2823 77.576 79.6583 77.896C79.0343 78.208 78.1703 78.364 77.0663 78.364C75.9623 78.364 75.0983 78.208 74.4743 77.896C73.8503 77.576 73.5383 77.132 73.5383 76.564C73.5383 75.98 73.8503 75.532 74.4743 75.22C75.0983 74.908 75.9623 74.752 77.0663 74.752ZM77.0663 75.508C76.2743 75.508 75.6583 75.6 75.2183 75.784C74.7863 75.96 74.5703 76.22 74.5703 76.564C74.5703 76.892 74.7863 77.148 75.2183 77.332C75.6583 77.516 76.2743 77.608 77.0663 77.608C77.8583 77.608 78.4703 77.516 78.9023 77.332C79.3423 77.148 79.5623 76.892 79.5623 76.564C79.5623 76.22 79.3423 75.96 78.9023 75.784C78.4703 75.6 77.8583 75.508 77.0663 75.508ZM76.5743 72.016H77.5583V73.852H76.5743V72.016ZM83.5934 73.108H84.5414V75.748H86.8214V73.108H87.7454V80.224H83.5934V73.108ZM84.5414 76.552V79.408H86.8214V76.552H84.5414ZM91.4774 72.076H92.4374V82.936H91.4774V72.076ZM89.7374 76.372H91.8254V77.2H89.7374V76.372ZM89.0654 72.304H90.0134V82.384H89.0654V72.304ZM101.664 72.076H102.672V80.008H101.664V72.076ZM102.36 75.364H104.268V76.204H102.36V75.364ZM98.7004 72.916H99.7564C99.7564 73.852 99.5484 74.7 99.1324 75.46C98.7244 76.22 98.1404 76.88 97.3804 77.44C96.6204 78 95.7204 78.444 94.6804 78.772L94.2604 77.968C95.1724 77.68 95.9604 77.308 96.6244 76.852C97.2884 76.396 97.8004 75.872 98.1604 75.28C98.5204 74.688 98.7004 74.048 98.7004 73.36V72.916ZM94.7044 72.916H99.2164V73.744H94.7044V72.916ZM95.9044 81.88H103.14V82.696H95.9044V81.88ZM95.9044 79.204H96.9004V82.204H95.9044V79.204ZM108.804 72.868C109.372 72.868 109.872 72.976 110.304 73.192C110.744 73.4 111.088 73.696 111.336 74.08C111.584 74.464 111.708 74.912 111.708 75.424C111.708 75.928 111.584 76.376 111.336 76.768C111.088 77.152 110.744 77.452 110.304 77.668C109.872 77.876 109.372 77.98 108.804 77.98C108.244 77.98 107.744 77.876 107.304 77.668C106.864 77.452 106.516 77.152 106.26 76.768C106.012 76.376 105.888 75.928 105.888 75.424C105.888 74.912 106.012 74.464 106.26 74.08C106.516 73.696 106.864 73.4 107.304 73.192C107.744 72.976 108.244 72.868 108.804 72.868ZM108.804 73.732C108.436 73.732 108.104 73.804 107.808 73.948C107.52 74.084 107.292 74.28 107.124 74.536C106.956 74.792 106.872 75.088 106.872 75.424C106.872 75.76 106.956 76.056 107.124 76.312C107.292 76.568 107.52 76.768 107.808 76.912C108.104 77.048 108.436 77.116 108.804 77.116C109.18 77.116 109.512 77.048 109.8 76.912C110.088 76.768 110.316 76.568 110.484 76.312C110.652 76.056 110.736 75.76 110.736 75.424C110.736 75.088 110.652 74.792 110.484 74.536C110.316 74.28 110.088 74.084 109.8 73.948C109.512 73.804 109.18 73.732 108.804 73.732ZM113.136 72.076H114.132V82.948H113.136V72.076ZM105.479 80.572L105.348 79.732C106.012 79.732 106.74 79.728 107.532 79.72C108.324 79.704 109.14 79.672 109.98 79.624C110.828 79.568 111.644 79.48 112.428 79.36L112.512 80.092C111.696 80.244 110.868 80.356 110.028 80.428C109.196 80.492 108.392 80.532 107.616 80.548C106.84 80.564 106.127 80.572 105.479 80.572ZM120.218 73.24H121.214V79.6H120.218V73.24ZM120.218 79.324H120.914C121.546 79.324 122.166 79.304 122.774 79.264C123.39 79.216 124.038 79.12 124.718 78.976L124.862 79.828C124.15 79.98 123.478 80.08 122.846 80.128C122.222 80.168 121.578 80.188 120.914 80.188H120.218V79.324ZM127.97 72.076H128.93V82.936H127.97V72.076ZM123.242 75.724H125.942V76.54H123.242V75.724ZM125.666 72.34H126.614V82.384H125.666V72.34ZM132.001 77.932H139.453V78.736H132.001V77.932ZM130.741 80.704H140.581V81.532H130.741V80.704ZM132.001 73.012H139.345V73.828H133.009V78.172H132.001V73.012ZM132.697 75.424H139.105V76.228H132.697V75.424ZM144.72 78.136H145.716V82.6H144.72V78.136ZM149.688 72.088H150.696V82.936H149.688V72.088ZM141.864 78.628L141.732 77.788C142.42 77.788 143.164 77.784 143.964 77.776C144.772 77.76 145.596 77.728 146.436 77.68C147.276 77.632 148.088 77.552 148.872 77.44L148.932 78.184C148.124 78.32 147.304 78.42 146.472 78.484C145.64 78.548 144.832 78.588 144.048 78.604C143.264 78.62 142.536 78.628 141.864 78.628ZM147.24 79.492H149.952V80.272H147.24V79.492ZM145.272 72.616C145.808 72.616 146.28 72.708 146.688 72.892C147.096 73.068 147.416 73.316 147.648 73.636C147.88 73.948 147.996 74.32 147.996 74.752C147.996 75.184 147.88 75.56 147.648 75.88C147.416 76.2 147.096 76.448 146.688 76.624C146.28 76.8 145.808 76.888 145.272 76.888C144.744 76.888 144.272 76.8 143.856 76.624C143.448 76.448 143.128 76.2 142.896 75.88C142.664 75.56 142.548 75.184 142.548 74.752C142.548 74.32 142.664 73.948 142.896 73.636C143.128 73.316 143.448 73.068 143.856 72.892C144.272 72.708 144.744 72.616 145.272 72.616ZM145.272 73.384C144.92 73.384 144.608 73.444 144.336 73.564C144.072 73.676 143.864 73.836 143.712 74.044C143.56 74.252 143.484 74.488 143.484 74.752C143.484 75.024 143.56 75.264 143.712 75.472C143.864 75.68 144.072 75.84 144.336 75.952C144.608 76.064 144.92 76.12 145.272 76.12C145.624 76.12 145.932 76.064 146.196 75.952C146.46 75.84 146.668 75.68 146.82 75.472C146.972 75.264 147.048 75.024 147.048 74.752C147.048 74.488 146.972 74.252 146.82 74.044C146.668 73.836 146.46 73.676 146.196 73.564C145.932 73.444 145.624 73.384 145.272 73.384ZM157.499 72.82H158.543C158.543 73.756 158.363 74.6 158.003 75.352C157.643 76.104 157.091 76.76 156.347 77.32C155.611 77.872 154.663 78.32 153.503 78.664L153.119 77.86C153.895 77.636 154.559 77.368 155.111 77.056C155.663 76.744 156.115 76.392 156.467 76C156.819 75.6 157.079 75.168 157.247 74.704C157.415 74.24 157.499 73.744 157.499 73.216V72.82ZM153.587 72.82H158.039V73.624H153.587V72.82ZM157.367 74.824V75.52L153.215 75.832L153.047 75.016L157.367 74.824ZM160.715 72.088H161.711V78.604H160.715V72.088ZM158.135 78.76C158.887 78.76 159.531 78.844 160.067 79.012C160.611 79.18 161.031 79.416 161.327 79.72C161.623 80.024 161.771 80.396 161.771 80.836C161.771 81.276 161.623 81.652 161.327 81.964C161.031 82.276 160.611 82.512 160.067 82.672C159.531 82.832 158.887 82.912 158.135 82.912C157.383 82.912 156.735 82.832 156.191 82.672C155.647 82.512 155.227 82.276 154.931 81.964C154.635 81.652 154.487 81.276 154.487 80.836C154.487 80.396 154.635 80.024 154.931 79.72C155.227 79.416 155.647 79.18 156.191 79.012C156.735 78.844 157.383 78.76 158.135 78.76ZM158.135 79.552C157.583 79.552 157.107 79.604 156.707 79.708C156.315 79.812 156.011 79.96 155.795 80.152C155.587 80.336 155.483 80.564 155.483 80.836C155.483 81.1 155.587 81.332 155.795 81.532C156.011 81.724 156.315 81.872 156.707 81.976C157.107 82.08 157.583 82.132 158.135 82.132C158.679 82.132 159.147 82.08 159.539 81.976C159.939 81.872 160.243 81.724 160.451 81.532C160.667 81.332 160.775 81.1 160.775 80.836C160.775 80.564 160.667 80.336 160.451 80.152C160.243 79.96 159.939 79.812 159.539 79.708C159.147 79.604 158.679 79.552 158.135 79.552ZM172.405 77.092H176.305V77.908H172.405V77.092ZM167.233 80.716H177.073V81.556H167.233V80.716ZM171.625 78.448H172.609V81.112H171.625V78.448ZM172.405 73.084H176.197V73.912H173.401V77.524H172.405V73.084ZM168.073 73.108H171.745V73.924H169.069V77.488H168.073V73.108ZM168.073 77.08H168.685C169.037 77.08 169.381 77.072 169.717 77.056C170.061 77.04 170.409 77.012 170.761 76.972C171.113 76.924 171.473 76.86 171.841 76.78L171.937 77.608C171.545 77.696 171.169 77.764 170.809 77.812C170.449 77.852 170.097 77.88 169.753 77.896C169.409 77.904 169.053 77.908 168.685 77.908H168.073V77.08ZM185.7 72.088H186.696V80.224H185.7V72.088ZM186.384 75.652H188.292V76.48H186.384V75.652ZM178.296 73.408H184.704V74.212H178.296V73.408ZM181.5 74.8C182.012 74.8 182.464 74.888 182.856 75.064C183.248 75.232 183.552 75.468 183.768 75.772C183.984 76.068 184.092 76.42 184.092 76.828C184.092 77.236 183.984 77.592 183.768 77.896C183.552 78.192 183.248 78.424 182.856 78.592C182.464 78.76 182.012 78.844 181.5 78.844C180.988 78.844 180.536 78.76 180.144 78.592C179.752 78.424 179.444 78.192 179.22 77.896C179.004 77.592 178.896 77.236 178.896 76.828C178.896 76.42 179.004 76.068 179.22 75.772C179.444 75.468 179.752 75.232 180.144 75.064C180.536 74.888 180.988 74.8 181.5 74.8ZM181.5 75.58C181.012 75.58 180.616 75.696 180.312 75.928C180.008 76.152 179.856 76.452 179.856 76.828C179.856 77.204 180.008 77.504 180.312 77.728C180.616 77.952 181.012 78.064 181.5 78.064C181.996 78.064 182.392 77.952 182.688 77.728C182.992 77.504 183.144 77.204 183.144 76.828C183.144 76.452 182.992 76.152 182.688 75.928C182.392 75.696 181.996 75.58 181.5 75.58ZM181.008 72.088H182.004V73.816H181.008V72.088ZM179.94 81.88H187.176V82.696H179.94V81.88ZM179.94 79.576H180.924V82.216H179.94V79.576ZM200.102 72.076H201.098V78.484H200.102V72.076ZM200.678 74.848H202.682V75.688H200.678V74.848ZM194.066 78.976H201.098V81.172H195.074V82.312H194.09V80.512H200.114V79.672H194.066V78.976ZM194.09 82.108H201.506V82.816H194.09V82.108ZM195.53 76.528H196.514V77.908H195.53V76.528ZM192.746 78.232L192.626 77.5C193.266 77.5 193.974 77.496 194.75 77.488C195.526 77.472 196.318 77.444 197.126 77.404C197.934 77.356 198.71 77.28 199.454 77.176L199.526 77.824C198.758 77.952 197.97 78.048 197.162 78.112C196.362 78.168 195.582 78.204 194.822 78.22C194.07 78.228 193.378 78.232 192.746 78.232ZM192.902 72.904H199.13V73.612H192.902V72.904ZM196.01 73.96C196.778 73.96 197.39 74.084 197.846 74.332C198.31 74.58 198.542 74.928 198.542 75.376C198.542 75.832 198.31 76.188 197.846 76.444C197.39 76.692 196.778 76.816 196.01 76.816C195.242 76.816 194.626 76.692 194.162 76.444C193.706 76.188 193.478 75.832 193.478 75.376C193.478 74.928 193.706 74.58 194.162 74.332C194.626 74.084 195.242 73.96 196.01 73.96ZM196.01 74.62C195.522 74.62 195.134 74.688 194.846 74.824C194.566 74.96 194.426 75.144 194.426 75.376C194.426 75.616 194.566 75.808 194.846 75.952C195.134 76.088 195.522 76.156 196.01 76.156C196.498 76.156 196.882 76.088 197.162 75.952C197.45 75.808 197.594 75.616 197.594 75.376C197.594 75.144 197.45 74.96 197.162 74.824C196.882 74.688 196.498 74.62 196.01 74.62ZM195.53 71.98H196.514V73.276H195.53V71.98ZM206.461 72.688H207.289V73.804C207.289 74.508 207.161 75.156 206.905 75.748C206.657 76.34 206.305 76.86 205.849 77.308C205.401 77.748 204.865 78.084 204.241 78.316L203.713 77.512C204.273 77.312 204.757 77.028 205.165 76.66C205.573 76.292 205.889 75.864 206.113 75.376C206.345 74.88 206.461 74.356 206.461 73.804V72.688ZM206.641 72.688H207.445V73.768C207.445 74.28 207.557 74.764 207.781 75.22C208.005 75.676 208.313 76.08 208.705 76.432C209.105 76.776 209.569 77.036 210.097 77.212L209.557 77.992C208.973 77.768 208.461 77.452 208.021 77.044C207.581 76.636 207.241 76.152 207.001 75.592C206.761 75.032 206.641 74.424 206.641 73.768V72.688ZM211.657 72.076H212.653V78.496H211.657V72.076ZM209.077 78.82C210.197 78.82 211.077 79 211.717 79.36C212.365 79.72 212.689 80.224 212.689 80.872C212.689 81.512 212.365 82.012 211.717 82.372C211.077 82.732 210.197 82.912 209.077 82.912C207.957 82.912 207.073 82.732 206.425 82.372C205.785 82.012 205.465 81.512 205.465 80.872C205.465 80.224 205.785 79.72 206.425 79.36C207.073 79 207.957 78.82 209.077 78.82ZM209.077 79.612C208.533 79.612 208.065 79.664 207.673 79.768C207.281 79.864 206.977 80.008 206.761 80.2C206.553 80.384 206.449 80.608 206.449 80.872C206.449 81.128 206.553 81.352 206.761 81.544C206.977 81.728 207.281 81.872 207.673 81.976C208.065 82.072 208.533 82.12 209.077 82.12C209.629 82.12 210.097 82.072 210.481 81.976C210.873 81.872 211.173 81.728 211.381 81.544C211.597 81.352 211.705 81.128 211.705 80.872C211.705 80.608 211.597 80.384 211.381 80.2C211.173 80.008 210.873 79.864 210.481 79.768C210.097 79.664 209.629 79.612 209.077 79.612ZM209.293 74.368H211.861V75.196H209.293V74.368ZM217.572 78.544H218.568V80.308H217.572V78.544ZM222.132 72.076H223.128V82.936H222.132V72.076ZM222.816 76.684H224.82V77.524H222.816V76.684ZM214.788 80.872L214.632 80.032C215.288 80.032 216 80.028 216.768 80.02C217.544 80.004 218.336 79.972 219.144 79.924C219.952 79.876 220.732 79.8 221.484 79.696L221.556 80.428C220.78 80.564 219.988 80.664 219.18 80.728C218.38 80.792 217.604 80.832 216.852 80.848C216.108 80.864 215.42 80.872 214.788 80.872ZM214.824 73.396H221.304V74.2H214.824V73.396ZM218.076 74.824C218.58 74.824 219.024 74.908 219.408 75.076C219.792 75.244 220.092 75.48 220.308 75.784C220.524 76.08 220.632 76.432 220.632 76.84C220.632 77.24 220.524 77.592 220.308 77.896C220.092 78.2 219.792 78.436 219.408 78.604C219.024 78.764 218.58 78.844 218.076 78.844C217.572 78.844 217.124 78.764 216.732 78.604C216.348 78.436 216.048 78.2 215.832 77.896C215.624 77.592 215.52 77.24 215.52 76.84C215.52 76.432 215.624 76.08 215.832 75.784C216.048 75.48 216.348 75.244 216.732 75.076C217.124 74.908 217.572 74.824 218.076 74.824ZM218.076 75.604C217.588 75.604 217.196 75.716 216.9 75.94C216.604 76.164 216.456 76.464 216.456 76.84C216.456 77.208 216.604 77.504 216.9 77.728C217.196 77.952 217.588 78.064 218.076 78.064C218.556 78.064 218.944 77.952 219.24 77.728C219.536 77.504 219.684 77.208 219.684 76.84C219.684 76.464 219.536 76.164 219.24 75.94C218.944 75.716 218.556 75.604 218.076 75.604ZM217.572 72.1H218.568V73.924H217.572V72.1ZM230.222 74.92H235.43V75.7H230.222V74.92ZM230.222 72.544H235.31V73.312H231.242V75.28H230.222V72.544ZM232.286 75.364H233.294V77.176H232.286V75.364ZM237.086 72.088H238.07V77.92H237.086V72.088ZM229.37 77.668L229.238 76.864C229.942 76.864 230.69 76.856 231.482 76.84C232.282 76.824 233.086 76.792 233.894 76.744C234.71 76.696 235.494 76.632 236.246 76.552L236.294 77.248C235.534 77.36 234.75 77.448 233.942 77.512C233.134 77.576 232.342 77.62 231.566 77.644C230.79 77.66 230.058 77.668 229.37 77.668ZM230.918 78.412H238.07V80.944H231.914V82.336H230.942V80.188H237.098V79.204H230.918V78.412ZM230.942 82.012H238.442V82.816H230.942V82.012ZM251.524 72.088H252.52V79.42H251.524V72.088ZM249.196 75.136H251.728V75.964H249.196V75.136ZM248.104 72.94H249.148C249.148 73.868 248.952 74.708 248.56 75.46C248.168 76.204 247.6 76.852 246.856 77.404C246.12 77.956 245.236 78.4 244.204 78.736L243.772 77.944C244.692 77.656 245.472 77.288 246.112 76.84C246.76 76.392 247.252 75.872 247.588 75.28C247.932 74.688 248.104 74.036 248.104 73.324V72.94ZM244.3 72.94H248.812V73.756H244.3V72.94ZM248.524 78.496H249.376V78.988C249.376 79.5 249.264 79.976 249.04 80.416C248.824 80.848 248.524 81.232 248.14 81.568C247.764 81.896 247.332 82.172 246.844 82.396C246.356 82.628 245.84 82.796 245.296 82.9L244.9 82.108C245.38 82.028 245.836 81.896 246.268 81.712C246.708 81.52 247.096 81.288 247.432 81.016C247.768 80.744 248.032 80.436 248.224 80.092C248.424 79.748 248.524 79.38 248.524 78.988V78.496ZM248.656 78.496H249.508V78.988C249.508 79.372 249.604 79.736 249.796 80.08C249.988 80.416 250.252 80.72 250.588 80.992C250.924 81.264 251.308 81.492 251.74 81.676C252.18 81.86 252.636 81.996 253.108 82.084L252.7 82.876C252.156 82.772 251.64 82.608 251.152 82.384C250.672 82.16 250.244 81.884 249.868 81.556C249.492 81.22 249.196 80.836 248.98 80.404C248.764 79.972 248.656 79.5 248.656 78.988V78.496ZM265.434 72.076H266.43V77.872H265.434V72.076ZM266.154 74.596H268.026V75.424H266.154V74.596ZM262.434 72.844H263.526C263.526 73.748 263.322 74.548 262.914 75.244C262.514 75.94 261.934 76.528 261.174 77.008C260.422 77.48 259.514 77.84 258.45 78.088L258.042 77.272C259.002 77.064 259.806 76.772 260.454 76.396C261.102 76.012 261.594 75.564 261.93 75.052C262.266 74.54 262.434 73.984 262.434 73.384V72.844ZM258.498 72.844H262.998V73.648H258.498V72.844ZM259.59 78.364H266.478V79.12H260.586V82.42H259.59V78.364ZM259.59 82.024H266.73V82.792H259.59V82.024ZM260.25 80.176H266.358V80.92H260.25V80.176ZM271.925 72.916C272.461 72.916 272.933 73.072 273.341 73.384C273.749 73.688 274.069 74.124 274.301 74.692C274.533 75.26 274.649 75.928 274.649 76.696C274.649 77.464 274.533 78.132 274.301 78.7C274.069 79.268 273.749 79.708 273.341 80.02C272.933 80.332 272.461 80.488 271.925 80.488C271.397 80.488 270.925 80.332 270.509 80.02C270.101 79.708 269.781 79.268 269.549 78.7C269.317 78.132 269.201 77.464 269.201 76.696C269.201 75.928 269.317 75.26 269.549 74.692C269.781 74.124 270.101 73.688 270.509 73.384C270.925 73.072 271.397 72.916 271.925 72.916ZM271.925 73.804C271.581 73.804 271.273 73.924 271.001 74.164C270.737 74.396 270.529 74.732 270.377 75.172C270.225 75.604 270.149 76.112 270.149 76.696C270.149 77.28 270.225 77.792 270.377 78.232C270.529 78.664 270.737 79 271.001 79.24C271.273 79.48 271.585 79.6 271.937 79.6C272.281 79.6 272.585 79.48 272.849 79.24C273.121 79 273.329 78.664 273.473 78.232C273.625 77.792 273.701 77.28 273.701 76.696C273.701 76.112 273.625 75.604 273.473 75.172C273.329 74.732 273.121 74.396 272.849 74.164C272.585 73.924 272.277 73.804 271.925 73.804ZM276.389 72.076H277.385V82.936H276.389V72.076ZM277.157 76.408H279.161V77.248H277.157V76.408ZM291.367 72.076H292.363V82.936H291.367V72.076ZM288.187 73.252H289.171C289.171 74.036 289.075 74.792 288.883 75.52C288.699 76.248 288.407 76.94 288.007 77.596C287.607 78.244 287.087 78.848 286.447 79.408C285.807 79.968 285.031 80.468 284.119 80.908L283.591 80.104C284.639 79.6 285.503 79.012 286.183 78.34C286.863 77.668 287.367 76.92 287.695 76.096C288.023 75.264 288.187 74.368 288.187 73.408V73.252ZM284.095 73.252H288.607V74.056H284.095V73.252ZM302.754 72.076H303.702V82.936H302.754V72.076ZM300.918 76.432H303.006V77.248H300.918V76.432ZM300.294 72.316H301.218V82.372H300.294V72.316ZM294.882 79.42H295.59C296.126 79.42 296.61 79.416 297.042 79.408C297.482 79.392 297.898 79.36 298.29 79.312C298.69 79.264 299.098 79.196 299.514 79.108L299.61 79.936C299.178 80.024 298.758 80.092 298.35 80.14C297.95 80.188 297.526 80.22 297.078 80.236C296.638 80.252 296.142 80.26 295.59 80.26H294.882V79.42ZM294.882 73.396H298.914V74.212H295.878V79.804H294.882V73.396ZM308.634 75.76H309.63V77.548H308.634V75.76ZM313.434 72.088H314.43V78.328H313.434V72.088ZM305.718 78.076L305.574 77.26C306.238 77.26 306.962 77.256 307.746 77.248C308.538 77.232 309.346 77.2 310.17 77.152C311.002 77.096 311.798 77.016 312.558 76.912L312.618 77.62C311.834 77.756 311.034 77.856 310.218 77.92C309.402 77.984 308.61 78.024 307.842 78.04C307.074 78.056 306.366 78.068 305.718 78.076ZM306.546 75.256H311.754V76.048H306.546V75.256ZM306.546 72.616H311.658V73.432H307.542V75.556H306.546V72.616ZM307.326 78.82H308.31V79.96H313.458V78.82H314.43V82.792H307.326V78.82ZM308.31 80.728V81.976H313.458V80.728H308.31ZM324.473 72.076H325.457V82.936H324.473V72.076ZM317.261 73.144H318.245V79.864H317.261V73.144ZM317.261 79.276H318.149C318.981 79.276 319.825 79.24 320.681 79.168C321.545 79.088 322.433 78.956 323.345 78.772L323.477 79.612C322.533 79.812 321.625 79.952 320.753 80.032C319.881 80.104 319.013 80.14 318.149 80.14H317.261V79.276ZM334.96 72.076H335.956V82.948H334.96V72.076ZM335.728 76.36H337.732V77.188H335.728V76.36ZM328.084 79.396H328.936C329.6 79.396 330.208 79.388 330.76 79.372C331.32 79.348 331.856 79.308 332.368 79.252C332.888 79.196 333.416 79.12 333.952 79.024L334.072 79.876C333.512 79.972 332.968 80.048 332.44 80.104C331.92 80.16 331.376 80.196 330.808 80.212C330.24 80.228 329.616 80.236 328.936 80.236H328.084V79.396ZM328.084 73.132H333.112V73.948H329.068V79.78H328.084V73.132ZM340.305 73.2727L340.219 79.5455H339.231L339.146 73.2727H340.305ZM339.725 82.0682C339.515 82.0682 339.335 81.9929 339.184 81.8423C339.033 81.6918 338.958 81.5114 338.958 81.3011C338.958 81.0909 339.033 80.9105 339.184 80.7599C339.335 80.6094 339.515 80.5341 339.725 80.5341C339.935 80.5341 340.116 80.6094 340.266 80.7599C340.417 80.9105 340.492 81.0909 340.492 81.3011C340.492 81.4403 340.457 81.5682 340.386 81.6847C340.317 81.8011 340.225 81.8949 340.109 81.9659C339.995 82.0341 339.867 82.0682 339.725 82.0682Z" fill="white"/>
</g>
<defs>
<filter id="filter0_d_512_3464" x="0" y="0" width="362" height="102" filterUnits="userSpaceOnUse" color-interpolation-filters="sRGB">
<feFlood flood-opacity="0" result="BackgroundImageFix"/>
<feColorMatrix in="SourceAlpha" type="matrix" values="0 0 0 0 0 0 0 0 0 0 0 0 0 0 0 0 0 0 127 0" result="hardAlpha"/>
<feOffset dy="4"/>
<feGaussianBlur stdDeviation="2"/>
<feComposite in2="hardAlpha" operator="out"/>
<feColorMatrix type="matrix" values="0 0 0 0 0 0 0 0 0 0 0 0 0 0 0 0 0 0 0.25 0"/>
<feBlend mode="normal" in2="BackgroundImageFix" result="effect1_dropShadow_512_3464"/>
<feBlend mode="normal" in="SourceGraphic" in2="effect1_dropShadow_512_3464" result="shape"/>
</filter>
</defs>
</svg>
