<svg width="362" height="102" viewBox="0 0 362 102" fill="none" xmlns="http://www.w3.org/2000/svg">
<g filter="url(#filter0_d_512_3417)">
<rect x="5" y="1" width="352" height="92" rx="8" fill="#222127" shape-rendering="crispEdges"/>
<rect x="5" y="1" width="352" height="92" rx="8" stroke="#49494C" stroke-width="2" shape-rendering="crispEdges"/>
<path d="M17.656 17.58H19.336C19.336 18.564 19.132 19.444 18.724 20.22C18.316 20.988 17.728 21.64 16.96 22.176C16.192 22.704 15.252 23.112 14.14 23.4L13.54 22.14C14.46 21.916 15.224 21.616 15.832 21.24C16.44 20.864 16.896 20.432 17.2 19.944C17.504 19.448 17.656 18.928 17.656 18.384V17.58ZM14.176 17.58H18.688V18.84H14.176V17.58ZM21.124 16.944H22.72V23.136H21.124V16.944ZM15.364 23.616H22.72V27.948H15.364V23.616ZM21.148 24.864H16.936V26.688H21.148V24.864ZM24.5431 22.176H34.5871V23.436H24.5431V22.176ZM28.7671 20.508H30.3631V22.668H28.7671V20.508ZM25.7551 20.004H33.4471V21.252H25.7551V20.004ZM25.7551 17.424H33.3871V18.684H27.3391V20.796H25.7551V17.424ZM29.5231 23.988C30.7231 23.988 31.6671 24.168 32.3551 24.528C33.0431 24.88 33.3871 25.384 33.3871 26.04C33.3871 26.688 33.0431 27.188 32.3551 27.54C31.6671 27.9 30.7231 28.08 29.5231 28.08C28.3231 28.08 27.3791 27.9 26.6911 27.54C26.0111 27.188 25.6711 26.688 25.6711 26.04C25.6711 25.384 26.0111 24.88 26.6911 24.528C27.3791 24.168 28.3231 23.988 29.5231 23.988ZM29.5231 25.2C29.0271 25.2 28.6111 25.232 28.2751 25.296C27.9471 25.352 27.6991 25.444 27.5311 25.572C27.3631 25.692 27.2791 25.844 27.2791 26.028C27.2791 26.22 27.3631 26.38 27.5311 26.508C27.6991 26.628 27.9471 26.72 28.2751 26.784C28.6111 26.84 29.0271 26.868 29.5231 26.868C30.0191 26.868 30.4311 26.84 30.7591 26.784C31.0951 26.72 31.3471 26.628 31.5151 26.508C31.6831 26.38 31.7671 26.22 31.7671 26.028C31.7671 25.844 31.6831 25.692 31.5151 25.572C31.3471 25.444 31.0951 25.352 30.7591 25.296C30.4311 25.232 30.0191 25.2 29.5231 25.2ZM36.7461 17.568H43.7181V18.852H36.7461V17.568ZM35.5701 22.344H45.6261V23.628H35.5701V22.344ZM37.8141 23.256H39.4101V28.08H37.8141V23.256ZM42.7701 17.568H44.3421V18.276C44.3421 18.772 44.3261 19.38 44.2941 20.1C44.2621 20.812 44.1501 21.676 43.9581 22.692L42.3741 22.596C42.5741 21.612 42.6901 20.768 42.7221 20.064C42.7541 19.352 42.7701 18.756 42.7701 18.276V17.568ZM41.6661 23.256H43.2621V28.08H41.6661V23.256Z" fill="#F7F8F8"/>
<path d="M52.624 18.228H59.032V19.032H52.624V18.228ZM55.828 19.596C56.34 19.596 56.792 19.676 57.184 19.836C57.576 19.996 57.88 20.224 58.096 20.52C58.312 20.808 58.42 21.152 58.42 21.552C58.42 21.952 58.312 22.296 58.096 22.584C57.88 22.872 57.576 23.1 57.184 23.268C56.792 23.428 56.34 23.508 55.828 23.508C55.316 23.508 54.864 23.428 54.472 23.268C54.08 23.1 53.772 22.872 53.548 22.584C53.332 22.296 53.224 21.952 53.224 21.552C53.224 21.152 53.332 20.808 53.548 20.52C53.772 20.224 54.08 19.996 54.472 19.836C54.864 19.676 55.316 19.596 55.828 19.596ZM55.828 20.364C55.332 20.364 54.932 20.472 54.628 20.688C54.332 20.896 54.184 21.184 54.184 21.552C54.184 21.912 54.332 22.2 54.628 22.416C54.932 22.624 55.332 22.728 55.828 22.728C56.316 22.728 56.712 22.624 57.016 22.416C57.32 22.2 57.472 21.912 57.472 21.552C57.472 21.184 57.32 20.896 57.016 20.688C56.72 20.472 56.324 20.364 55.828 20.364ZM60.028 17.076H61.024V23.868H60.028V17.076ZM60.748 20.076H62.62V20.904H60.748V20.076ZM53.968 24.456H61.024V27.936H60.028V25.272H53.968V24.456ZM55.336 17.028H56.332V18.672H55.336V17.028ZM69.4231 19.788H71.8351V20.616H69.4231V19.788ZM71.5711 17.076H72.5671V23.424H71.5711V17.076ZM65.5231 23.964H72.5671V27.792H65.5231V23.964ZM71.5951 24.756H66.5071V26.976H71.5951V24.756ZM66.3991 18.108H67.2151V18.984C67.2151 19.64 67.0871 20.26 66.8311 20.844C66.5831 21.42 66.2311 21.924 65.7751 22.356C65.3191 22.78 64.7911 23.104 64.1911 23.328L63.6751 22.536C64.0751 22.392 64.4391 22.2 64.7671 21.96C65.1031 21.72 65.3951 21.444 65.6431 21.132C65.8911 20.812 66.0791 20.472 66.2071 20.112C66.3351 19.744 66.3991 19.368 66.3991 18.984V18.108ZM66.5911 18.108H67.4071V18.984C67.4071 19.448 67.5151 19.9 67.7311 20.34C67.9471 20.772 68.2551 21.16 68.6551 21.504C69.0551 21.84 69.5151 22.104 70.0351 22.296L69.5311 23.088C68.9391 22.872 68.4231 22.56 67.9831 22.152C67.5431 21.736 67.1991 21.256 66.9511 20.712C66.7111 20.16 66.5911 19.584 66.5911 18.984V18.108ZM63.9871 17.772H69.7831V18.588H63.9871V17.772ZM82.0221 17.076H83.0181V27.924H82.0221V17.076ZM82.7541 21.48H84.7461V22.308H82.7541V21.48ZM79.2501 18.24H80.2221C80.2221 19.272 80.0541 20.26 79.7181 21.204C79.3821 22.14 78.8541 23.008 78.1341 23.808C77.4141 24.6 76.4661 25.288 75.2901 25.872L74.7381 25.104C75.7461 24.6 76.5821 24.012 77.2461 23.34C77.9181 22.66 78.4181 21.908 78.7461 21.084C79.0821 20.252 79.2501 19.356 79.2501 18.396V18.24ZM75.2421 18.24H79.7541V19.068H75.2421V18.24ZM90.6852 23.892C91.4212 23.892 92.0532 23.972 92.5812 24.132C93.1172 24.292 93.5292 24.52 93.8172 24.816C94.1052 25.112 94.2492 25.472 94.2492 25.896C94.2492 26.32 94.1052 26.684 93.8172 26.988C93.5292 27.292 93.1172 27.524 92.5812 27.684C92.0532 27.844 91.4212 27.924 90.6852 27.924C89.9492 27.924 89.3132 27.844 88.7772 27.684C88.2412 27.524 87.8292 27.292 87.5412 26.988C87.2532 26.684 87.1092 26.32 87.1092 25.896C87.1092 25.472 87.2532 25.112 87.5412 24.816C87.8292 24.52 88.2412 24.292 88.7772 24.132C89.3132 23.972 89.9492 23.892 90.6852 23.892ZM90.6852 24.684C90.1492 24.684 89.6852 24.732 89.2932 24.828C88.9092 24.924 88.6132 25.064 88.4052 25.248C88.1972 25.424 88.0932 25.64 88.0932 25.896C88.0932 26.16 88.1972 26.384 88.4052 26.568C88.6132 26.752 88.9092 26.892 89.2932 26.988C89.6852 27.084 90.1492 27.132 90.6852 27.132C91.2212 27.132 91.6812 27.084 92.0652 26.988C92.4492 26.892 92.7452 26.752 92.9532 26.568C93.1612 26.384 93.2652 26.16 93.2652 25.896C93.2652 25.64 93.1612 25.424 92.9532 25.248C92.7452 25.064 92.4492 24.924 92.0652 24.828C91.6812 24.732 91.2212 24.684 90.6852 24.684ZM93.1452 17.076H94.1412V23.592H93.1452V17.076ZM93.8652 19.8H95.7372V20.64H93.8652V19.8ZM86.1612 17.76H87.1452V19.392H90.2052V17.76H91.1892V22.764H86.1612V17.76ZM87.1452 20.184V21.96H90.2052V20.184H87.1452ZM98.6705 25.8068L98.6065 26.2713C98.5639 26.6122 98.4915 26.9673 98.3892 27.3366C98.2898 27.7088 98.1861 28.054 98.0781 28.3722C97.973 28.6903 97.8864 28.9432 97.8182 29.1307H96.9148C96.9517 28.9545 97.0028 28.7159 97.0682 28.4148C97.1335 28.1165 97.1974 27.7827 97.2599 27.4134C97.3224 27.044 97.3693 26.6676 97.4006 26.2841L97.4432 25.8068H98.6705ZM103.248 25.704H113.088V26.544H103.248V25.704ZM104.112 18.168H112.164V18.984H104.112V18.168ZM104.136 22.74H112.14V23.556H104.136V22.74ZM105.792 18.912H106.788V22.836H105.792V18.912ZM109.488 18.912H110.472V22.836H109.488V18.912ZM114.276 23.268H124.116V24.084H114.276V23.268ZM115.572 27.012H123.096V27.828H115.572V27.012ZM115.572 24.816H116.568V27.252H115.572V24.816ZM118.704 21.708H119.688V23.628H118.704V21.708ZM115.524 17.424H122.856V20.124H116.532V21.576H115.548V19.38H121.872V18.216H115.524V17.424ZM115.548 21.312H123.084V22.092H115.548V21.312ZM126.587 22.932H134.039V23.736H126.587V22.932ZM125.327 25.704H135.167V26.532H125.327V25.704ZM126.587 18.012H133.931V18.828H127.595V23.172H126.587V18.012ZM127.283 20.424H133.691V21.228H127.283V20.424ZM140.974 20.172H142.822V21H140.974V20.172ZM138.934 17.928C139.414 17.928 139.838 18.04 140.206 18.264C140.574 18.488 140.866 18.8 141.082 19.2C141.298 19.592 141.406 20.048 141.406 20.568C141.406 21.08 141.298 21.536 141.082 21.936C140.866 22.328 140.574 22.636 140.206 22.86C139.838 23.084 139.414 23.196 138.934 23.196C138.454 23.196 138.03 23.084 137.662 22.86C137.294 22.636 137.002 22.328 136.786 21.936C136.578 21.536 136.474 21.08 136.474 20.568C136.474 20.048 136.578 19.592 136.786 19.2C137.002 18.8 137.294 18.488 137.662 18.264C138.03 18.04 138.454 17.928 138.934 17.928ZM138.934 18.78C138.638 18.78 138.37 18.856 138.13 19.008C137.898 19.16 137.714 19.372 137.578 19.644C137.442 19.908 137.374 20.216 137.374 20.568C137.374 20.912 137.442 21.22 137.578 21.492C137.714 21.756 137.898 21.964 138.13 22.116C138.37 22.268 138.638 22.344 138.934 22.344C139.23 22.344 139.498 22.268 139.738 22.116C139.978 21.964 140.166 21.756 140.302 21.492C140.438 21.22 140.506 20.912 140.506 20.568C140.506 20.216 140.438 19.908 140.302 19.644C140.166 19.372 139.978 19.16 139.738 19.008C139.498 18.856 139.23 18.78 138.934 18.78ZM144.562 17.076H145.51V25.2H144.562V17.076ZM142.51 17.292H143.446V24.888H142.51V17.292ZM138.43 26.88H145.834V27.696H138.43V26.88ZM138.43 24.156H139.426V27.252H138.43V24.156ZM148.653 22.284H156.105V23.1H148.653V22.284ZM147.405 25.632H157.245V26.46H147.405V25.632ZM148.653 18.084H155.997V18.9H149.637V22.644H148.653V18.084Z" fill="#8A8F98"/>
<path d="M21.484 42.076H22.48V52.948H21.484V42.076ZM16.756 42.916C17.292 42.916 17.764 43.072 18.172 43.384C18.588 43.688 18.912 44.124 19.144 44.692C19.384 45.26 19.504 45.928 19.504 46.696C19.504 47.464 19.384 48.132 19.144 48.7C18.912 49.268 18.588 49.708 18.172 50.02C17.764 50.332 17.292 50.488 16.756 50.488C16.22 50.488 15.744 50.332 15.328 50.02C14.912 49.708 14.584 49.268 14.344 48.7C14.112 48.132 13.996 47.464 13.996 46.696C13.996 45.928 14.112 45.26 14.344 44.692C14.584 44.124 14.912 43.688 15.328 43.384C15.744 43.072 16.22 42.916 16.756 42.916ZM16.756 43.804C16.396 43.804 16.08 43.924 15.808 44.164C15.544 44.396 15.336 44.732 15.184 45.172C15.032 45.604 14.956 46.112 14.956 46.696C14.956 47.28 15.032 47.792 15.184 48.232C15.336 48.664 15.544 49 15.808 49.24C16.08 49.48 16.396 49.6 16.756 49.6C17.108 49.6 17.416 49.48 17.68 49.24C17.952 49 18.164 48.664 18.316 48.232C18.468 47.792 18.544 47.28 18.544 46.696C18.544 46.112 18.468 45.604 18.316 45.172C18.164 44.732 17.952 44.396 17.68 44.164C17.416 43.924 17.108 43.804 16.756 43.804ZM28.0141 47.428H37.8301V48.232H28.0141V47.428ZM32.4301 45.688H33.4021V47.764H32.4301V45.688ZM29.2501 45.376H36.6781V46.18H29.2501V45.376ZM29.2501 42.58H36.6061V43.372H30.2341V45.856H29.2501V42.58ZM32.9101 49.012C34.0701 49.012 34.9781 49.184 35.6341 49.528C36.2901 49.864 36.6181 50.344 36.6181 50.968C36.6181 51.592 36.2901 52.072 35.6341 52.408C34.9781 52.752 34.0701 52.924 32.9101 52.924C31.7501 52.924 30.8381 52.752 30.1741 52.408C29.5181 52.072 29.1901 51.592 29.1901 50.968C29.1901 50.344 29.5181 49.864 30.1741 49.528C30.8381 49.184 31.7501 49.012 32.9101 49.012ZM32.8981 49.792C32.3381 49.792 31.8541 49.84 31.4461 49.936C31.0461 50.024 30.7381 50.156 30.5221 50.332C30.3061 50.5 30.1981 50.712 30.1981 50.968C30.1981 51.216 30.3061 51.428 30.5221 51.604C30.7381 51.78 31.0461 51.912 31.4461 52C31.8541 52.096 32.3381 52.144 32.8981 52.144C33.4741 52.144 33.9621 52.096 34.3621 52C34.7701 51.912 35.0821 51.78 35.2981 51.604C35.5141 51.428 35.6221 51.216 35.6221 50.968C35.6221 50.712 35.5141 50.5 35.2981 50.332C35.0821 50.156 34.7701 50.024 34.3621 49.936C33.9621 49.84 33.4741 49.792 32.8981 49.792ZM41.9331 42.916C42.4691 42.916 42.9411 43.072 43.3491 43.384C43.7571 43.688 44.0771 44.124 44.3091 44.692C44.5411 45.26 44.6571 45.928 44.6571 46.696C44.6571 47.464 44.5411 48.132 44.3091 48.7C44.0771 49.268 43.7571 49.708 43.3491 50.02C42.9411 50.332 42.4691 50.488 41.9331 50.488C41.4051 50.488 40.9331 50.332 40.5171 50.02C40.1091 49.708 39.7891 49.268 39.5571 48.7C39.3251 48.132 39.2091 47.464 39.2091 46.696C39.2091 45.928 39.3251 45.26 39.5571 44.692C39.7891 44.124 40.1091 43.688 40.5171 43.384C40.9331 43.072 41.4051 42.916 41.9331 42.916ZM41.9331 43.804C41.5891 43.804 41.2811 43.924 41.0091 44.164C40.7451 44.396 40.5371 44.732 40.3851 45.172C40.2331 45.604 40.1571 46.112 40.1571 46.696C40.1571 47.28 40.2331 47.792 40.3851 48.232C40.5371 48.664 40.7451 49 41.0091 49.24C41.2811 49.48 41.5931 49.6 41.9451 49.6C42.2891 49.6 42.5931 49.48 42.8571 49.24C43.1291 49 43.3371 48.664 43.4811 48.232C43.6331 47.792 43.7091 47.28 43.7091 46.696C43.7091 46.112 43.6331 45.604 43.4811 45.172C43.3371 44.732 43.1291 44.396 42.8571 44.164C42.5931 43.924 42.2851 43.804 41.9331 43.804ZM46.3971 42.076H47.3931V52.936H46.3971V42.076ZM47.1651 46.408H49.1691V47.248H47.1651V46.408ZM58.0002 42.076H58.9842V52.948H58.0002V42.076ZM50.7162 49.492H51.6162C52.2322 49.492 52.8242 49.484 53.3922 49.468C53.9682 49.444 54.5482 49.404 55.1322 49.348C55.7242 49.292 56.3402 49.212 56.9802 49.108L57.0762 49.924C56.1002 50.084 55.1802 50.192 54.3162 50.248C53.4522 50.296 52.5522 50.32 51.6162 50.32H50.7162V49.492ZM50.6922 43.084H55.7082V46.96H51.7242V49.804H50.7162V46.156H54.7002V43.9H50.6922V43.084ZM65.5353 46.3H67.5753V47.116H65.5353V46.3ZM69.3993 42.076H70.3593V52.936H69.3993V42.076ZM67.2393 42.304H68.1873V52.384H67.2393V42.304ZM63.5673 42.988C64.0393 42.988 64.4473 43.14 64.7913 43.444C65.1433 43.748 65.4153 44.184 65.6073 44.752C65.7993 45.32 65.8953 45.988 65.8953 46.756C65.8953 47.532 65.7993 48.204 65.6073 48.772C65.4153 49.34 65.1433 49.78 64.7913 50.092C64.4473 50.396 64.0393 50.548 63.5673 50.548C63.1113 50.548 62.7073 50.396 62.3553 50.092C62.0113 49.78 61.7433 49.34 61.5513 48.772C61.3593 48.204 61.2633 47.532 61.2633 46.756C61.2633 45.988 61.3593 45.32 61.5513 44.752C61.7433 44.184 62.0113 43.748 62.3553 43.444C62.7073 43.14 63.1113 42.988 63.5673 42.988ZM63.5673 43.912C63.2873 43.912 63.0433 44.028 62.8353 44.26C62.6273 44.492 62.4673 44.82 62.3553 45.244C62.2433 45.668 62.1873 46.172 62.1873 46.756C62.1873 47.34 62.2433 47.848 62.3553 48.28C62.4673 48.704 62.6273 49.032 62.8353 49.264C63.0433 49.496 63.2873 49.612 63.5673 49.612C63.8553 49.612 64.1033 49.496 64.3113 49.264C64.5273 49.032 64.6913 48.704 64.8033 48.28C64.9153 47.848 64.9713 47.34 64.9713 46.756C64.9713 46.172 64.9153 45.668 64.8033 45.244C64.6913 44.82 64.5273 44.492 64.3113 44.26C64.1033 44.028 63.8553 43.912 63.5673 43.912ZM77.5943 45.76H80.6063V46.576H77.5943V45.76ZM74.9663 43.012H75.7823V44.956C75.7823 45.556 75.7063 46.148 75.5543 46.732C75.4103 47.316 75.2023 47.86 74.9303 48.364C74.6583 48.868 74.3383 49.316 73.9703 49.708C73.6103 50.1 73.2143 50.412 72.7823 50.644L72.1583 49.84C72.5583 49.648 72.9263 49.38 73.2623 49.036C73.6063 48.692 73.9063 48.3 74.1623 47.86C74.4183 47.412 74.6143 46.944 74.7503 46.456C74.8943 45.96 74.9663 45.46 74.9663 44.956V43.012ZM75.1703 43.012H75.9743V44.956C75.9743 45.444 76.0423 45.928 76.1783 46.408C76.3223 46.888 76.5223 47.34 76.7783 47.764C77.0343 48.18 77.3303 48.552 77.6663 48.88C78.0103 49.208 78.3783 49.464 78.7703 49.648L78.1703 50.452C77.7383 50.228 77.3383 49.928 76.9703 49.552C76.6023 49.176 76.2823 48.744 76.0103 48.256C75.7463 47.768 75.5383 47.244 75.3863 46.684C75.2423 46.124 75.1703 45.548 75.1703 44.956V43.012ZM80.1143 42.076H81.0983V52.948H80.1143V42.076ZM93.9284 42.076H94.9244V52.948H93.9284V42.076ZM94.6964 46.36H96.7004V47.188H94.6964V46.36ZM87.0524 49.396H87.9044C88.5684 49.396 89.1764 49.388 89.7284 49.372C90.2884 49.348 90.8244 49.308 91.3364 49.252C91.8564 49.196 92.3844 49.12 92.9204 49.024L93.0404 49.876C92.4804 49.972 91.9364 50.048 91.4084 50.104C90.8884 50.16 90.3444 50.196 89.7764 50.212C89.2084 50.228 88.5844 50.236 87.9044 50.236H87.0524V49.396ZM87.0524 43.132H92.0804V43.948H88.0364V49.78H87.0524V43.132ZM105.747 43.696H107.619V44.524H105.747V43.696ZM105.747 46.012H107.619V46.84H105.747V46.012ZM100.647 42.724C101.199 42.724 101.687 42.832 102.111 43.048C102.535 43.264 102.867 43.564 103.107 43.948C103.355 44.332 103.479 44.776 103.479 45.28C103.479 45.792 103.355 46.24 103.107 46.624C102.867 47 102.535 47.296 102.111 47.512C101.687 47.728 101.199 47.836 100.647 47.836C100.111 47.836 99.6274 47.728 99.1954 47.512C98.7714 47.296 98.4354 47 98.1874 46.624C97.9394 46.24 97.8154 45.792 97.8154 45.28C97.8154 44.776 97.9394 44.332 98.1874 43.948C98.4354 43.564 98.7714 43.264 99.1954 43.048C99.6274 42.832 100.111 42.724 100.647 42.724ZM100.647 43.564C100.295 43.564 99.9794 43.64 99.6994 43.792C99.4194 43.936 99.1954 44.136 99.0274 44.392C98.8674 44.648 98.7874 44.944 98.7874 45.28C98.7874 45.624 98.8674 45.924 99.0274 46.18C99.1954 46.436 99.4194 46.636 99.6994 46.78C99.9794 46.924 100.295 46.996 100.647 46.996C101.007 46.996 101.327 46.924 101.607 46.78C101.887 46.636 102.107 46.436 102.267 46.18C102.435 45.924 102.519 45.624 102.519 45.28C102.519 44.944 102.435 44.648 102.267 44.392C102.107 44.136 101.887 43.936 101.607 43.792C101.327 43.64 101.007 43.564 100.647 43.564ZM105.051 42.076H106.047V48.508H105.051V42.076ZM102.591 48.844C103.319 48.844 103.951 48.928 104.487 49.096C105.023 49.256 105.435 49.488 105.723 49.792C106.011 50.088 106.155 50.452 106.155 50.884C106.155 51.308 106.011 51.672 105.723 51.976C105.435 52.272 105.023 52.5 104.487 52.66C103.951 52.828 103.319 52.912 102.591 52.912C101.855 52.912 101.219 52.828 100.683 52.66C100.147 52.5 99.7354 52.272 99.4474 51.976C99.1594 51.672 99.0154 51.308 99.0154 50.884C99.0154 50.452 99.1594 50.088 99.4474 49.792C99.7354 49.488 100.147 49.256 100.683 49.096C101.219 48.928 101.855 48.844 102.591 48.844ZM102.591 49.648C102.055 49.648 101.591 49.696 101.199 49.792C100.815 49.888 100.519 50.028 100.311 50.212C100.103 50.396 99.9994 50.62 99.9994 50.884C99.9994 51.14 100.103 51.36 100.311 51.544C100.519 51.728 100.815 51.868 101.199 51.964C101.591 52.06 102.055 52.108 102.591 52.108C103.127 52.108 103.587 52.06 103.971 51.964C104.355 51.868 104.651 51.728 104.859 51.544C105.067 51.36 105.171 51.14 105.171 50.884C105.171 50.62 105.067 50.396 104.859 50.212C104.651 50.028 104.355 49.888 103.971 49.792C103.587 49.696 103.127 49.648 102.591 49.648ZM116.091 42.088H117.087V50.224H116.091V42.088ZM116.775 45.652H118.683V46.48H116.775V45.652ZM108.687 43.408H115.095V44.212H108.687V43.408ZM111.891 44.8C112.403 44.8 112.855 44.888 113.247 45.064C113.639 45.232 113.943 45.468 114.159 45.772C114.375 46.068 114.483 46.42 114.483 46.828C114.483 47.236 114.375 47.592 114.159 47.896C113.943 48.192 113.639 48.424 113.247 48.592C112.855 48.76 112.403 48.844 111.891 48.844C111.379 48.844 110.927 48.76 110.535 48.592C110.143 48.424 109.835 48.192 109.611 47.896C109.395 47.592 109.287 47.236 109.287 46.828C109.287 46.42 109.395 46.068 109.611 45.772C109.835 45.468 110.143 45.232 110.535 45.064C110.927 44.888 111.379 44.8 111.891 44.8ZM111.891 45.58C111.403 45.58 111.007 45.696 110.703 45.928C110.399 46.152 110.247 46.452 110.247 46.828C110.247 47.204 110.399 47.504 110.703 47.728C111.007 47.952 111.403 48.064 111.891 48.064C112.387 48.064 112.783 47.952 113.079 47.728C113.383 47.504 113.535 47.204 113.535 46.828C113.535 46.452 113.383 46.152 113.079 45.928C112.783 45.696 112.387 45.58 111.891 45.58ZM111.399 42.088H112.395V43.816H111.399V42.088ZM110.331 51.88H117.567V52.696H110.331V51.88ZM110.331 49.576H111.315V52.216H110.331V49.576ZM123.077 50.704H132.917V51.544H123.077V50.704ZM123.941 43.168H131.993V43.984H123.941V43.168ZM123.965 47.74H131.969V48.556H123.965V47.74ZM125.621 43.912H126.617V47.836H125.621V43.912ZM129.317 43.912H130.301V47.836H129.317V43.912ZM134.116 50.764H143.956V51.592H134.116V50.764ZM138.52 48.448H139.504V51.112H138.52V48.448ZM135.316 42.88H142.732V46.168H136.324V48.34H135.34V45.376H141.748V43.696H135.316V42.88ZM135.34 47.92H142.984V48.736H135.34V47.92ZM149.631 44.872H151.611V45.688H149.631V44.872ZM151.251 42.316H152.199V48.616H151.251V42.316ZM147.399 43.504H148.191V44.392C148.191 44.952 148.095 45.5 147.903 46.036C147.719 46.572 147.439 47.052 147.063 47.476C146.695 47.892 146.247 48.22 145.719 48.46L145.191 47.68C145.663 47.48 146.063 47.204 146.391 46.852C146.719 46.5 146.967 46.112 147.135 45.688C147.311 45.256 147.399 44.824 147.399 44.392V43.504ZM147.579 43.504H148.359V44.392C148.359 44.784 148.443 45.18 148.611 45.58C148.779 45.972 149.019 46.332 149.331 46.66C149.651 46.98 150.035 47.236 150.483 47.428L149.967 48.196C149.447 47.98 149.007 47.672 148.647 47.272C148.295 46.872 148.027 46.424 147.843 45.928C147.667 45.424 147.579 44.912 147.579 44.392V43.504ZM145.407 42.964H150.231V43.78H145.407V42.964ZM153.351 42.076H154.299V48.712H153.351V42.076ZM147.027 49.192H154.299V52.936H153.315V50.008H147.027V49.192ZM157.454 47.932H164.906V48.736H157.454V47.932ZM156.194 50.704H166.034V51.532H156.194V50.704ZM157.454 43.012H164.798V43.828H158.462V48.172H157.454V43.012ZM158.15 45.424H164.558V46.228H158.15V45.424ZM169.981 47.56H170.977V50.14H169.981V47.56ZM170.473 42.784C171.025 42.784 171.517 42.892 171.949 43.108C172.381 43.316 172.721 43.612 172.969 43.996C173.217 44.38 173.341 44.828 173.341 45.34C173.341 45.836 173.217 46.28 172.969 46.672C172.721 47.056 172.381 47.356 171.949 47.572C171.517 47.78 171.025 47.884 170.473 47.884C169.913 47.884 169.417 47.78 168.985 47.572C168.553 47.356 168.213 47.056 167.965 46.672C167.717 46.28 167.593 45.836 167.593 45.34C167.593 44.828 167.717 44.38 167.965 43.996C168.213 43.612 168.553 43.316 168.985 43.108C169.417 42.892 169.913 42.784 170.473 42.784ZM170.473 43.636C170.105 43.636 169.777 43.708 169.489 43.852C169.201 43.988 168.973 44.184 168.805 44.44C168.645 44.696 168.565 44.996 168.565 45.34C168.565 45.676 168.645 45.972 168.805 46.228C168.973 46.484 169.201 46.684 169.489 46.828C169.777 46.972 170.105 47.044 170.473 47.044C170.841 47.044 171.165 46.972 171.445 46.828C171.733 46.684 171.957 46.484 172.117 46.228C172.285 45.972 172.369 45.676 172.369 45.34C172.369 44.996 172.285 44.696 172.117 44.44C171.957 44.184 171.733 43.988 171.445 43.852C171.165 43.708 170.841 43.636 170.473 43.636ZM174.577 42.076H175.561V52.936H174.577V42.076ZM175.285 46.552H177.289V47.392H175.285V46.552ZM167.257 50.584L167.101 49.756C167.757 49.748 168.469 49.74 169.237 49.732C170.013 49.724 170.797 49.696 171.589 49.648C172.389 49.6 173.157 49.528 173.893 49.432L173.965 50.176C173.205 50.304 172.429 50.4 171.637 50.464C170.845 50.52 170.073 50.556 169.321 50.572C168.577 50.58 167.889 50.584 167.257 50.584ZM189.063 42.076H190.059V48.484H189.063V42.076ZM189.639 44.848H191.643V45.688H189.639V44.848ZM183.027 48.976H190.059V51.172H184.035V52.312H183.051V50.512H189.075V49.672H183.027V48.976ZM183.051 52.108H190.467V52.816H183.051V52.108ZM184.491 46.528H185.475V47.908H184.491V46.528ZM181.707 48.232L181.587 47.5C182.227 47.5 182.935 47.496 183.711 47.488C184.487 47.472 185.279 47.444 186.087 47.404C186.895 47.356 187.671 47.28 188.415 47.176L188.487 47.824C187.719 47.952 186.931 48.048 186.123 48.112C185.323 48.168 184.543 48.204 183.783 48.22C183.031 48.228 182.339 48.232 181.707 48.232ZM181.863 42.904H188.091V43.612H181.863V42.904ZM184.971 43.96C185.739 43.96 186.351 44.084 186.807 44.332C187.271 44.58 187.503 44.928 187.503 45.376C187.503 45.832 187.271 46.188 186.807 46.444C186.351 46.692 185.739 46.816 184.971 46.816C184.203 46.816 183.587 46.692 183.123 46.444C182.667 46.188 182.439 45.832 182.439 45.376C182.439 44.928 182.667 44.58 183.123 44.332C183.587 44.084 184.203 43.96 184.971 43.96ZM184.971 44.62C184.483 44.62 184.095 44.688 183.807 44.824C183.527 44.96 183.387 45.144 183.387 45.376C183.387 45.616 183.527 45.808 183.807 45.952C184.095 46.088 184.483 46.156 184.971 46.156C185.459 46.156 185.843 46.088 186.123 45.952C186.411 45.808 186.555 45.616 186.555 45.376C186.555 45.144 186.411 44.96 186.123 44.824C185.843 44.688 185.459 44.62 184.971 44.62ZM184.491 41.98H185.475V43.276H184.491V41.98ZM192.686 47.428H202.502V48.232H192.686V47.428ZM197.102 45.688H198.074V47.764H197.102V45.688ZM193.922 45.376H201.35V46.18H193.922V45.376ZM193.922 42.58H201.278V43.372H194.906V45.856H193.922V42.58ZM197.582 49.012C198.742 49.012 199.65 49.184 200.306 49.528C200.962 49.864 201.29 50.344 201.29 50.968C201.29 51.592 200.962 52.072 200.306 52.408C199.65 52.752 198.742 52.924 197.582 52.924C196.422 52.924 195.51 52.752 194.846 52.408C194.19 52.072 193.862 51.592 193.862 50.968C193.862 50.344 194.19 49.864 194.846 49.528C195.51 49.184 196.422 49.012 197.582 49.012ZM197.57 49.792C197.01 49.792 196.526 49.84 196.118 49.936C195.718 50.024 195.41 50.156 195.194 50.332C194.978 50.5 194.87 50.712 194.87 50.968C194.87 51.216 194.978 51.428 195.194 51.604C195.41 51.78 195.718 51.912 196.118 52C196.526 52.096 197.01 52.144 197.57 52.144C198.146 52.144 198.634 52.096 199.034 52C199.442 51.912 199.754 51.78 199.97 51.604C200.186 51.428 200.294 51.216 200.294 50.968C200.294 50.712 200.186 50.5 199.97 50.332C199.754 50.156 199.442 50.024 199.034 49.936C198.634 49.84 198.146 49.792 197.57 49.792ZM208.621 42.268C209.821 42.268 210.757 42.432 211.429 42.76C212.101 43.08 212.437 43.54 212.437 44.14C212.437 44.748 212.101 45.216 211.429 45.544C210.757 45.864 209.821 46.024 208.621 46.024C207.429 46.024 206.493 45.864 205.813 45.544C205.141 45.216 204.805 44.748 204.805 44.14C204.805 43.54 205.141 43.08 205.813 42.76C206.493 42.432 207.429 42.268 208.621 42.268ZM208.621 43.012C208.037 43.012 207.537 43.056 207.121 43.144C206.705 43.232 206.385 43.36 206.161 43.528C205.945 43.696 205.837 43.9 205.837 44.14C205.837 44.38 205.945 44.588 206.161 44.764C206.385 44.932 206.705 45.06 207.121 45.148C207.537 45.228 208.037 45.268 208.621 45.268C209.213 45.268 209.717 45.228 210.133 45.148C210.549 45.06 210.865 44.932 211.081 44.764C211.305 44.588 211.417 44.38 211.417 44.14C211.417 43.9 211.305 43.696 211.081 43.528C210.865 43.36 210.549 43.232 210.133 43.144C209.717 43.056 209.213 43.012 208.621 43.012ZM203.725 46.756H213.529V47.56H203.725V46.756ZM204.913 48.484H212.269V50.932H205.909V52.24H204.937V50.2H211.297V49.252H204.913V48.484ZM204.937 52.036H212.593V52.816H204.937V52.036ZM218.127 47.824H227.943V48.628L218.127 48.628V47.824ZM222.531 46.42H223.527V48.16H222.531V46.42ZM219.423 45.988H226.791V46.768H219.423V45.988ZM219.423 42.388H226.731V43.18H220.419V46.408H219.423V42.388ZM220.119 44.176H226.443V44.932H220.119V44.176ZM223.035 49.432C224.211 49.432 225.123 49.58 225.771 49.876C226.419 50.172 226.743 50.604 226.743 51.172C226.743 51.74 226.419 52.172 225.771 52.468C225.123 52.764 224.211 52.912 223.035 52.912C221.851 52.912 220.935 52.764 220.287 52.468C219.639 52.172 219.315 51.74 219.315 51.172C219.315 50.604 219.639 50.172 220.287 49.876C220.935 49.58 221.851 49.432 223.035 49.432ZM223.023 50.188C222.159 50.188 221.491 50.272 221.019 50.44C220.547 50.608 220.311 50.852 220.311 51.172C220.311 51.5 220.547 51.748 221.019 51.916C221.491 52.076 222.159 52.156 223.023 52.156C223.903 52.156 224.575 52.076 225.039 51.916C225.511 51.748 225.747 51.5 225.747 51.172C225.747 50.852 225.511 50.608 225.039 50.44C224.575 50.272 223.903 50.188 223.023 50.188ZM229.154 43.936H234.542V44.752H229.154V43.936ZM231.854 45.472C232.31 45.472 232.71 45.576 233.054 45.784C233.406 45.992 233.682 46.284 233.882 46.66C234.082 47.028 234.182 47.456 234.182 47.944C234.182 48.432 234.082 48.864 233.882 49.24C233.682 49.608 233.406 49.9 233.054 50.116C232.71 50.324 232.31 50.428 231.854 50.428C231.406 50.428 231.006 50.324 230.654 50.116C230.302 49.9 230.026 49.608 229.826 49.24C229.626 48.864 229.526 48.432 229.526 47.944C229.526 47.456 229.626 47.028 229.826 46.66C230.026 46.292 230.302 46.004 230.654 45.796C231.006 45.58 231.406 45.472 231.854 45.472ZM231.854 46.312C231.582 46.312 231.334 46.384 231.11 46.528C230.894 46.664 230.722 46.856 230.594 47.104C230.474 47.344 230.414 47.624 230.414 47.944C230.414 48.264 230.474 48.548 230.594 48.796C230.722 49.044 230.894 49.236 231.11 49.372C231.334 49.508 231.582 49.576 231.854 49.576C232.134 49.576 232.382 49.508 232.598 49.372C232.814 49.236 232.982 49.044 233.102 48.796C233.23 48.548 233.294 48.264 233.294 47.944C233.294 47.624 233.23 47.344 233.102 47.104C232.982 46.856 232.814 46.664 232.598 46.528C232.382 46.384 232.134 46.312 231.854 46.312ZM237.41 42.076H238.358V52.936H237.41V42.076ZM235.67 46.648H237.722V47.464H235.67V46.648ZM235.082 42.328H236.018V52.408H235.082V42.328ZM231.362 42.4H232.346V44.428H231.362V42.4ZM244.216 47.092H245.092C245.876 47.092 246.556 47.088 247.132 47.08C247.716 47.064 248.256 47.032 248.752 46.984C249.248 46.936 249.748 46.872 250.252 46.792L250.36 47.584C249.832 47.672 249.316 47.74 248.812 47.788C248.308 47.828 247.76 47.856 247.168 47.872C246.576 47.888 245.884 47.896 245.092 47.896H244.216V47.092ZM244.216 42.736H249.376V43.552H245.212V47.5H244.216V42.736ZM244.888 44.884H249.076V45.676H244.888V44.884ZM251.488 42.088H252.484V48.556H251.488V42.088ZM245.476 49.096H252.484V52.792H245.476V49.096ZM251.512 49.888H246.448V51.976H251.512V49.888ZM265.422 42.076H266.418V48.484H265.422V42.076ZM265.998 44.848H268.002V45.688H265.998V44.848ZM259.386 48.976H266.418V51.172H260.394V52.312H259.41V50.512H265.434V49.672H259.386V48.976ZM259.41 52.108H266.826V52.816H259.41V52.108ZM260.85 46.528H261.834V47.908H260.85V46.528ZM258.066 48.232L257.946 47.5C258.586 47.5 259.294 47.496 260.07 47.488C260.846 47.472 261.638 47.444 262.446 47.404C263.254 47.356 264.03 47.28 264.774 47.176L264.846 47.824C264.078 47.952 263.29 48.048 262.482 48.112C261.682 48.168 260.902 48.204 260.142 48.22C259.39 48.228 258.698 48.232 258.066 48.232ZM258.222 42.904H264.45V43.612H258.222V42.904ZM261.33 43.96C262.098 43.96 262.71 44.084 263.166 44.332C263.63 44.58 263.862 44.928 263.862 45.376C263.862 45.832 263.63 46.188 263.166 46.444C262.71 46.692 262.098 46.816 261.33 46.816C260.562 46.816 259.946 46.692 259.482 46.444C259.026 46.188 258.798 45.832 258.798 45.376C258.798 44.928 259.026 44.58 259.482 44.332C259.946 44.084 260.562 43.96 261.33 43.96ZM261.33 44.62C260.842 44.62 260.454 44.688 260.166 44.824C259.886 44.96 259.746 45.144 259.746 45.376C259.746 45.616 259.886 45.808 260.166 45.952C260.454 46.088 260.842 46.156 261.33 46.156C261.818 46.156 262.202 46.088 262.482 45.952C262.77 45.808 262.914 45.616 262.914 45.376C262.914 45.144 262.77 44.96 262.482 44.824C262.202 44.688 261.818 44.62 261.33 44.62ZM260.85 41.98H261.834V43.276H260.85V41.98ZM269.045 47.428H278.861V48.232H269.045V47.428ZM273.461 45.688H274.433V47.764H273.461V45.688ZM270.281 45.376H277.709V46.18H270.281V45.376ZM270.281 42.58H277.637V43.372H271.265V45.856H270.281V42.58ZM273.941 49.012C275.101 49.012 276.009 49.184 276.665 49.528C277.321 49.864 277.649 50.344 277.649 50.968C277.649 51.592 277.321 52.072 276.665 52.408C276.009 52.752 275.101 52.924 273.941 52.924C272.781 52.924 271.869 52.752 271.205 52.408C270.549 52.072 270.221 51.592 270.221 50.968C270.221 50.344 270.549 49.864 271.205 49.528C271.869 49.184 272.781 49.012 273.941 49.012ZM273.929 49.792C273.369 49.792 272.885 49.84 272.477 49.936C272.077 50.024 271.769 50.156 271.553 50.332C271.337 50.5 271.229 50.712 271.229 50.968C271.229 51.216 271.337 51.428 271.553 51.604C271.769 51.78 272.077 51.912 272.477 52C272.885 52.096 273.369 52.144 273.929 52.144C274.505 52.144 274.993 52.096 275.393 52C275.801 51.912 276.113 51.78 276.329 51.604C276.545 51.428 276.653 51.216 276.653 50.968C276.653 50.712 276.545 50.5 276.329 50.332C276.113 50.156 275.801 50.024 275.393 49.936C274.993 49.84 274.505 49.792 273.929 49.792ZM284.98 42.268C286.18 42.268 287.116 42.432 287.788 42.76C288.46 43.08 288.796 43.54 288.796 44.14C288.796 44.748 288.46 45.216 287.788 45.544C287.116 45.864 286.18 46.024 284.98 46.024C283.788 46.024 282.852 45.864 282.172 45.544C281.5 45.216 281.164 44.748 281.164 44.14C281.164 43.54 281.5 43.08 282.172 42.76C282.852 42.432 283.788 42.268 284.98 42.268ZM284.98 43.012C284.396 43.012 283.896 43.056 283.48 43.144C283.064 43.232 282.744 43.36 282.52 43.528C282.304 43.696 282.196 43.9 282.196 44.14C282.196 44.38 282.304 44.588 282.52 44.764C282.744 44.932 283.064 45.06 283.48 45.148C283.896 45.228 284.396 45.268 284.98 45.268C285.572 45.268 286.076 45.228 286.492 45.148C286.908 45.06 287.224 44.932 287.44 44.764C287.664 44.588 287.776 44.38 287.776 44.14C287.776 43.9 287.664 43.696 287.44 43.528C287.224 43.36 286.908 43.232 286.492 43.144C286.076 43.056 285.572 43.012 284.98 43.012ZM280.084 46.756H289.888V47.56H280.084V46.756ZM281.272 48.484H288.628V50.932H282.268V52.24H281.296V50.2H287.656V49.252H281.272V48.484ZM281.296 52.036H288.952V52.816H281.296V52.036ZM297.39 42.916C297.918 42.916 298.386 43.072 298.794 43.384C299.202 43.688 299.518 44.124 299.742 44.692C299.974 45.26 300.09 45.928 300.09 46.696C300.09 47.464 299.974 48.132 299.742 48.7C299.518 49.268 299.202 49.708 298.794 50.02C298.386 50.332 297.918 50.488 297.39 50.488C296.87 50.488 296.402 50.332 295.986 50.02C295.578 49.708 295.258 49.268 295.026 48.7C294.802 48.132 294.69 47.464 294.69 46.696C294.69 45.928 294.802 45.26 295.026 44.692C295.258 44.124 295.578 43.688 295.986 43.384C296.402 43.072 296.87 42.916 297.39 42.916ZM297.39 43.804C297.046 43.804 296.742 43.924 296.478 44.164C296.214 44.396 296.006 44.732 295.854 45.172C295.71 45.604 295.638 46.112 295.638 46.696C295.638 47.28 295.71 47.792 295.854 48.232C296.006 48.664 296.214 49 296.478 49.24C296.742 49.48 297.046 49.6 297.39 49.6C297.742 49.6 298.05 49.48 298.314 49.24C298.578 49 298.782 48.664 298.926 48.232C299.078 47.792 299.154 47.28 299.154 46.696C299.154 46.112 299.078 45.604 298.926 45.172C298.782 44.732 298.578 44.396 298.314 44.164C298.05 43.924 297.742 43.804 297.39 43.804ZM302.442 42.076H303.426V52.948H302.442V42.076ZM299.766 46.216H302.886V47.02H299.766V46.216ZM307.026 48.544H314.766V49.324H307.026V48.544ZM310.89 49.828C311.858 49.828 312.61 49.964 313.146 50.236C313.69 50.5 313.962 50.88 313.962 51.376C313.962 51.88 313.69 52.264 313.146 52.528C312.61 52.792 311.858 52.924 310.89 52.924C309.922 52.924 309.166 52.792 308.622 52.528C308.086 52.264 307.818 51.88 307.818 51.376C307.818 50.88 308.086 50.5 308.622 50.236C309.166 49.964 309.922 49.828 310.89 49.828ZM310.89 50.536C310.258 50.536 309.762 50.608 309.402 50.752C309.042 50.896 308.862 51.104 308.862 51.376C308.862 51.648 309.042 51.856 309.402 52C309.762 52.144 310.258 52.216 310.89 52.216C311.522 52.216 312.014 52.144 312.366 52C312.726 51.856 312.906 51.648 312.906 51.376C312.906 51.104 312.726 50.896 312.366 50.752C312.014 50.608 311.522 50.536 310.89 50.536ZM310.41 47.512H311.406V49.06H310.41V47.512ZM305.814 46.288H306.294C306.51 46.288 306.742 46.284 306.99 46.276C307.238 46.26 307.502 46.236 307.782 46.204C308.07 46.172 308.37 46.12 308.682 46.048L308.778 46.852C308.442 46.924 308.126 46.976 307.83 47.008C307.542 47.04 307.27 47.06 307.014 47.068C306.766 47.076 306.526 47.08 306.294 47.08H305.814V46.288ZM305.814 42.616H308.538V43.408H306.798V46.84H305.814V42.616ZM309.138 46.288H309.678C310.07 46.288 310.422 46.284 310.734 46.276C311.046 46.26 311.346 46.236 311.634 46.204C311.93 46.164 312.234 46.108 312.546 46.036L312.642 46.84C312.322 46.912 312.01 46.968 311.706 47.008C311.402 47.04 311.09 47.06 310.77 47.068C310.45 47.076 310.086 47.08 309.678 47.08H309.138V46.288ZM309.138 42.616H312.138V43.408H310.122V46.84H309.138V42.616ZM313.59 42.076H314.574V47.848H313.59V42.076ZM311.646 44.332H314.118V45.112H311.646V44.332ZM324.845 42.076H325.805V52.936H324.845V42.076ZM320.129 46.516H322.865V47.32H320.129V46.516ZM322.589 42.364H323.525V52.384H322.589V42.364ZM320.261 43.456H321.221C321.221 44.4 321.085 45.308 320.813 46.18C320.549 47.044 320.117 47.852 319.517 48.604C318.917 49.348 318.129 50.012 317.153 50.596L316.577 49.876C317.425 49.364 318.121 48.788 318.665 48.148C319.209 47.5 319.609 46.8 319.865 46.048C320.129 45.288 320.261 44.484 320.261 43.636V43.456ZM317.045 43.456H320.633V44.272H317.045V43.456ZM330.967 43.936H336.355V44.752H330.967V43.936ZM333.667 45.472C334.123 45.472 334.523 45.576 334.867 45.784C335.219 45.992 335.495 46.284 335.695 46.66C335.895 47.028 335.995 47.456 335.995 47.944C335.995 48.432 335.895 48.864 335.695 49.24C335.495 49.608 335.219 49.9 334.867 50.116C334.523 50.324 334.123 50.428 333.667 50.428C333.219 50.428 332.819 50.324 332.467 50.116C332.115 49.9 331.839 49.608 331.639 49.24C331.439 48.864 331.339 48.432 331.339 47.944C331.339 47.456 331.439 47.028 331.639 46.66C331.839 46.292 332.115 46.004 332.467 45.796C332.819 45.58 333.219 45.472 333.667 45.472ZM333.667 46.312C333.395 46.312 333.147 46.384 332.923 46.528C332.707 46.664 332.535 46.856 332.407 47.104C332.287 47.344 332.227 47.624 332.227 47.944C332.227 48.264 332.287 48.548 332.407 48.796C332.535 49.044 332.707 49.236 332.923 49.372C333.147 49.508 333.395 49.576 333.667 49.576C333.947 49.576 334.195 49.508 334.411 49.372C334.627 49.236 334.795 49.044 334.915 48.796C335.043 48.548 335.107 48.264 335.107 47.944C335.107 47.624 335.043 47.344 334.915 47.104C334.795 46.856 334.627 46.664 334.411 46.528C334.195 46.384 333.947 46.312 333.667 46.312ZM339.223 42.076H340.171V52.936H339.223V42.076ZM337.483 46.648H339.535V47.464H337.483V46.648ZM336.895 42.328H337.831V52.408H336.895V42.328ZM333.175 42.4H334.159V44.428H333.175V42.4ZM21.676 61.408H23.668V62.236H21.676V61.408ZM20.944 57.076H21.94V67.924H20.944V57.076ZM14.032 58.144H15.016V64.864H14.032V58.144ZM14.032 64.348H14.896C15.688 64.348 16.5 64.312 17.332 64.24C18.172 64.168 19.04 64.04 19.936 63.856L20.056 64.696C19.128 64.88 18.24 65.008 17.392 65.08C16.552 65.144 15.72 65.176 14.896 65.176H14.032V64.348ZM31.9831 57.076H32.9791V67.924H31.9831V57.076ZM32.7151 61.48H34.7071V62.308H32.7151V61.48ZM29.2111 58.24H30.1831C30.1831 59.272 30.0151 60.26 29.6791 61.204C29.3431 62.14 28.8151 63.008 28.0951 63.808C27.3751 64.6 26.4271 65.288 25.2511 65.872L24.6991 65.104C25.7071 64.6 26.5431 64.012 27.2071 63.34C27.8791 62.66 28.3791 61.908 28.7071 61.084C29.0431 60.252 29.2111 59.356 29.2111 58.396V58.24ZM25.2031 58.24H29.7151V59.068H25.2031V58.24ZM38.5581 57.916C39.0941 57.916 39.5661 58.072 39.9741 58.384C40.3821 58.688 40.7021 59.124 40.9341 59.692C41.1661 60.26 41.2821 60.928 41.2821 61.696C41.2821 62.464 41.1661 63.132 40.9341 63.7C40.7021 64.268 40.3821 64.708 39.9741 65.02C39.5661 65.332 39.0941 65.488 38.5581 65.488C38.0301 65.488 37.5581 65.332 37.1421 65.02C36.7341 64.708 36.4141 64.268 36.1821 63.7C35.9501 63.132 35.8341 62.464 35.8341 61.696C35.8341 60.928 35.9501 60.26 36.1821 59.692C36.4141 59.124 36.7341 58.688 37.1421 58.384C37.5581 58.072 38.0301 57.916 38.5581 57.916ZM38.5581 58.804C38.2141 58.804 37.9061 58.924 37.6341 59.164C37.3701 59.396 37.1621 59.732 37.0101 60.172C36.8581 60.604 36.7821 61.112 36.7821 61.696C36.7821 62.28 36.8581 62.792 37.0101 63.232C37.1621 63.664 37.3701 64 37.6341 64.24C37.9061 64.48 38.2181 64.6 38.5701 64.6C38.9141 64.6 39.2181 64.48 39.4821 64.24C39.7541 64 39.9621 63.664 40.1061 63.232C40.2581 62.792 40.3341 62.28 40.3341 61.696C40.3341 61.112 40.2581 60.604 40.1061 60.172C39.9621 59.732 39.7541 59.396 39.4821 59.164C39.2181 58.924 38.9101 58.804 38.5581 58.804ZM43.7421 59.8H45.7461V60.64H43.7421V59.8ZM43.7421 63.04H45.7461V63.868H43.7421V63.04ZM43.0221 57.076H44.0181V67.936H43.0221V57.076ZM57.4482 57.076H58.4322V67.936H57.4482V57.076ZM58.2042 61.54H60.2082V62.38H58.2042V61.54ZM50.0322 58.816H56.4282V59.632H50.0322V58.816ZM53.2842 60.52C53.7962 60.52 54.2482 60.628 54.6402 60.844C55.0402 61.06 55.3522 61.356 55.5762 61.732C55.8082 62.1 55.9242 62.528 55.9242 63.016C55.9242 63.504 55.8082 63.936 55.5762 64.312C55.3522 64.688 55.0402 64.984 54.6402 65.2C54.2482 65.408 53.7962 65.512 53.2842 65.512C52.7722 65.512 52.3162 65.408 51.9162 65.2C51.5242 64.984 51.2122 64.688 50.9802 64.312C50.7482 63.936 50.6322 63.504 50.6322 63.016C50.6322 62.528 50.7482 62.1 50.9802 61.732C51.2122 61.356 51.5242 61.06 51.9162 60.844C52.3162 60.628 52.7722 60.52 53.2842 60.52ZM53.2842 61.348C52.9562 61.348 52.6642 61.42 52.4082 61.564C52.1522 61.708 51.9482 61.904 51.7962 62.152C51.6522 62.4 51.5802 62.688 51.5802 63.016C51.5802 63.344 51.6522 63.636 51.7962 63.892C51.9482 64.14 52.1522 64.336 52.4082 64.48C52.6642 64.616 52.9562 64.684 53.2842 64.684C53.6042 64.684 53.8922 64.616 54.1482 64.48C54.4042 64.336 54.6042 64.14 54.7482 63.892C54.9002 63.636 54.9762 63.344 54.9762 63.016C54.9762 62.688 54.9002 62.4 54.7482 62.152C54.6042 61.904 54.4042 61.708 54.1482 61.564C53.8922 61.42 53.6042 61.348 53.2842 61.348ZM52.7682 57.208H53.7642V59.176H52.7682V57.208ZM62.1753 58.168H69.1593V58.984H62.1753V58.168ZM61.1313 65.584H70.9353V66.412H61.1313V65.584ZM64.9473 61.708H65.9313V66.004H64.9473V61.708ZM68.7753 58.168H69.7713V59.236C69.7713 59.684 69.7633 60.156 69.7473 60.652C69.7393 61.148 69.7073 61.692 69.6513 62.284C69.6033 62.876 69.5113 63.536 69.3753 64.264L68.3673 64.144C68.5753 63.104 68.6953 62.192 68.7273 61.408C68.7593 60.616 68.7753 59.892 68.7753 59.236V58.168ZM78.4373 57.916C78.9653 57.916 79.4333 58.072 79.8413 58.384C80.2493 58.688 80.5653 59.124 80.7893 59.692C81.0213 60.26 81.1373 60.928 81.1373 61.696C81.1373 62.464 81.0213 63.132 80.7893 63.7C80.5653 64.268 80.2493 64.708 79.8413 65.02C79.4333 65.332 78.9653 65.488 78.4373 65.488C77.9173 65.488 77.4493 65.332 77.0333 65.02C76.6253 64.708 76.3053 64.268 76.0733 63.7C75.8493 63.132 75.7373 62.464 75.7373 61.696C75.7373 60.928 75.8493 60.26 76.0733 59.692C76.3053 59.124 76.6253 58.688 77.0333 58.384C77.4493 58.072 77.9173 57.916 78.4373 57.916ZM78.4373 58.804C78.0933 58.804 77.7893 58.924 77.5253 59.164C77.2613 59.396 77.0533 59.732 76.9013 60.172C76.7573 60.604 76.6853 61.112 76.6853 61.696C76.6853 62.28 76.7573 62.792 76.9013 63.232C77.0533 63.664 77.2613 64 77.5253 64.24C77.7893 64.48 78.0933 64.6 78.4373 64.6C78.7893 64.6 79.0973 64.48 79.3613 64.24C79.6253 64 79.8293 63.664 79.9733 63.232C80.1253 62.792 80.2013 62.28 80.2013 61.696C80.2013 61.112 80.1253 60.604 79.9733 60.172C79.8293 59.732 79.6253 59.396 79.3613 59.164C79.0973 58.924 78.7893 58.804 78.4373 58.804ZM83.4893 57.076H84.4733V67.948H83.4893V57.076ZM80.8133 61.216H83.9333V62.02H80.8133V61.216ZM88.3844 66.88H95.8964V67.696H88.3844V66.88ZM88.3844 64.324H89.3804V67.324H88.3844V64.324ZM94.6364 57.088H95.6204V64.984H94.6364V57.088ZM92.6804 60.064H95.4284V60.88H92.6804V60.064ZM86.8604 62.428H87.3404C87.5644 62.428 87.8004 62.424 88.0484 62.416C88.3044 62.4 88.5724 62.376 88.8524 62.344C89.1324 62.312 89.4244 62.26 89.7284 62.188L89.8244 63.004C89.4964 63.084 89.1884 63.14 88.9004 63.172C88.6124 63.204 88.3404 63.224 88.0844 63.232C87.8284 63.232 87.5804 63.232 87.3404 63.232H86.8604V62.428ZM86.8604 57.976H89.6084V58.792H87.8444V62.668H86.8604V57.976ZM90.1964 62.428H90.7364C91.1284 62.428 91.4804 62.424 91.7924 62.416C92.1044 62.4 92.4044 62.376 92.6924 62.344C92.9884 62.304 93.2884 62.248 93.5924 62.176L93.7004 62.992C93.3724 63.064 93.0564 63.12 92.7524 63.16C92.4564 63.192 92.1444 63.212 91.8164 63.22C91.4964 63.228 91.1364 63.232 90.7364 63.232H90.1964V62.428ZM90.1964 57.976H93.1964V58.792H91.1804V62.632H90.1964V57.976ZM103.818 57.592H104.646V58.648C104.646 59.336 104.518 59.98 104.262 60.58C104.014 61.18 103.658 61.704 103.194 62.152C102.738 62.592 102.206 62.928 101.598 63.16L101.094 62.368C101.502 62.216 101.87 62.016 102.198 61.768C102.534 61.512 102.822 61.22 103.062 60.892C103.31 60.564 103.498 60.208 103.626 59.824C103.754 59.44 103.818 59.048 103.818 58.648V57.592ZM103.998 57.592H104.826V58.648C104.826 59.04 104.89 59.416 105.018 59.776C105.154 60.136 105.342 60.472 105.582 60.784C105.822 61.096 106.106 61.372 106.434 61.612C106.77 61.852 107.138 62.04 107.538 62.176L107.046 62.968C106.446 62.744 105.914 62.424 105.45 62.008C104.994 61.584 104.638 61.084 104.382 60.508C104.126 59.932 103.998 59.312 103.998 58.648V57.592ZM102.642 64.156H109.89V67.936H108.894V64.972H102.642V64.156ZM108.894 57.076H109.89V63.604H108.894V57.076ZM116.934 57.772C117.694 57.772 118.37 57.896 118.962 58.144C119.554 58.392 120.022 58.74 120.366 59.188C120.71 59.636 120.882 60.16 120.882 60.76C120.882 61.368 120.71 61.896 120.366 62.344C120.022 62.792 119.554 63.14 118.962 63.388C118.37 63.636 117.694 63.76 116.934 63.76C116.19 63.76 115.518 63.636 114.918 63.388C114.326 63.14 113.858 62.792 113.514 62.344C113.17 61.896 112.998 61.368 112.998 60.76C112.998 60.16 113.17 59.636 113.514 59.188C113.858 58.74 114.326 58.392 114.918 58.144C115.518 57.896 116.19 57.772 116.934 57.772ZM116.934 58.576C116.366 58.576 115.858 58.668 115.41 58.852C114.962 59.036 114.606 59.292 114.342 59.62C114.078 59.94 113.946 60.32 113.946 60.76C113.946 61.192 114.078 61.572 114.342 61.9C114.606 62.228 114.962 62.484 115.41 62.668C115.858 62.852 116.366 62.944 116.934 62.944C117.51 62.944 118.022 62.852 118.47 62.668C118.918 62.484 119.27 62.228 119.526 61.9C119.79 61.572 119.922 61.192 119.922 60.76C119.922 60.32 119.79 59.94 119.526 59.62C119.27 59.292 118.918 59.036 118.47 58.852C118.022 58.668 117.51 58.576 116.934 58.576ZM112.038 65.668H121.878V66.496H112.038V65.668ZM123.077 65.764H132.917V66.592H123.077V65.764ZM127.481 63.448H128.465V66.112H127.481V63.448ZM124.277 57.88H131.693V61.168H125.285V63.34H124.301V60.376H130.709V58.696H124.277V57.88ZM124.301 62.92H131.945V63.736H124.301V62.92ZM143.587 59.608H145.807V60.424H143.587V59.608ZM143.575 61.72H145.783V62.536H143.575V61.72ZM137.503 58.168H143.587V58.972H137.503V58.168ZM140.575 59.5C141.063 59.5 141.491 59.584 141.859 59.752C142.227 59.912 142.515 60.14 142.723 60.436C142.931 60.724 143.035 61.064 143.035 61.456C143.035 61.848 142.931 62.192 142.723 62.488C142.515 62.776 142.227 63 141.859 63.16C141.491 63.32 141.063 63.4 140.575 63.4C140.095 63.4 139.671 63.32 139.303 63.16C138.935 63 138.647 62.776 138.439 62.488C138.231 62.192 138.127 61.848 138.127 61.456C138.127 61.064 138.231 60.724 138.439 60.436C138.647 60.14 138.935 59.912 139.303 59.752C139.671 59.584 140.095 59.5 140.575 59.5ZM140.575 60.268C140.119 60.268 139.751 60.376 139.471 60.592C139.199 60.808 139.063 61.096 139.063 61.456C139.063 61.816 139.199 62.108 139.471 62.332C139.751 62.548 140.119 62.656 140.575 62.656C141.031 62.656 141.399 62.548 141.679 62.332C141.967 62.108 142.111 61.816 142.111 61.456C142.111 61.096 141.967 60.808 141.679 60.592C141.399 60.376 141.031 60.268 140.575 60.268ZM140.095 56.98H141.079V58.66H140.095V56.98ZM145.423 57.076H146.419V63.496H145.423V57.076ZM139.399 63.964H140.383V65.08H145.435V63.964H146.419V67.792H139.399V63.964ZM140.383 65.848V67H145.435V65.848H140.383ZM148.986 62.464H149.754C150.466 62.464 151.074 62.46 151.578 62.452C152.09 62.436 152.554 62.408 152.97 62.368C153.394 62.328 153.822 62.268 154.254 62.188L154.35 63.004C154.022 63.06 153.698 63.108 153.378 63.148C153.058 63.18 152.722 63.204 152.37 63.22C152.018 63.236 151.63 63.248 151.206 63.256C150.782 63.264 150.298 63.268 149.754 63.268H148.986V62.464ZM148.962 57.736H153.63V60.808H149.97V62.944H148.986V60.04H152.646V58.54H148.962V57.736ZM156.462 57.088H157.458V63.76H156.462V57.088ZM154.35 58.696H156.69V59.5H154.35V58.696ZM154.35 60.94H156.69V61.756H154.35V60.94ZM150.198 64.336H157.458V67.948H156.462V65.152H150.198V64.336ZM159.545 58.936H164.933V59.752H159.545V58.936ZM162.245 60.472C162.701 60.472 163.101 60.576 163.445 60.784C163.797 60.992 164.073 61.284 164.273 61.66C164.473 62.028 164.573 62.456 164.573 62.944C164.573 63.432 164.473 63.864 164.273 64.24C164.073 64.608 163.797 64.9 163.445 65.116C163.101 65.324 162.701 65.428 162.245 65.428C161.797 65.428 161.397 65.324 161.045 65.116C160.693 64.9 160.417 64.608 160.217 64.24C160.017 63.864 159.917 63.432 159.917 62.944C159.917 62.456 160.017 62.028 160.217 61.66C160.417 61.292 160.693 61.004 161.045 60.796C161.397 60.58 161.797 60.472 162.245 60.472ZM162.245 61.312C161.973 61.312 161.725 61.384 161.501 61.528C161.285 61.664 161.113 61.856 160.985 62.104C160.865 62.344 160.805 62.624 160.805 62.944C160.805 63.264 160.865 63.548 160.985 63.796C161.113 64.044 161.285 64.236 161.501 64.372C161.725 64.508 161.973 64.576 162.245 64.576C162.525 64.576 162.773 64.508 162.989 64.372C163.205 64.236 163.373 64.044 163.493 63.796C163.621 63.548 163.685 63.264 163.685 62.944C163.685 62.624 163.621 62.344 163.493 62.104C163.373 61.856 163.205 61.664 162.989 61.528C162.773 61.384 162.525 61.312 162.245 61.312ZM167.801 57.076H168.749V67.936H167.801V57.076ZM166.061 61.648H168.113V62.464H166.061V61.648ZM165.473 57.328H166.409V67.408H165.473V57.328ZM161.753 57.4H162.737V59.428H161.753V57.4ZM173.488 57.916C174.024 57.916 174.496 58.072 174.904 58.384C175.312 58.688 175.632 59.124 175.864 59.692C176.096 60.26 176.212 60.928 176.212 61.696C176.212 62.464 176.096 63.132 175.864 63.7C175.632 64.268 175.312 64.708 174.904 65.02C174.496 65.332 174.024 65.488 173.488 65.488C172.96 65.488 172.488 65.332 172.072 65.02C171.664 64.708 171.344 64.268 171.112 63.7C170.88 63.132 170.764 62.464 170.764 61.696C170.764 60.928 170.88 60.26 171.112 59.692C171.344 59.124 171.664 58.688 172.072 58.384C172.488 58.072 172.96 57.916 173.488 57.916ZM173.488 58.804C173.144 58.804 172.836 58.924 172.564 59.164C172.3 59.396 172.092 59.732 171.94 60.172C171.788 60.604 171.712 61.112 171.712 61.696C171.712 62.28 171.788 62.792 171.94 63.232C172.092 63.664 172.3 64 172.564 64.24C172.836 64.48 173.148 64.6 173.5 64.6C173.844 64.6 174.148 64.48 174.412 64.24C174.684 64 174.892 63.664 175.036 63.232C175.188 62.792 175.264 62.28 175.264 61.696C175.264 61.112 175.188 60.604 175.036 60.172C174.892 59.732 174.684 59.396 174.412 59.164C174.148 58.924 173.84 58.804 173.488 58.804ZM178.672 59.8H180.676V60.64H178.672V59.8ZM178.672 63.04H180.676V63.868H178.672V63.04ZM177.952 57.076H178.948V67.936H177.952V57.076ZM192.378 57.076H193.362V67.936H192.378V57.076ZM193.134 61.54H195.138V62.38H193.134V61.54ZM184.962 58.816H191.358V59.632H184.962V58.816ZM188.214 60.52C188.726 60.52 189.178 60.628 189.57 60.844C189.97 61.06 190.282 61.356 190.506 61.732C190.738 62.1 190.854 62.528 190.854 63.016C190.854 63.504 190.738 63.936 190.506 64.312C190.282 64.688 189.97 64.984 189.57 65.2C189.178 65.408 188.726 65.512 188.214 65.512C187.702 65.512 187.246 65.408 186.846 65.2C186.454 64.984 186.142 64.688 185.91 64.312C185.678 63.936 185.562 63.504 185.562 63.016C185.562 62.528 185.678 62.1 185.91 61.732C186.142 61.356 186.454 61.06 186.846 60.844C187.246 60.628 187.702 60.52 188.214 60.52ZM188.214 61.348C187.886 61.348 187.594 61.42 187.338 61.564C187.082 61.708 186.878 61.904 186.726 62.152C186.582 62.4 186.51 62.688 186.51 63.016C186.51 63.344 186.582 63.636 186.726 63.892C186.878 64.14 187.082 64.336 187.338 64.48C187.594 64.616 187.886 64.684 188.214 64.684C188.534 64.684 188.822 64.616 189.078 64.48C189.334 64.336 189.534 64.14 189.678 63.892C189.83 63.636 189.906 63.344 189.906 63.016C189.906 62.688 189.83 62.4 189.678 62.152C189.534 61.904 189.334 61.708 189.078 61.564C188.822 61.42 188.534 61.348 188.214 61.348ZM187.698 57.208H188.694V59.176H187.698V57.208ZM197.381 60.34H204.761V61.144H197.381V60.34ZM196.049 62.596H205.889V63.412H196.049V62.596ZM197.381 57.472H198.365V60.748H197.381V57.472ZM197.309 66.856H204.821V67.672H197.309V66.856ZM197.309 64.504H198.305V67.072H197.309V64.504ZM209.968 58.636H210.784V60.388C210.784 60.964 210.704 61.532 210.544 62.092C210.384 62.644 210.16 63.168 209.872 63.664C209.592 64.152 209.264 64.584 208.888 64.96C208.512 65.336 208.108 65.632 207.676 65.848L207.1 65.056C207.492 64.864 207.86 64.604 208.204 64.276C208.556 63.948 208.864 63.572 209.128 63.148C209.392 62.724 209.596 62.276 209.74 61.804C209.892 61.332 209.968 60.86 209.968 60.388V58.636ZM210.172 58.636H210.976V60.388C210.976 60.844 211.048 61.3 211.192 61.756C211.344 62.204 211.552 62.628 211.816 63.028C212.088 63.42 212.396 63.768 212.74 64.072C213.092 64.376 213.468 64.616 213.868 64.792L213.316 65.584C212.876 65.376 212.464 65.096 212.08 64.744C211.696 64.392 211.36 63.988 211.072 63.532C210.792 63.068 210.572 62.572 210.412 62.044C210.252 61.508 210.172 60.956 210.172 60.388V58.636ZM207.448 58.192H213.508V59.02H207.448V58.192ZM214.984 57.076H215.98V67.936H214.984V57.076ZM221.898 58.108H222.846V60.748H225.126V58.108H226.05V65.224H221.898V58.108ZM222.846 61.552V64.408H225.126V61.552H222.846ZM229.782 57.076H230.742V67.936H229.782V57.076ZM228.042 61.372H230.13V62.2H228.042V61.372ZM227.37 57.304H228.318V67.384H227.37V57.304ZM236.945 62.188H237.941V63.844H236.945V62.188ZM237.449 57.208C238.649 57.208 239.585 57.372 240.257 57.7C240.929 58.02 241.265 58.48 241.265 59.08C241.265 59.688 240.929 60.156 240.257 60.484C239.585 60.804 238.649 60.964 237.449 60.964C236.257 60.964 235.321 60.804 234.641 60.484C233.969 60.156 233.633 59.688 233.633 59.08C233.633 58.48 233.969 58.02 234.641 57.7C235.321 57.372 236.257 57.208 237.449 57.208ZM237.449 57.964C236.865 57.964 236.365 58.008 235.949 58.096C235.533 58.184 235.213 58.312 234.989 58.48C234.773 58.64 234.665 58.84 234.665 59.08C234.665 59.32 234.773 59.528 234.989 59.704C235.213 59.872 235.533 60 235.949 60.088C236.365 60.168 236.865 60.208 237.449 60.208C238.041 60.208 238.545 60.168 238.961 60.088C239.377 60 239.693 59.872 239.909 59.704C240.133 59.528 240.245 59.32 240.245 59.08C240.245 58.84 240.133 58.64 239.909 58.48C239.693 58.312 239.377 58.184 238.961 58.096C238.545 58.008 238.041 57.964 237.449 57.964ZM232.553 61.672H242.357V62.476H232.553V61.672ZM233.741 63.484H241.097V65.932H234.737V67.24H233.765V65.2H240.125V64.252H233.741V63.484ZM233.765 67.036H241.421V67.816H233.765V67.036ZM251.359 57.46H252.235V58.072C252.235 58.488 252.155 58.88 251.995 59.248C251.835 59.608 251.615 59.94 251.335 60.244C251.063 60.548 250.743 60.82 250.375 61.06C250.007 61.3 249.607 61.5 249.175 61.66C248.751 61.82 248.315 61.936 247.867 62.008L247.459 61.204C247.859 61.148 248.247 61.052 248.623 60.916C249.007 60.78 249.363 60.616 249.691 60.424C250.019 60.224 250.307 60 250.555 59.752C250.811 59.504 251.007 59.24 251.143 58.96C251.287 58.672 251.359 58.376 251.359 58.072V57.46ZM251.527 57.46H252.391V58.072C252.391 58.376 252.463 58.668 252.607 58.948C252.751 59.228 252.947 59.492 253.195 59.74C253.451 59.988 253.743 60.212 254.071 60.412C254.399 60.612 254.751 60.78 255.127 60.916C255.511 61.052 255.899 61.148 256.291 61.204L255.895 62.008C255.447 61.936 255.011 61.82 254.587 61.66C254.163 61.492 253.763 61.288 253.387 61.048C253.019 60.808 252.695 60.536 252.415 60.232C252.143 59.928 251.927 59.596 251.767 59.236C251.607 58.868 251.527 58.48 251.527 58.072V57.46ZM251.359 63.808H252.343V67.936H251.359V63.808ZM246.967 63.184H256.771V64.012H246.967V63.184ZM264.081 63.76H264.861V64.336C264.861 64.808 264.765 65.272 264.573 65.728C264.381 66.184 264.101 66.592 263.733 66.952C263.373 67.312 262.929 67.588 262.401 67.78L261.909 67.048C262.365 66.88 262.753 66.648 263.073 66.352C263.401 66.056 263.649 65.736 263.817 65.392C263.993 65.04 264.081 64.688 264.081 64.336V63.76ZM264.309 63.76H265.041V64.336C265.041 64.704 265.113 65.068 265.257 65.428C265.401 65.788 265.617 66.116 265.905 66.412C266.201 66.708 266.561 66.944 266.985 67.12L266.577 67.876C266.049 67.668 265.617 67.38 265.281 67.012C264.953 66.644 264.709 66.228 264.549 65.764C264.389 65.292 264.309 64.816 264.309 64.336V63.76ZM268.101 63.76H268.833V64.336C268.833 64.76 268.749 65.204 268.581 65.668C268.421 66.132 268.173 66.564 267.837 66.964C267.509 67.356 267.089 67.66 266.577 67.876L266.145 67.12C266.577 66.92 266.937 66.664 267.225 66.352C267.513 66.032 267.729 65.696 267.873 65.344C268.025 64.984 268.101 64.648 268.101 64.336V63.76ZM268.293 63.76H269.073V64.336C269.073 64.712 269.157 65.076 269.325 65.428C269.501 65.78 269.749 66.1 270.069 66.388C270.397 66.668 270.789 66.888 271.245 67.048L270.753 67.78C270.225 67.588 269.777 67.32 269.409 66.976C269.041 66.624 268.761 66.224 268.569 65.776C268.385 65.32 268.293 64.84 268.293 64.336V63.76ZM269.277 57.088H270.273V63.28H269.277V57.088ZM264.453 57.712C265.005 57.712 265.493 57.82 265.917 58.036C266.341 58.252 266.673 58.552 266.913 58.936C267.161 59.312 267.285 59.752 267.285 60.256C267.285 60.752 267.161 61.188 266.913 61.564C266.673 61.94 266.341 62.236 265.917 62.452C265.493 62.668 265.005 62.776 264.453 62.776C263.909 62.776 263.421 62.668 262.989 62.452C262.565 62.236 262.229 61.94 261.981 61.564C261.741 61.188 261.621 60.752 261.621 60.256C261.621 59.752 261.741 59.312 261.981 58.936C262.229 58.552 262.565 58.252 262.989 58.036C263.421 57.82 263.909 57.712 264.453 57.712ZM264.453 58.552C264.101 58.552 263.785 58.624 263.505 58.768C263.225 58.912 263.001 59.112 262.833 59.368C262.673 59.616 262.593 59.912 262.593 60.256C262.593 60.592 262.673 60.888 262.833 61.144C263.001 61.392 263.225 61.588 263.505 61.732C263.785 61.876 264.101 61.948 264.453 61.948C264.813 61.948 265.133 61.876 265.413 61.732C265.693 61.588 265.913 61.392 266.073 61.144C266.233 60.888 266.313 60.592 266.313 60.256C266.313 59.912 266.233 59.616 266.073 59.368C265.913 59.112 265.693 58.912 265.413 58.768C265.133 58.624 264.813 58.552 264.453 58.552ZM275.312 57.916C275.84 57.916 276.308 58.072 276.716 58.384C277.124 58.688 277.44 59.124 277.664 59.692C277.896 60.26 278.012 60.928 278.012 61.696C278.012 62.464 277.896 63.132 277.664 63.7C277.44 64.268 277.124 64.708 276.716 65.02C276.308 65.332 275.84 65.488 275.312 65.488C274.792 65.488 274.324 65.332 273.908 65.02C273.5 64.708 273.18 64.268 272.948 63.7C272.724 63.132 272.612 62.464 272.612 61.696C272.612 60.928 272.724 60.26 272.948 59.692C273.18 59.124 273.5 58.688 273.908 58.384C274.324 58.072 274.792 57.916 275.312 57.916ZM275.312 58.804C274.968 58.804 274.664 58.924 274.4 59.164C274.136 59.396 273.928 59.732 273.776 60.172C273.632 60.604 273.56 61.112 273.56 61.696C273.56 62.28 273.632 62.792 273.776 63.232C273.928 63.664 274.136 64 274.4 64.24C274.664 64.48 274.968 64.6 275.312 64.6C275.664 64.6 275.972 64.48 276.236 64.24C276.5 64 276.704 63.664 276.848 63.232C277 62.792 277.076 62.28 277.076 61.696C277.076 61.112 277 60.604 276.848 60.172C276.704 59.732 276.5 59.396 276.236 59.164C275.972 58.924 275.664 58.804 275.312 58.804ZM280.364 57.076H281.348V67.948H280.364V57.076ZM277.688 61.216H280.808V62.02H277.688V61.216ZM291.802 63.892C292.538 63.892 293.17 63.972 293.698 64.132C294.234 64.292 294.646 64.52 294.934 64.816C295.222 65.112 295.366 65.472 295.366 65.896C295.366 66.32 295.222 66.684 294.934 66.988C294.646 67.292 294.234 67.524 293.698 67.684C293.17 67.844 292.538 67.924 291.802 67.924C291.066 67.924 290.43 67.844 289.894 67.684C289.358 67.524 288.946 67.292 288.658 66.988C288.37 66.684 288.226 66.32 288.226 65.896C288.226 65.472 288.37 65.112 288.658 64.816C288.946 64.52 289.358 64.292 289.894 64.132C290.43 63.972 291.066 63.892 291.802 63.892ZM291.802 64.684C291.266 64.684 290.802 64.732 290.41 64.828C290.026 64.924 289.73 65.064 289.522 65.248C289.314 65.424 289.21 65.64 289.21 65.896C289.21 66.16 289.314 66.384 289.522 66.568C289.73 66.752 290.026 66.892 290.41 66.988C290.802 67.084 291.266 67.132 291.802 67.132C292.338 67.132 292.798 67.084 293.182 66.988C293.566 66.892 293.862 66.752 294.07 66.568C294.278 66.384 294.382 66.16 294.382 65.896C294.382 65.64 294.278 65.424 294.07 65.248C293.862 65.064 293.566 64.924 293.182 64.828C292.798 64.732 292.338 64.684 291.802 64.684ZM294.262 57.076H295.258V63.592H294.262V57.076ZM294.982 59.8H296.854V60.64H294.982V59.8ZM287.278 57.76H288.262V59.392H291.322V57.76H292.306V62.764H287.278V57.76ZM288.262 60.184V61.96H291.322V60.184H288.262ZM305.997 58.948H307.869V59.776H305.997V58.948ZM305.997 61.264H307.869V62.092H305.997V61.264ZM305.301 57.076H306.297V64.072H305.301V57.076ZM302.889 64.156C303.617 64.156 304.245 64.232 304.773 64.384C305.301 64.528 305.705 64.74 305.985 65.02C306.273 65.3 306.417 65.64 306.417 66.04C306.417 66.432 306.273 66.768 305.985 67.048C305.705 67.328 305.301 67.54 304.773 67.684C304.245 67.836 303.617 67.912 302.889 67.912C302.153 67.912 301.521 67.836 300.993 67.684C300.473 67.54 300.069 67.328 299.781 67.048C299.493 66.768 299.349 66.432 299.349 66.04C299.349 65.64 299.493 65.3 299.781 65.02C300.069 64.74 300.473 64.528 300.993 64.384C301.521 64.232 302.153 64.156 302.889 64.156ZM302.889 64.936C302.089 64.936 301.461 65.032 301.005 65.224C300.557 65.416 300.333 65.688 300.333 66.04C300.333 66.392 300.557 66.664 301.005 66.856C301.461 67.048 302.089 67.144 302.889 67.144C303.681 67.144 304.301 67.048 304.749 66.856C305.205 66.664 305.433 66.392 305.433 66.04C305.433 65.688 305.205 65.416 304.749 65.224C304.301 65.032 303.681 64.936 302.889 64.936ZM297.897 58.3H304.305V59.092H297.897V58.3ZM301.101 59.644C301.621 59.644 302.073 59.724 302.457 59.884C302.849 60.044 303.153 60.268 303.369 60.556C303.585 60.836 303.693 61.172 303.693 61.564C303.693 61.948 303.585 62.284 303.369 62.572C303.153 62.86 302.849 63.084 302.457 63.244C302.073 63.396 301.621 63.472 301.101 63.472C300.581 63.472 300.125 63.396 299.733 63.244C299.349 63.084 299.045 62.86 298.821 62.572C298.605 62.284 298.497 61.948 298.497 61.564C298.497 61.172 298.605 60.836 298.821 60.556C299.045 60.268 299.349 60.044 299.733 59.884C300.125 59.724 300.581 59.644 301.101 59.644ZM301.101 60.4C300.605 60.4 300.205 60.508 299.901 60.724C299.605 60.932 299.457 61.212 299.457 61.564C299.457 61.916 299.605 62.196 299.901 62.404C300.205 62.612 300.605 62.716 301.101 62.716C301.589 62.716 301.985 62.612 302.289 62.404C302.593 62.196 302.745 61.916 302.745 61.564C302.745 61.212 302.593 60.932 302.289 60.724C301.985 60.508 301.589 60.4 301.101 60.4ZM300.609 56.992H301.605V58.744H300.609V56.992ZM313.809 57.268C315.009 57.268 315.945 57.432 316.617 57.76C317.289 58.08 317.625 58.54 317.625 59.14C317.625 59.748 317.289 60.216 316.617 60.544C315.945 60.864 315.009 61.024 313.809 61.024C312.617 61.024 311.681 60.864 311.001 60.544C310.329 60.216 309.993 59.748 309.993 59.14C309.993 58.54 310.329 58.08 311.001 57.76C311.681 57.432 312.617 57.268 313.809 57.268ZM313.809 58.012C313.225 58.012 312.725 58.056 312.309 58.144C311.893 58.232 311.573 58.36 311.349 58.528C311.133 58.696 311.025 58.9 311.025 59.14C311.025 59.38 311.133 59.588 311.349 59.764C311.573 59.932 311.893 60.06 312.309 60.148C312.725 60.228 313.225 60.268 313.809 60.268C314.401 60.268 314.905 60.228 315.321 60.148C315.737 60.06 316.053 59.932 316.269 59.764C316.493 59.588 316.605 59.38 316.605 59.14C316.605 58.9 316.493 58.696 316.269 58.528C316.053 58.36 315.737 58.232 315.321 58.144C314.905 58.056 314.401 58.012 313.809 58.012ZM308.913 61.756H318.717V62.56H308.913V61.756ZM310.101 63.484H317.457V65.932H311.097V67.24H310.125V65.2H316.485V64.252H310.101V63.484ZM310.125 67.036H317.781V67.816H310.125V67.036ZM325.991 58.084H326.795V58.972C326.795 59.612 326.671 60.212 326.423 60.772C326.175 61.324 325.819 61.804 325.355 62.212C324.899 62.62 324.367 62.932 323.759 63.148L323.255 62.356C323.799 62.172 324.275 61.912 324.683 61.576C325.099 61.24 325.419 60.848 325.643 60.4C325.875 59.944 325.991 59.468 325.991 58.972V58.084ZM326.159 58.084H326.987V58.96C326.987 59.416 327.095 59.856 327.311 60.28C327.527 60.704 327.831 61.076 328.223 61.396C328.623 61.716 329.091 61.964 329.627 62.14L329.159 62.92C328.551 62.72 328.023 62.428 327.575 62.044C327.127 61.652 326.779 61.192 326.531 60.664C326.283 60.128 326.159 59.56 326.159 58.96V58.084ZM323.567 57.796H329.375V58.612H323.567V57.796ZM330.755 57.076H331.751V63.028H330.755V57.076ZM331.475 59.584H333.347V60.412H331.475V59.584ZM324.911 63.544H325.895V64.852H330.755V63.544H331.751V67.792H324.911V63.544ZM325.895 65.644V66.976H330.755V65.644H325.895ZM335.686 60.34H343.066V61.144H335.686V60.34ZM334.354 62.596H344.194V63.412H334.354V62.596ZM335.686 57.472H336.67V60.748H335.686V57.472ZM335.614 66.856H343.126V67.672H335.614V66.856ZM335.614 64.504H336.61V67.072H335.614V64.504ZM21.856 72.076H22.816V82.936H21.856V72.076ZM17.344 76.216H20.08V77.044H17.344V76.216ZM19.672 72.328H20.608V82.372H19.672V72.328ZM14.008 79.492H14.704C15.264 79.492 15.76 79.484 16.192 79.468C16.632 79.452 17.044 79.42 17.428 79.372C17.82 79.324 18.216 79.26 18.616 79.18L18.712 80.008C18.304 80.096 17.9 80.164 17.5 80.212C17.1 80.252 16.676 80.28 16.228 80.296C15.788 80.312 15.28 80.32 14.704 80.32H14.008V79.492ZM14.008 73.408H18.076V74.224H14.98V79.816H14.008V73.408ZM35.4421 72.076H36.4381V77.62H35.4421V72.076ZM36.0061 74.524H38.0341V75.352H36.0061V74.524ZM28.4581 72.796H33.4501V77.224H28.4581V72.796ZM32.4781 73.588H29.4301V76.42H32.4781V73.588ZM29.1421 81.832H29.6701C29.8861 81.832 30.1381 81.824 30.4261 81.808C30.7141 81.784 31.0181 81.748 31.3381 81.7C31.6581 81.644 31.9741 81.564 32.2861 81.46L32.4421 82.252C32.0981 82.364 31.7581 82.448 31.4221 82.504C31.0941 82.56 30.7821 82.596 30.4861 82.612C30.1901 82.636 29.9181 82.648 29.6701 82.648H29.1421V81.832ZM29.1421 78.604H30.1141V82.048H29.1421V78.604ZM32.0581 78.724H37.4941V79.468H32.0581V78.724ZM34.7821 79.864C35.3741 79.864 35.8541 80.004 36.2221 80.284C36.5981 80.556 36.7861 80.924 36.7861 81.388C36.7861 81.86 36.5981 82.232 36.2221 82.504C35.8541 82.776 35.3741 82.912 34.7821 82.912C34.1901 82.912 33.7061 82.776 33.3301 82.504C32.9541 82.232 32.7661 81.86 32.7661 81.388C32.7661 80.924 32.9541 80.556 33.3301 80.284C33.7061 80.004 34.1901 79.864 34.7821 79.864ZM34.7821 80.572C34.4541 80.572 34.1821 80.648 33.9661 80.8C33.7581 80.944 33.6541 81.14 33.6541 81.388C33.6541 81.636 33.7581 81.836 33.9661 81.988C34.1821 82.14 34.4541 82.216 34.7821 82.216C35.1101 82.216 35.3781 82.14 35.5861 81.988C35.7941 81.836 35.8981 81.636 35.8981 81.388C35.8981 81.14 35.7941 80.944 35.5861 80.8C35.3781 80.648 35.1101 80.572 34.7821 80.572ZM34.3021 77.764H35.2741V79.252H34.3021V77.764ZM39.0531 77.788H48.8571V78.592H39.0531V77.788ZM40.3131 81.88H47.7651V82.696H40.3131V81.88ZM40.3131 79.552H41.3091V82.12H40.3131V79.552ZM43.9491 72.448C44.7251 72.448 45.3971 72.536 45.9651 72.712C46.5411 72.88 46.9851 73.128 47.2971 73.456C47.6091 73.776 47.7651 74.16 47.7651 74.608C47.7651 75.056 47.6091 75.444 47.2971 75.772C46.9851 76.1 46.5411 76.352 45.9651 76.528C45.3971 76.696 44.7251 76.78 43.9491 76.78C43.1731 76.78 42.4971 76.696 41.9211 76.528C41.3531 76.352 40.9131 76.1 40.6011 75.772C40.2891 75.444 40.1331 75.056 40.1331 74.608C40.1331 74.16 40.2891 73.776 40.6011 73.456C40.9131 73.128 41.3531 72.88 41.9211 72.712C42.4971 72.536 43.1731 72.448 43.9491 72.448ZM43.9491 73.252C43.3891 73.252 42.8971 73.308 42.4731 73.42C42.0571 73.524 41.7331 73.68 41.5011 73.888C41.2691 74.088 41.1531 74.328 41.1531 74.608C41.1531 74.888 41.2691 75.132 41.5011 75.34C41.7331 75.54 42.0571 75.696 42.4731 75.808C42.8971 75.912 43.3891 75.964 43.9491 75.964C44.5251 75.964 45.0211 75.912 45.4371 75.808C45.8531 75.696 46.1731 75.54 46.3971 75.34C46.6291 75.132 46.7451 74.888 46.7451 74.608C46.7451 74.328 46.6291 74.088 46.3971 73.888C46.1731 73.68 45.8531 73.524 45.4371 73.42C45.0211 73.308 44.5251 73.252 43.9491 73.252ZM54.7152 77.152H62.1672V77.956H54.7152V77.152ZM53.4672 80.74H63.3072V81.568H53.4672V80.74ZM57.8712 77.5H58.8552V81.064H57.8712V77.5ZM54.7152 72.94H62.0592V73.768H55.7112V77.512H54.7152V72.94ZM68.9103 77.62H69.8943V79.492H68.9103V77.62ZM69.4023 72.28C70.1863 72.28 70.8623 72.364 71.4303 72.532C72.0063 72.692 72.4463 72.924 72.7503 73.228C73.0623 73.532 73.2183 73.9 73.2183 74.332C73.2183 74.756 73.0623 75.12 72.7503 75.424C72.4463 75.728 72.0063 75.96 71.4303 76.12C70.8623 76.272 70.1863 76.348 69.4023 76.348C68.6263 76.348 67.9503 76.272 67.3743 76.12C66.8063 75.96 66.3663 75.728 66.0543 75.424C65.7423 75.12 65.5863 74.756 65.5863 74.332C65.5863 73.9 65.7423 73.532 66.0543 73.228C66.3663 72.924 66.8063 72.692 67.3743 72.532C67.9503 72.364 68.6263 72.28 69.4023 72.28ZM69.4023 73.06C68.8343 73.06 68.3383 73.112 67.9143 73.216C67.4983 73.32 67.1743 73.464 66.9423 73.648C66.7183 73.832 66.6063 74.06 66.6063 74.332C66.6063 74.588 66.7183 74.812 66.9423 75.004C67.1743 75.188 67.4983 75.328 67.9143 75.424C68.3383 75.52 68.8343 75.568 69.4023 75.568C69.9783 75.568 70.4743 75.52 70.8903 75.424C71.3143 75.328 71.6383 75.188 71.8623 75.004C72.0863 74.812 72.1983 74.588 72.1983 74.332C72.1983 74.06 72.0863 73.832 71.8623 73.648C71.6383 73.464 71.3143 73.32 70.8903 73.216C70.4743 73.112 69.9783 73.06 69.4023 73.06ZM65.7063 79.216H73.1103V82.792H65.7063V79.216ZM72.1383 80.02H66.6783V81.976H72.1383V80.02ZM64.5063 77.176H74.3103V77.992H64.5063V77.176ZM83.4293 72.076H84.4253V82.948H83.4293V72.076ZM78.7013 72.916C79.2373 72.916 79.7093 73.072 80.1173 73.384C80.5333 73.688 80.8573 74.124 81.0893 74.692C81.3293 75.26 81.4493 75.928 81.4493 76.696C81.4493 77.464 81.3293 78.132 81.0893 78.7C80.8573 79.268 80.5333 79.708 80.1173 80.02C79.7093 80.332 79.2373 80.488 78.7013 80.488C78.1653 80.488 77.6893 80.332 77.2733 80.02C76.8573 79.708 76.5293 79.268 76.2893 78.7C76.0573 78.132 75.9413 77.464 75.9413 76.696C75.9413 75.928 76.0573 75.26 76.2893 74.692C76.5293 74.124 76.8573 73.688 77.2733 73.384C77.6893 73.072 78.1653 72.916 78.7013 72.916ZM78.7013 73.804C78.3413 73.804 78.0253 73.924 77.7533 74.164C77.4893 74.396 77.2813 74.732 77.1293 75.172C76.9773 75.604 76.9013 76.112 76.9013 76.696C76.9013 77.28 76.9773 77.792 77.1293 78.232C77.2813 78.664 77.4893 79 77.7533 79.24C78.0253 79.48 78.3413 79.6 78.7013 79.6C79.0533 79.6 79.3613 79.48 79.6253 79.24C79.8973 79 80.1093 78.664 80.2613 78.232C80.4133 77.792 80.4893 77.28 80.4893 76.696C80.4893 76.112 80.4133 75.604 80.2613 75.172C80.1093 74.732 79.8973 74.396 79.6253 74.164C79.3613 73.924 79.0533 73.804 78.7013 73.804ZM90.8234 76.756H96.3674V77.572H90.8234V76.756ZM93.0434 77.404H94.0394V79.9H93.0434V77.404ZM90.8234 73.108H96.3194V73.912H91.8074V77.044H90.8234V73.108ZM97.8074 72.076H98.8034V82.948H97.8074V72.076ZM90.1514 80.596L90.0194 79.756C90.7314 79.756 91.4874 79.752 92.2874 79.744C93.0874 79.728 93.8994 79.7 94.7234 79.66C95.5474 79.612 96.3394 79.544 97.0994 79.456L97.1834 80.188C96.3914 80.308 95.5834 80.4 94.7594 80.464C93.9434 80.52 93.1434 80.556 92.3594 80.572C91.5834 80.588 90.8474 80.596 90.1514 80.596ZM103.77 78.688H104.55V79.324C104.55 79.796 104.454 80.264 104.262 80.728C104.07 81.184 103.79 81.592 103.422 81.952C103.062 82.312 102.618 82.592 102.09 82.792L101.598 82.048C102.054 81.88 102.442 81.652 102.762 81.364C103.09 81.068 103.338 80.744 103.506 80.392C103.682 80.032 103.77 79.676 103.77 79.324V78.688ZM103.986 78.688H104.73V79.324C104.73 79.692 104.802 80.06 104.946 80.428C105.09 80.788 105.306 81.12 105.594 81.424C105.882 81.72 106.246 81.96 106.686 82.144L106.254 82.888C105.734 82.68 105.306 82.388 104.97 82.012C104.634 81.636 104.386 81.216 104.226 80.752C104.066 80.28 103.986 79.804 103.986 79.324V78.688ZM107.778 78.688H108.522V79.324C108.522 79.748 108.442 80.196 108.282 80.668C108.122 81.132 107.874 81.564 107.538 81.964C107.202 82.364 106.774 82.672 106.254 82.888L105.834 82.144C106.266 81.936 106.626 81.672 106.914 81.352C107.202 81.032 107.418 80.692 107.562 80.332C107.706 79.972 107.778 79.636 107.778 79.324V78.688ZM107.982 78.688H108.75V79.324C108.75 79.7 108.834 80.068 109.002 80.428C109.178 80.788 109.426 81.108 109.746 81.388C110.074 81.668 110.47 81.888 110.934 82.048L110.43 82.792C109.902 82.6 109.454 82.328 109.086 81.976C108.726 81.624 108.45 81.22 108.258 80.764C108.074 80.308 107.982 79.828 107.982 79.324V78.688ZM106.338 74.8H109.206V75.616H106.338V74.8ZM103.962 72.688C104.49 72.688 104.962 72.796 105.378 73.012C105.802 73.228 106.134 73.528 106.374 73.912C106.614 74.296 106.734 74.736 106.734 75.232C106.734 75.736 106.614 76.18 106.374 76.564C106.134 76.94 105.802 77.236 105.378 77.452C104.962 77.668 104.49 77.776 103.962 77.776C103.426 77.776 102.946 77.668 102.522 77.452C102.106 77.236 101.778 76.94 101.538 76.564C101.298 76.18 101.178 75.736 101.178 75.232C101.178 74.736 101.298 74.296 101.538 73.912C101.778 73.528 102.106 73.228 102.522 73.012C102.946 72.796 103.426 72.688 103.962 72.688ZM103.962 73.528C103.61 73.528 103.294 73.6 103.014 73.744C102.742 73.888 102.526 74.092 102.366 74.356C102.206 74.612 102.126 74.904 102.126 75.232C102.126 75.568 102.206 75.864 102.366 76.12C102.526 76.376 102.742 76.58 103.014 76.732C103.294 76.876 103.61 76.948 103.962 76.948C104.306 76.948 104.614 76.876 104.886 76.732C105.166 76.58 105.386 76.376 105.546 76.12C105.706 75.864 105.786 75.568 105.786 75.232C105.786 74.904 105.706 74.612 105.546 74.356C105.386 74.092 105.166 73.888 104.886 73.744C104.614 73.6 104.306 73.528 103.962 73.528ZM108.93 72.076H109.926V78.268H108.93V72.076ZM113.274 78.592H114.258V79.84H119.574V78.592H120.558V82.792H113.274V78.592ZM114.258 80.62V81.988H119.574V80.62H114.258ZM112.038 77.02H121.842V77.836H112.038V77.02ZM116.43 72.196H117.294V72.688C117.294 73.064 117.214 73.42 117.054 73.756C116.894 74.084 116.674 74.388 116.394 74.668C116.122 74.94 115.802 75.184 115.434 75.4C115.074 75.616 114.682 75.796 114.258 75.94C113.842 76.084 113.41 76.192 112.962 76.264L112.59 75.472C112.982 75.416 113.362 75.328 113.73 75.208C114.106 75.088 114.458 74.944 114.786 74.776C115.114 74.6 115.402 74.404 115.65 74.188C115.898 73.964 116.09 73.728 116.226 73.48C116.362 73.224 116.43 72.96 116.43 72.688V72.196ZM116.598 72.196H117.45V72.688C117.45 72.952 117.518 73.212 117.654 73.468C117.798 73.716 117.994 73.952 118.242 74.176C118.49 74.392 118.774 74.588 119.094 74.764C119.422 74.94 119.77 75.092 120.138 75.22C120.514 75.34 120.894 75.424 121.278 75.472L120.918 76.264C120.47 76.192 120.034 76.084 119.61 75.94C119.194 75.796 118.802 75.616 118.434 75.4C118.074 75.176 117.754 74.924 117.474 74.644C117.202 74.364 116.986 74.06 116.826 73.732C116.674 73.404 116.598 73.056 116.598 72.688V72.196ZM130.973 72.076H131.957V82.936H130.973V72.076ZM123.761 73.144H124.745V79.864H123.761V73.144ZM123.761 79.276H124.649C125.481 79.276 126.325 79.24 127.181 79.168C128.045 79.088 128.933 78.956 129.845 78.772L129.977 79.612C129.033 79.812 128.125 79.952 127.253 80.032C126.381 80.104 125.513 80.14 124.649 80.14H123.761V79.276ZM141.46 72.076H142.456V82.948H141.46V72.076ZM142.228 76.36H144.232V77.188H142.228V76.36ZM134.584 79.396H135.436C136.1 79.396 136.708 79.388 137.26 79.372C137.82 79.348 138.356 79.308 138.868 79.252C139.388 79.196 139.916 79.12 140.452 79.024L140.572 79.876C140.012 79.972 139.468 80.048 138.94 80.104C138.42 80.16 137.876 80.196 137.308 80.212C136.74 80.228 136.116 80.236 135.436 80.236H134.584V79.396ZM134.584 73.132H139.612V73.948H135.568V79.78H134.584V73.132ZM146.208 82.0682C145.998 82.0682 145.817 81.9929 145.667 81.8423C145.516 81.6918 145.441 81.5114 145.441 81.3011C145.441 81.0909 145.516 80.9105 145.667 80.7599C145.817 80.6094 145.998 80.5341 146.208 80.5341C146.418 80.5341 146.599 80.6094 146.749 80.7599C146.9 80.9105 146.975 81.0909 146.975 81.3011C146.975 81.4403 146.94 81.5682 146.869 81.6847C146.8 81.8011 146.708 81.8949 146.592 81.9659C146.478 82.0341 146.35 82.0682 146.208 82.0682Z" fill="white"/>
</g>
<defs>
<filter id="filter0_d_512_3417" x="0" y="0" width="362" height="102" filterUnits="userSpaceOnUse" color-interpolation-filters="sRGB">
<feFlood flood-opacity="0" result="BackgroundImageFix"/>
<feColorMatrix in="SourceAlpha" type="matrix" values="0 0 0 0 0 0 0 0 0 0 0 0 0 0 0 0 0 0 127 0" result="hardAlpha"/>
<feOffset dy="4"/>
<feGaussianBlur stdDeviation="2"/>
<feComposite in2="hardAlpha" operator="out"/>
<feColorMatrix type="matrix" values="0 0 0 0 0 0 0 0 0 0 0 0 0 0 0 0 0 0 0.25 0"/>
<feBlend mode="normal" in2="BackgroundImageFix" result="effect1_dropShadow_512_3417"/>
<feBlend mode="normal" in="SourceGraphic" in2="effect1_dropShadow_512_3417" result="shape"/>
</filter>
</defs>
</svg>
