<svg width="362" height="72" viewBox="0 0 362 72" fill="none" xmlns="http://www.w3.org/2000/svg">
<g filter="url(#filter0_d_512_3412)">
<rect x="5" y="1" width="352" height="62" rx="8" fill="#222127" shape-rendering="crispEdges"/>
<rect x="5" y="1" width="352" height="62" rx="8" stroke="#49494C" stroke-width="2" shape-rendering="crispEdges"/>
<path d="M21.124 16.956H22.72V25.056H21.124V16.956ZM15.316 26.592H23.008V27.876H15.316V26.592ZM15.316 24.276H16.912V27.252H15.316V24.276ZM16.096 17.568H17.416V18.648C17.416 19.368 17.3 20.056 17.068 20.712C16.844 21.368 16.5 21.944 16.036 22.44C15.572 22.936 14.98 23.312 14.26 23.568L13.444 22.296C14.068 22.08 14.572 21.78 14.956 21.396C15.348 21.012 15.636 20.58 15.82 20.1C16.004 19.62 16.096 19.136 16.096 18.648V17.568ZM16.42 17.568H17.716V18.648C17.716 19.008 17.764 19.364 17.86 19.716C17.964 20.06 18.12 20.388 18.328 20.7C18.536 21.004 18.804 21.28 19.132 21.528C19.46 21.776 19.848 21.972 20.296 22.116L19.492 23.376C18.788 23.144 18.208 22.792 17.752 22.32C17.296 21.848 16.96 21.296 16.744 20.664C16.528 20.032 16.42 19.36 16.42 18.648V17.568ZM24.5191 22.62H34.5751V23.88H24.5191V22.62ZM25.7431 26.592H33.4471V27.876H25.7431V26.592ZM25.7431 24.624H27.3391V27H25.7431V24.624ZM29.5471 17.28C30.3551 17.28 31.0591 17.372 31.6591 17.556C32.2671 17.74 32.7391 18.004 33.0751 18.348C33.4111 18.692 33.5791 19.096 33.5791 19.56C33.5791 20.032 33.4111 20.44 33.0751 20.784C32.7391 21.128 32.2671 21.392 31.6591 21.576C31.0591 21.76 30.3551 21.852 29.5471 21.852C28.7471 21.852 28.0431 21.76 27.4351 21.576C26.8351 21.392 26.3671 21.128 26.0311 20.784C25.6951 20.44 25.5271 20.032 25.5271 19.56C25.5271 19.096 25.6951 18.692 26.0311 18.348C26.3671 18.004 26.8351 17.74 27.4351 17.556C28.0431 17.372 28.7471 17.28 29.5471 17.28ZM29.5471 18.54C29.0591 18.54 28.6351 18.58 28.2751 18.66C27.9151 18.74 27.6431 18.856 27.4591 19.008C27.2751 19.152 27.1831 19.336 27.1831 19.56C27.1831 19.784 27.2751 19.972 27.4591 20.124C27.6431 20.276 27.9151 20.392 28.2751 20.472C28.6351 20.552 29.0591 20.592 29.5471 20.592C30.0511 20.592 30.4791 20.552 30.8311 20.472C31.1831 20.392 31.4511 20.276 31.6351 20.124C31.8271 19.972 31.9231 19.784 31.9231 19.56C31.9231 19.336 31.8271 19.152 31.6351 19.008C31.4511 18.856 31.1831 18.74 30.8311 18.66C30.4791 18.58 30.0511 18.54 29.5471 18.54ZM39.7581 17.268H41.1501V17.796C41.1501 18.22 41.0821 18.632 40.9461 19.032C40.8181 19.424 40.6261 19.792 40.3701 20.136C40.1141 20.48 39.8021 20.788 39.4341 21.06C39.0661 21.332 38.6381 21.564 38.1501 21.756C37.6701 21.94 37.1421 22.08 36.5661 22.176L35.9421 20.892C36.4541 20.828 36.9101 20.72 37.3101 20.568C37.7181 20.416 38.0741 20.236 38.3781 20.028C38.6901 19.82 38.9461 19.592 39.1461 19.344C39.3461 19.096 39.4981 18.84 39.6021 18.576C39.7061 18.312 39.7581 18.052 39.7581 17.796V17.268ZM40.0581 17.268H41.4501V17.796C41.4501 18.052 41.5021 18.312 41.6061 18.576C41.7101 18.84 41.8621 19.096 42.0621 19.344C42.2621 19.592 42.5141 19.82 42.8181 20.028C43.1301 20.236 43.4861 20.416 43.8861 20.568C44.2941 20.72 44.7541 20.828 45.2661 20.892L44.6421 22.176C44.0581 22.08 43.5261 21.94 43.0461 21.756C42.5661 21.564 42.1421 21.332 41.7741 21.06C41.4061 20.78 41.0941 20.468 40.8381 20.124C40.5821 19.78 40.3861 19.412 40.2501 19.02C40.1221 18.628 40.0581 18.22 40.0581 17.796V17.268ZM39.7581 23.988H41.3541V28.068H39.7581V23.988ZM35.5701 22.98H45.6261V24.276H35.5701V22.98Z" fill="#F7F8F8"/>
<path d="M57.004 23.208H57.988V25.908H57.004V23.208ZM57.496 17.784C58.264 17.784 58.944 17.904 59.536 18.144C60.128 18.376 60.592 18.704 60.928 19.128C61.272 19.552 61.444 20.052 61.444 20.628C61.444 21.204 61.272 21.708 60.928 22.14C60.592 22.564 60.128 22.892 59.536 23.124C58.944 23.356 58.264 23.472 57.496 23.472C56.736 23.472 56.056 23.356 55.456 23.124C54.864 22.892 54.4 22.564 54.064 22.14C53.728 21.708 53.56 21.204 53.56 20.628C53.56 20.052 53.728 19.552 54.064 19.128C54.4 18.704 54.864 18.376 55.456 18.144C56.056 17.904 56.736 17.784 57.496 17.784ZM57.496 18.588C56.92 18.588 56.408 18.672 55.96 18.84C55.512 19.008 55.16 19.248 54.904 19.56C54.648 19.864 54.52 20.22 54.52 20.628C54.52 21.036 54.648 21.396 54.904 21.708C55.16 22.02 55.512 22.26 55.96 22.428C56.408 22.596 56.92 22.68 57.496 22.68C58.072 22.68 58.584 22.596 59.032 22.428C59.48 22.26 59.832 22.02 60.088 21.708C60.352 21.396 60.484 21.036 60.484 20.628C60.484 20.22 60.352 19.864 60.088 19.56C59.832 19.248 59.48 19.008 59.032 18.84C58.584 18.672 58.072 18.588 57.496 18.588ZM52.6 25.716H62.44V26.544H52.6V25.716ZM64.9591 19.656H72.3151V20.472H64.9591V19.656ZM63.6271 21.528H73.4671V22.344H63.6271V21.528ZM64.9591 17.244H65.9311V20.04H64.9591V17.244ZM64.8511 23.304H72.2191V25.86H65.8711V27.252H64.8751V25.116H71.2351V24.084H64.8511V23.304ZM64.8751 27H72.5911V27.792H64.8751V27ZM74.6781 25.716H84.5181V26.544H74.6781V25.716ZM79.0821 22.908H80.0661V25.944H79.0821V22.908ZM75.8301 17.976H83.3181V23.088H75.8301V17.976ZM82.3461 18.78H76.8021V22.296H82.3461V18.78ZM85.6932 18.936H91.0812V19.752H85.6932V18.936ZM88.3932 20.472C88.8492 20.472 89.2492 20.576 89.5932 20.784C89.9452 20.992 90.2212 21.284 90.4212 21.66C90.6212 22.028 90.7212 22.456 90.7212 22.944C90.7212 23.432 90.6212 23.864 90.4212 24.24C90.2212 24.608 89.9452 24.9 89.5932 25.116C89.2492 25.324 88.8492 25.428 88.3932 25.428C87.9452 25.428 87.5452 25.324 87.1932 25.116C86.8412 24.9 86.5652 24.608 86.3652 24.24C86.1652 23.864 86.0652 23.432 86.0652 22.944C86.0652 22.456 86.1652 22.028 86.3652 21.66C86.5652 21.292 86.8412 21.004 87.1932 20.796C87.5452 20.58 87.9452 20.472 88.3932 20.472ZM88.3932 21.312C88.1212 21.312 87.8732 21.384 87.6492 21.528C87.4332 21.664 87.2612 21.856 87.1332 22.104C87.0132 22.344 86.9532 22.624 86.9532 22.944C86.9532 23.264 87.0132 23.548 87.1332 23.796C87.2612 24.044 87.4332 24.236 87.6492 24.372C87.8732 24.508 88.1212 24.576 88.3932 24.576C88.6732 24.576 88.9212 24.508 89.1372 24.372C89.3532 24.236 89.5212 24.044 89.6412 23.796C89.7692 23.548 89.8332 23.264 89.8332 22.944C89.8332 22.624 89.7692 22.344 89.6412 22.104C89.5212 21.856 89.3532 21.664 89.1372 21.528C88.9212 21.384 88.6732 21.312 88.3932 21.312ZM93.9492 17.076H94.8972V27.936H93.9492V17.076ZM92.2092 21.648H94.2612V22.464H92.2092V21.648ZM91.6212 17.328H92.5572V27.408H91.6212V17.328ZM87.9012 17.4H88.8852V19.428H87.9012V17.4ZM98.6705 25.8068L98.6065 26.2713C98.5639 26.6122 98.4915 26.9673 98.3892 27.3366C98.2898 27.7088 98.1861 28.054 98.0781 28.3722C97.973 28.6903 97.8864 28.9432 97.8182 29.1307H96.9148C96.9517 28.9545 97.0028 28.7159 97.0682 28.4148C97.1335 28.1165 97.1974 27.7827 97.2599 27.4134C97.3224 27.044 97.3693 26.6676 97.4006 26.2841L97.4432 25.8068H98.6705ZM103.248 25.716H113.088V26.544H103.248V25.716ZM107.652 22.908H108.636V25.944H107.652V22.908ZM104.4 17.976H111.888V23.088H104.4V17.976ZM110.916 18.78H105.372V22.296H110.916V18.78ZM114.972 24.492H115.836C116.516 24.492 117.136 24.484 117.696 24.468C118.264 24.452 118.808 24.42 119.328 24.372C119.856 24.324 120.396 24.252 120.948 24.156L121.056 24.972C120.488 25.068 119.936 25.144 119.4 25.2C118.864 25.248 118.308 25.28 117.732 25.296C117.164 25.312 116.532 25.32 115.836 25.32H114.972V24.492ZM114.972 18.06H120.228V18.888H115.956V24.78H114.972V18.06ZM115.716 21.108H119.832V21.912H115.716V21.108ZM122.196 17.076H123.192V27.936H122.196V17.076ZM125.711 18.336H129.851V25.02H125.711V18.336ZM128.915 19.128H126.647V24.228H128.915V19.128ZM133.595 17.076H134.555V27.936H133.595V17.076ZM129.359 21.168H131.855V21.984H129.359V21.168ZM131.435 17.304H132.383V27.384H131.435V17.304ZM144.25 17.076H145.246V27.948H144.25V17.076ZM139.522 17.916C140.058 17.916 140.53 18.072 140.938 18.384C141.354 18.688 141.678 19.124 141.91 19.692C142.15 20.26 142.27 20.928 142.27 21.696C142.27 22.464 142.15 23.132 141.91 23.7C141.678 24.268 141.354 24.708 140.938 25.02C140.53 25.332 140.058 25.488 139.522 25.488C138.986 25.488 138.51 25.332 138.094 25.02C137.678 24.708 137.35 24.268 137.11 23.7C136.878 23.132 136.762 22.464 136.762 21.696C136.762 20.928 136.878 20.26 137.11 19.692C137.35 19.124 137.678 18.688 138.094 18.384C138.51 18.072 138.986 17.916 139.522 17.916ZM139.522 18.804C139.162 18.804 138.846 18.924 138.574 19.164C138.31 19.396 138.102 19.732 137.95 20.172C137.798 20.604 137.722 21.112 137.722 21.696C137.722 22.28 137.798 22.792 137.95 23.232C138.102 23.664 138.31 24 138.574 24.24C138.846 24.48 139.162 24.6 139.522 24.6C139.874 24.6 140.182 24.48 140.446 24.24C140.718 24 140.93 23.664 141.082 23.232C141.234 22.792 141.31 22.28 141.31 21.696C141.31 21.112 141.234 20.604 141.082 20.172C140.93 19.732 140.718 19.396 140.446 19.164C140.182 18.924 139.874 18.804 139.522 18.804ZM148.665 22.932H156.117V23.736H148.665V22.932ZM147.405 25.704H157.245V26.532H147.405V25.704ZM148.665 18.012H156.009V18.828H149.673V23.172H148.665V18.012ZM149.361 20.424H155.769V21.228H149.361V20.424ZM160.358 25.8068L160.294 26.2713C160.251 26.6122 160.179 26.9673 160.077 27.3366C159.977 27.7088 159.874 28.054 159.766 28.3722C159.661 28.6903 159.574 28.9432 159.506 29.1307H158.602C158.639 28.9545 158.69 28.7159 158.756 28.4148C158.821 28.1165 158.885 27.7827 158.947 27.4134C159.01 27.044 159.057 26.6676 159.088 26.2841L159.131 25.8068H160.358ZM165.416 17.772H166.364V19.488H168.68V17.772H169.616V22.836H165.416V17.772ZM166.364 20.268V22.032H168.68V20.268H166.364ZM173.132 17.088H174.08V23.604H173.132V17.088ZM171.38 19.896H173.42V20.724H171.38V19.896ZM170.804 17.292H171.74V23.532H170.804V17.292ZM166.808 24.252H174.08V27.936H173.096V25.068H166.808V24.252ZM180.583 20.172H182.431V21H180.583V20.172ZM178.543 17.928C179.023 17.928 179.447 18.04 179.815 18.264C180.183 18.488 180.475 18.8 180.691 19.2C180.907 19.592 181.015 20.048 181.015 20.568C181.015 21.08 180.907 21.536 180.691 21.936C180.475 22.328 180.183 22.636 179.815 22.86C179.447 23.084 179.023 23.196 178.543 23.196C178.063 23.196 177.639 23.084 177.271 22.86C176.903 22.636 176.611 22.328 176.395 21.936C176.187 21.536 176.083 21.08 176.083 20.568C176.083 20.048 176.187 19.592 176.395 19.2C176.611 18.8 176.903 18.488 177.271 18.264C177.639 18.04 178.063 17.928 178.543 17.928ZM178.543 18.78C178.247 18.78 177.979 18.856 177.739 19.008C177.507 19.16 177.323 19.372 177.187 19.644C177.051 19.908 176.983 20.216 176.983 20.568C176.983 20.912 177.051 21.22 177.187 21.492C177.323 21.756 177.507 21.964 177.739 22.116C177.979 22.268 178.247 22.344 178.543 22.344C178.839 22.344 179.107 22.268 179.347 22.116C179.587 21.964 179.775 21.756 179.911 21.492C180.047 21.22 180.115 20.912 180.115 20.568C180.115 20.216 180.047 19.908 179.911 19.644C179.775 19.372 179.587 19.16 179.347 19.008C179.107 18.856 178.839 18.78 178.543 18.78ZM184.171 17.076H185.119V25.2H184.171V17.076ZM182.119 17.292H183.055V24.888H182.119V17.292ZM178.039 26.88H185.443V27.696H178.039V26.88ZM178.039 24.156H179.035V27.252H178.039V24.156ZM188.262 22.284H195.714V23.1H188.262V22.284ZM187.014 25.632H196.854V26.46H187.014V25.632ZM188.262 18.084H195.606V18.9H189.246V22.644H188.262V18.084Z" fill="#8A8F98"/>
<path d="M13.5795 46V45.233C13.5795 45 13.6207 44.7528 13.7031 44.4915C13.7884 44.2273 13.9105 43.973 14.0696 43.7287C14.2315 43.4815 14.4261 43.267 14.6534 43.0852L15.1989 43.5284C15.0199 43.7841 14.8636 44.0511 14.7301 44.3295C14.5994 44.6051 14.5341 44.9006 14.5341 45.2159V46H13.5795ZM15.7614 46V45.233C15.7614 45 15.8026 44.7528 15.8849 44.4915C15.9702 44.2273 16.0923 43.973 16.2514 43.7287C16.4134 43.4815 16.608 43.267 16.8352 43.0852L17.3807 43.5284C17.2017 43.7841 17.0455 44.0511 16.9119 44.3295C16.7813 44.6051 16.7159 44.9006 16.7159 45.2159V46H15.7614ZM26.0663 42.088H27.0623V48.244H26.0663V42.088ZM20.0543 48.868H27.0623V52.792H20.0543V48.868ZM26.0903 49.672H21.0263V51.976H26.0903V49.672ZM20.9903 42.508H21.8183V43.564C21.8183 44.236 21.6903 44.868 21.4343 45.46C21.1783 46.044 20.8183 46.552 20.3543 46.984C19.8983 47.416 19.3623 47.748 18.7463 47.98L18.2543 47.188C18.6623 47.044 19.0343 46.848 19.3703 46.6C19.7063 46.352 19.9943 46.068 20.2343 45.748C20.4823 45.428 20.6703 45.084 20.7983 44.716C20.9263 44.34 20.9903 43.956 20.9903 43.564V42.508ZM21.1703 42.508H21.9983V43.564C21.9983 43.948 22.0623 44.316 22.1903 44.668C22.3263 45.02 22.5143 45.348 22.7543 45.652C23.0023 45.948 23.2903 46.212 23.6183 46.444C23.9543 46.676 24.3223 46.86 24.7223 46.996L24.2303 47.764C23.7823 47.612 23.3703 47.4 22.9943 47.128C22.6183 46.856 22.2943 46.536 22.0223 46.168C21.7503 45.8 21.5383 45.396 21.3863 44.956C21.2423 44.516 21.1703 44.052 21.1703 43.564V42.508ZM31.8854 43.24H32.7014V44.116C32.7014 44.788 32.5734 45.408 32.3174 45.976C32.0694 46.544 31.7174 47.04 31.2614 47.464C30.8134 47.888 30.2814 48.212 29.6654 48.436L29.1614 47.644C29.7054 47.452 30.1814 47.18 30.5894 46.828C30.9974 46.468 31.3134 46.056 31.5374 45.592C31.7694 45.128 31.8854 44.636 31.8854 44.116V43.24ZM32.0654 43.24H32.8814V44.116C32.8814 44.588 32.9894 45.036 33.2054 45.46C33.4214 45.884 33.7254 46.256 34.1174 46.576C34.5094 46.896 34.9694 47.148 35.4974 47.332L35.0294 48.112C34.4214 47.904 33.8974 47.604 33.4574 47.212C33.0174 46.82 32.6734 46.36 32.4254 45.832C32.1854 45.296 32.0654 44.724 32.0654 44.116V43.24ZM29.4614 42.88H35.2694V43.696H29.4614V42.88ZM36.6374 42.076H37.6334V48.616H36.6374V42.076ZM37.3574 44.836H39.2294V45.664H37.3574V44.836ZM34.1774 48.916C34.9134 48.916 35.5454 48.996 36.0734 49.156C36.6094 49.308 37.0214 49.532 37.3094 49.828C37.5974 50.124 37.7414 50.484 37.7414 50.908C37.7414 51.332 37.5974 51.692 37.3094 51.988C37.0214 52.284 36.6094 52.512 36.0734 52.672C35.5454 52.832 34.9134 52.912 34.1774 52.912C33.4414 52.912 32.8054 52.832 32.2694 52.672C31.7334 52.512 31.3214 52.284 31.0334 51.988C30.7454 51.692 30.6014 51.332 30.6014 50.908C30.6014 50.484 30.7454 50.124 31.0334 49.828C31.3214 49.532 31.7334 49.308 32.2694 49.156C32.8054 48.996 33.4414 48.916 34.1774 48.916ZM34.1774 49.708C33.6414 49.708 33.1774 49.756 32.7854 49.852C32.4014 49.948 32.1054 50.084 31.8974 50.26C31.6894 50.436 31.5854 50.652 31.5854 50.908C31.5854 51.164 31.6894 51.384 31.8974 51.568C32.1054 51.744 32.4014 51.88 32.7854 51.976C33.1774 52.072 33.6414 52.12 34.1774 52.12C34.7134 52.12 35.1734 52.072 35.5574 51.976C35.9414 51.88 36.2374 51.744 36.4454 51.568C36.6534 51.384 36.7574 51.164 36.7574 50.908C36.7574 50.652 36.6534 50.436 36.4454 50.26C36.2374 50.084 35.9414 49.948 35.5574 49.852C35.1734 49.756 34.7134 49.708 34.1774 49.708ZM45.1444 42.268C46.3444 42.268 47.2804 42.432 47.9524 42.76C48.6244 43.08 48.9604 43.54 48.9604 44.14C48.9604 44.748 48.6244 45.216 47.9524 45.544C47.2804 45.864 46.3444 46.024 45.1444 46.024C43.9524 46.024 43.0164 45.864 42.3364 45.544C41.6644 45.216 41.3284 44.748 41.3284 44.14C41.3284 43.54 41.6644 43.08 42.3364 42.76C43.0164 42.432 43.9524 42.268 45.1444 42.268ZM45.1444 43.012C44.5604 43.012 44.0604 43.056 43.6444 43.144C43.2284 43.232 42.9084 43.36 42.6844 43.528C42.4684 43.696 42.3604 43.9 42.3604 44.14C42.3604 44.38 42.4684 44.588 42.6844 44.764C42.9084 44.932 43.2284 45.06 43.6444 45.148C44.0604 45.228 44.5604 45.268 45.1444 45.268C45.7364 45.268 46.2404 45.228 46.6564 45.148C47.0724 45.06 47.3884 44.932 47.6044 44.764C47.8284 44.588 47.9404 44.38 47.9404 44.14C47.9404 43.9 47.8284 43.696 47.6044 43.528C47.3884 43.36 47.0724 43.232 46.6564 43.144C46.2404 43.056 45.7364 43.012 45.1444 43.012ZM40.2484 46.756H50.0524V47.56H40.2484V46.756ZM41.4364 48.484H48.7924V50.932H42.4324V52.24H41.4604V50.2H47.8204V49.252H41.4364V48.484ZM41.4604 52.036H49.1164V52.816H41.4604V52.036ZM62.0065 42.076H63.0025V52.936H62.0065V42.076ZM62.7745 46.348H64.7785V47.2H62.7745V46.348ZM55.0945 43H56.0785V45.856H59.1625V43H60.1465V50.332H55.0945V43ZM56.0785 46.648V49.504H59.1625V46.648H56.0785ZM73.6336 42.076H74.6176V52.948H73.6336V42.076ZM71.4376 45.508H74.2456V46.336H71.4376V45.508ZM71.4376 47.776H74.2456V48.592H71.4376V47.776ZM68.4616 44.656H69.2536V45.592C69.2536 46.16 69.1816 46.716 69.0376 47.26C68.8936 47.796 68.6856 48.296 68.4136 48.76C68.1416 49.224 67.8256 49.636 67.4656 49.996C67.1056 50.348 66.7096 50.628 66.2776 50.836L65.7256 50.068C66.1176 49.876 66.4816 49.624 66.8176 49.312C67.1536 49 67.4456 48.644 67.6936 48.244C67.9416 47.844 68.1296 47.42 68.2576 46.972C68.3936 46.516 68.4616 46.056 68.4616 45.592V44.656ZM68.6536 44.656H69.4456V45.592C69.4456 46.04 69.5136 46.48 69.6496 46.912C69.7936 47.344 69.9896 47.752 70.2376 48.136C70.4856 48.512 70.7776 48.852 71.1136 49.156C71.4576 49.46 71.8296 49.704 72.2296 49.888L71.6656 50.656C71.2336 50.456 70.8336 50.184 70.4656 49.84C70.0976 49.496 69.7776 49.1 69.5056 48.652C69.2336 48.204 69.0216 47.72 68.8696 47.2C68.7256 46.68 68.6536 46.144 68.6536 45.592V44.656ZM66.0136 43.96H71.8576V44.764H66.0136V43.96ZM68.4616 42.28H69.4576V44.404H68.4616V42.28ZM84.0966 42.076H85.0806V52.948H84.0966V42.076ZM84.8526 46.384H86.8566V47.224H84.8526V46.384ZM77.1846 49.492H78.0486C78.7206 49.492 79.3366 49.484 79.8966 49.468C80.4646 49.444 81.0126 49.408 81.5406 49.36C82.0686 49.304 82.6046 49.224 83.1486 49.12L83.2446 49.936C82.6846 50.04 82.1366 50.12 81.6006 50.176C81.0726 50.232 80.5206 50.272 79.9446 50.296C79.3686 50.32 78.7366 50.332 78.0486 50.332H77.1846V49.492ZM77.1606 43.084H82.0566V46.984H78.1686V49.828H77.1846V46.156H81.0726V43.9H77.1606V43.084ZM88.9695 43.2727V46.2727H88.032V43.2727H88.9695ZM91.1513 43.2727V46.2727H90.2138V43.2727H91.1513Z" fill="white"/>
</g>
<defs>
<filter id="filter0_d_512_3412" x="0" y="0" width="362" height="72" filterUnits="userSpaceOnUse" color-interpolation-filters="sRGB">
<feFlood flood-opacity="0" result="BackgroundImageFix"/>
<feColorMatrix in="SourceAlpha" type="matrix" values="0 0 0 0 0 0 0 0 0 0 0 0 0 0 0 0 0 0 127 0" result="hardAlpha"/>
<feOffset dy="4"/>
<feGaussianBlur stdDeviation="2"/>
<feComposite in2="hardAlpha" operator="out"/>
<feColorMatrix type="matrix" values="0 0 0 0 0 0 0 0 0 0 0 0 0 0 0 0 0 0 0.25 0"/>
<feBlend mode="normal" in2="BackgroundImageFix" result="effect1_dropShadow_512_3412"/>
<feBlend mode="normal" in="SourceGraphic" in2="effect1_dropShadow_512_3412" result="shape"/>
</filter>
</defs>
</svg>
