<svg width="130" height="24" viewBox="0 0 130 24" fill="none" xmlns="http://www.w3.org/2000/svg">
<path d="M14.9213 0.999998V24H11.7213V14.04H3.52125V24H0.28125V0.999998H14.9213ZM3.52125 10.96H11.7213V4H3.52125V10.96ZM33.1634 11.68V13.72H29.9634V12.96C29.9634 12.32 29.4034 11.96 28.4434 11.96H23.5634C22.3634 11.96 21.7634 12.44 21.7634 13.36V19.56C21.7634 20.52 22.4034 21 23.7634 21H28.4434C29.2834 21 29.9634 21.08 29.9634 20.04V19.24H33.1634V21.32C33.1634 22.96 32.6834 24 30.4034 24H21.7234C19.1234 24 18.5234 23 18.5234 20.28V12.68C18.5234 9.8 19.1234 9.04 21.8834 8.96H30.2034C32.0434 8.96 33.1634 10.04 33.1634 11.68ZM51.7963 11.8V24H48.5563V13.44C48.5563 12.48 48.3163 12 47.1163 12H40.3563V24H37.1563V0.999998H40.3563V8.92H48.3163C50.6363 8.92 51.7963 9.8 51.7963 11.8ZM60.5891 2.12V3.48C60.5891 4.24 60.2291 4.64 59.5091 4.64H57.6291C56.9491 4.64 56.5891 4.24 56.5891 3.48V2.12C56.5891 1.36 56.9491 0.959999 57.6291 0.959999H59.5091C60.2291 0.959999 60.5891 1.36 60.5891 2.12ZM60.1891 7.96V24H56.9891V7.96H60.1891ZM80.0784 21V24H68.1584C66.1184 24 65.3984 22.56 65.3984 21.08V11.84C65.3984 10.04 66.2384 8.92 68.5584 8.92H76.8784C78.5584 8.92 80.0384 9.6 80.0384 11.84V15.72C80.0384 17.52 78.4784 18.4 77.2384 18.4H68.5984V19.56C68.5984 20.52 69.2384 21 70.4384 21H80.0784ZM76.8384 14.24V13.32C76.8384 12.4 76.1984 11.92 74.9184 11.92H70.5184C69.2384 11.92 68.5984 12.4 68.5984 13.32V15.68H75.0384C76.2384 15.68 76.8384 15.2 76.8384 14.24ZM95.4303 9H98.8703L92.8703 24H89.8703L83.2703 9H86.7903L91.2703 19.08L95.4303 9ZM116.758 21V24H104.838C102.798 24 102.078 22.56 102.078 21.08V11.84C102.078 10.04 102.918 8.92 105.238 8.92H113.558C115.238 8.92 116.718 9.6 116.718 11.84V15.72C116.718 17.52 115.158 18.4 113.918 18.4H105.278V19.56C105.278 20.52 105.918 21 107.118 21H116.758ZM113.518 14.24V13.32C113.518 12.4 112.878 11.92 111.598 11.92H107.198C105.918 11.92 105.278 12.4 105.278 13.32V15.68H111.718C112.918 15.68 113.518 15.2 113.518 14.24ZM129.71 10.96V14.04H126.83V17H123.75V14.04H120.75V10.96H123.75V8.04H126.83V10.96H129.71Z" fill="white"/>
</svg>
