<svg width="80" height="17" viewBox="0 0 80 17" fill="none" xmlns="http://www.w3.org/2000/svg">
<path d="M7.088 9.368V5.288H2.48V9.368H7.088ZM9.368 17H7.088V11.168H2.48V17H0.2V3.512H9.368V17ZM20.9461 7.016H18.6661V6.344C18.6661 5.504 18.4261 5.288 17.9701 5.288H14.9221C14.3461 5.288 14.0581 5.552 14.0581 6.104V14.408C14.0581 14.96 14.3701 15.248 15.0421 15.248H17.9701C18.3541 15.248 18.6661 15.104 18.6661 14.456V13.496H20.9461V15.2C20.9461 16.136 20.6341 17 19.1221 17H13.8421C12.1861 17 11.7781 16.424 11.7781 14.816V5.696C11.7781 4.04 12.1621 3.56 13.9381 3.512H19.0021C20.2021 3.512 20.9461 3.92 20.9461 5.576V7.016ZM32.2899 17H30.0099V11.168H25.4019V17H23.1219V3.512H25.4019V9.368H30.0099V3.512H32.2899V17ZM36.956 17H34.7V3.512H36.956V17ZM47.6921 5.288H41.6441V9.368H47.6921V11.168H41.6441V15.248H47.8121V17H39.3641V3.512H47.6921V5.288ZM60.0669 3.512L55.8429 17H53.7069L49.0269 3.512H51.4749L54.7149 12.896L57.6669 3.512H60.0669ZM70.0749 5.288H64.0269V9.368H70.0749V11.168H64.0269V15.248H70.1949V17H61.7469V3.512H70.0749V5.288ZM79.7024 4.664H76.9904V7.568H76.1744V4.664H73.4624V3.776H76.1744V0.871999H76.9904V3.776H79.7024V4.664Z" fill="white"/>
</svg>
